<svg width="29" height="29" viewBox="0 0 29 29" fill="none" xmlns="http://www.w3.org/2000/svg">
<path d="M14.3307 28.9379H14.2678C6.40115 28.9379 0.000976562 22.5359 0.000976562 14.667V14.604C0.000976562 6.73508 6.40115 0.333008 14.2678 0.333008H14.3307C22.1973 0.333008 28.5975 6.73508 28.5975 14.604V14.667C28.5975 22.5359 22.1973 28.9379 14.3307 28.9379ZM14.2678 1.30126C6.93449 1.30126 0.968939 7.26858 0.968939 14.604V14.667C0.968939 22.0024 6.93449 27.9697 14.2678 27.9697H14.3307C21.664 27.9697 27.6295 22.0024 27.6295 14.667V14.604C27.6295 7.26858 21.664 1.30126 14.3307 1.30126H14.2678Z" fill="black"/>
<path d="M16.2216 11.4274V14.4377H19.9444L19.3549 18.4927H16.2216V27.8354C15.5934 27.9225 14.9506 27.968 14.2982 27.968C13.5452 27.968 12.8056 27.908 12.0855 27.7918V18.4927H8.6521V14.4377H12.0855V10.7545C12.0855 8.46944 13.9372 6.61621 16.2225 6.61621V6.61815C16.2293 6.61815 16.2351 6.61621 16.2419 6.61621H19.9453V10.1232H17.5254C16.8062 10.1232 16.2225 10.7071 16.2225 11.4265L16.2216 11.4274Z" fill="black"/>
</svg>
