<svg width="30" height="29" viewBox="0 0 30 29" fill="none" xmlns="http://www.w3.org/2000/svg">
<path d="M15.1559 28.9379H15.093C7.22634 28.9379 0.826172 22.5359 0.826172 14.667V14.604C0.826172 6.73505 7.22634 0.333008 15.093 0.333008H15.1559C23.0225 0.333008 29.4227 6.73505 29.4227 14.604V14.667C29.4227 22.5359 23.0225 28.9379 15.1559 28.9379ZM15.093 1.30126C7.75969 1.30126 1.79413 7.26856 1.79413 14.604V14.667C1.79413 22.0024 7.75969 27.9697 15.093 27.9697H15.1559C22.4892 27.9697 28.4547 22.0024 28.4547 14.667V14.604C28.4547 7.26856 22.4892 1.30126 15.1559 1.30126H15.093Z" fill="black"/>
<path d="M19.4019 6.44141H10.8528C8.49099 6.44141 6.56958 8.36338 6.56958 10.7259V18.5493C6.56958 20.9119 8.49099 22.8338 10.8528 22.8338H19.4019C21.7637 22.8338 23.6851 20.9119 23.6851 18.5493V10.7259C23.6851 8.36338 21.7637 6.44141 19.4019 6.44141ZM8.08057 10.7259C8.08057 9.19704 9.3244 7.95283 10.8528 7.95283H19.4019C20.9303 7.95283 22.1741 9.19704 22.1741 10.7259V18.5493C22.1741 20.0782 20.9303 21.3224 19.4019 21.3224H10.8528C9.3244 21.3224 8.08057 20.0782 8.08057 18.5493V10.7259Z" fill="black"/>
<path d="M15.1256 18.6229C17.3219 18.6229 19.1098 16.8356 19.1098 14.6376C19.1098 12.4397 17.3229 10.6523 15.1256 10.6523C12.9283 10.6523 11.1415 12.4397 11.1415 14.6376C11.1415 16.8356 12.9283 18.6229 15.1256 18.6229ZM15.1256 12.1647C16.4895 12.1647 17.5988 13.2744 17.5988 14.6386C17.5988 16.0029 16.4895 17.1125 15.1256 17.1125C13.7618 17.1125 12.6525 16.0029 12.6525 14.6386C12.6525 13.2744 13.7618 12.1647 15.1256 12.1647Z" fill="black"/>
<path d="M19.4808 11.2941C20.0722 11.2941 20.5543 10.8128 20.5543 10.2203C20.5543 9.62771 20.0732 9.14648 19.4808 9.14648C18.8884 9.14648 18.4073 9.62771 18.4073 10.2203C18.4073 10.8128 18.8884 11.2941 19.4808 11.2941Z" fill="black"/>
</svg>
