<svg width="30" height="29" viewBox="0 0 30 29" fill="none" xmlns="http://www.w3.org/2000/svg">
<path d="M14.9818 28.9379H14.9189C7.05227 28.9379 0.6521 22.5359 0.6521 14.667V14.604C0.6521 6.73505 7.05227 0.333008 14.9189 0.333008H14.9818C22.8485 0.333008 29.2486 6.73505 29.2486 14.604V14.667C29.2486 22.5359 22.8485 28.9379 14.9818 28.9379ZM14.9189 1.30126C7.58562 1.30126 1.62006 7.26856 1.62006 14.604V14.667C1.62006 22.0024 7.58562 27.9697 14.9189 27.9697H14.9818C22.3151 27.9697 28.2807 22.0024 28.2807 14.667V14.604C28.2807 7.26856 22.3151 1.30126 14.9818 1.30126H14.9189Z" fill="black"/>
<path d="M21.6278 10.8162V13.4256C21.1719 13.3811 20.5795 13.2775 19.9241 13.0373C19.0685 12.7236 18.4316 12.2947 18.0144 11.9626V17.2366L18.0037 17.2202C18.0105 17.3247 18.0144 17.4312 18.0144 17.5387C18.0144 20.1578 15.8839 22.2899 13.2646 22.2899C10.6453 22.2899 8.51477 20.1578 8.51477 17.5387C8.51477 14.9196 10.6453 12.7866 13.2646 12.7866C13.5211 12.7866 13.7727 12.8069 14.0186 12.8466V15.4183C13.7824 15.334 13.5288 15.2885 13.2646 15.2885C12.0246 15.2885 11.015 16.2974 11.015 17.5387C11.015 18.78 12.0246 19.7889 13.2646 19.7889C14.5045 19.7889 15.5141 18.7791 15.5141 17.5387C15.5141 17.4922 15.5131 17.4458 15.5102 17.3993V7.15039H18.117C18.1266 7.37115 18.1354 7.59386 18.145 7.81462C18.1625 8.24936 18.3173 8.66668 18.5874 9.00848C18.9039 9.4103 19.3714 9.87698 20.0277 10.2498C20.6424 10.5974 21.2193 10.7474 21.6278 10.8181V10.8162Z" fill="black"/>
</svg>
