<svg width="29" height="29" viewBox="0 0 29 29" fill="none" xmlns="http://www.w3.org/2000/svg">
<path d="M14.7401 29.0002C6.87738 29.0002 0.481079 22.602 0.481079 14.7369C0.481079 6.87182 6.87738 0.473633 14.7401 0.473633C22.6029 0.473633 28.9992 6.87182 28.9992 14.7369C28.9992 22.602 22.6029 29.0002 14.7401 29.0002ZM14.7401 1.44188C7.4117 1.44188 1.44904 7.40629 1.44904 14.7369C1.44904 22.0675 7.4117 28.0319 14.7401 28.0319C22.0686 28.0319 28.0312 22.0675 28.0312 14.7369C28.0312 7.40629 22.0686 1.44188 14.7401 1.44188Z" fill="black"/>
<path d="M23.4119 11.8828C23.3035 10.8362 23.0702 9.6791 22.2116 9.07104C21.5466 8.5995 20.6725 8.58207 19.8566 8.58304C18.1316 8.58401 16.4058 8.58595 14.6809 8.58692C13.0218 8.58885 11.3627 8.58983 9.70359 8.59176C9.01053 8.59273 8.33683 8.53851 7.69313 8.83867C7.14043 9.09623 6.70775 9.58614 6.44737 10.1313C6.08632 10.8894 6.01082 11.7483 5.96726 12.5868C5.88692 14.1137 5.89563 15.6445 5.99146 17.1704C6.06212 18.2839 6.24119 19.5146 7.10171 20.2243C7.86446 20.8527 8.94084 20.8837 9.93009 20.8846C13.0702 20.8875 16.2112 20.8905 19.3523 20.8924C19.7549 20.8934 20.175 20.8856 20.5854 20.8411C21.3927 20.7539 22.1622 20.5225 22.6811 19.9241C23.2047 19.3209 23.3393 18.4814 23.4187 17.6865C23.6123 15.7578 23.6103 13.8106 23.4119 11.8828ZM12.865 17.4415V12.0339L17.546 14.7372L12.865 17.4415Z" fill="black"/>
</svg>
