<svg width="85" height="73" viewBox="0 0 85 73" fill="none" xmlns="http://www.w3.org/2000/svg">
<mask id="mask0_509_23103" style="mask-type:alpha" maskUnits="userSpaceOnUse" x="0" y="0" width="85" height="73">
<rect width="85" height="72.7812" fill="#D9D9D9"/>
</mask>
<g mask="url(#mask0_509_23103)">
<path d="M12.767 21.4624C12.3504 21.1176 11.7444 21.2093 11.3397 21.5182C11.0905 21.7076 10.9111 21.9428 10.7576 22.194C10.7297 21.2212 10.652 20.2524 10.5085 19.2876C10.3849 18.4484 10.2932 17.2424 9.32835 16.9154C7.95688 16.451 7.73362 17.8085 7.77349 19.0962C7.13161 18.1095 6.27245 17.2364 5.39734 17.665C4.45246 18.1294 4.7435 19.3275 5.26777 20.378C4.55014 20.0212 3.75277 19.8358 2.92152 19.8418C2.69028 19.8438 2.50091 20.0351 2.49692 20.2664C2.48097 21.2013 2.91155 21.9209 3.50957 22.5229C2.58662 22.4292 1.68161 22.5528 1.59789 23.5156C1.54207 24.1475 2.06036 24.5721 2.57865 24.7994C3.40193 25.1602 4.26508 25.4512 5.10829 25.7682C5.92759 28.3377 8.81804 29.462 11.2141 28.1085C11.2699 28.0766 11.3138 28.0387 11.3457 27.9948C11.4613 27.957 11.563 27.8712 11.6068 27.7178C11.9995 26.3622 12.3922 25.0087 12.7849 23.6532C12.9763 22.9914 13.4308 22.0126 12.765 21.4624H12.767Z" fill="#ACACAC"/>
<path d="M11.9711 23.4261C11.8535 23.8327 11.7359 24.2394 11.6183 24.6461L10.8329 27.3551C10.8189 27.3611 10.805 27.3651 10.791 27.373C8.75375 28.5233 6.37561 27.4647 5.83938 25.2062C5.7736 24.9271 5.51645 24.8574 5.30514 24.9311L4.1669 24.4985C3.78018 24.351 3.1702 24.2414 2.84328 23.9882L2.68181 23.9005C2.53828 23.4939 2.60805 23.3085 2.89112 23.3464C3.09644 23.2706 3.38548 23.3822 3.60077 23.4141C4.06125 23.4839 4.52173 23.5616 4.98022 23.6354C5.51445 23.7211 5.7437 22.9038 5.20547 22.8161C5.20547 22.8161 5.20149 22.8161 5.19949 22.8161C5.18753 22.8041 5.17557 22.7942 5.16162 22.7842C4.40611 22.244 3.58483 21.63 3.39346 20.7071C4.43203 20.8028 5.36096 21.2553 6.10052 22.0267C6.23009 22.1623 6.38557 22.1782 6.51913 22.1284C6.85004 22.2121 7.20886 21.7417 6.9218 21.3988C6.58093 20.9921 6.29188 20.5516 6.07261 20.0692C5.96098 19.824 5.32906 18.4246 6.02078 18.4804C6.36564 18.5083 6.9836 19.4891 7.15304 19.7363C7.45205 20.1728 7.70322 20.6393 7.90854 21.1277C8.08795 21.5523 8.71588 21.4526 8.75774 21.0978C8.78365 21.042 8.7996 20.9742 8.79163 20.8925C8.7378 20.2805 8.68199 19.6685 8.63215 19.0565C8.62019 18.913 8.52252 17.9562 8.68598 17.9063C9.15642 17.7628 9.54115 18.5841 9.59896 18.907C9.84216 20.2765 9.92987 21.6659 9.92588 23.0553C9.92588 23.1949 9.9817 23.2985 10.0634 23.3663C9.8581 23.6234 9.59896 23.8367 9.21622 23.9583C8.69794 24.1238 8.91921 24.9431 9.44148 24.7776C9.93186 24.6221 10.3325 24.3989 10.6754 24.0102C10.9385 23.7111 11.2615 22.6526 11.5884 22.4952C12.5891 22.0148 12.0429 23.1849 11.9731 23.4241L11.9711 23.4261Z" fill="black"/>
<path d="M36.3081 41.4498C36.5991 41.1807 36.3739 40.5767 35.9194 40.7262C30.6627 42.4445 24.7523 41.7169 20.1435 38.6231C15.8995 35.7765 13.0509 31.0581 12.3692 26.0128C12.3811 25.9968 12.3911 25.9829 12.3991 25.9669C12.3851 25.8413 12.3772 25.7158 12.3732 25.5902C12.2635 25.4108 12.0363 25.2872 11.7911 25.3968C10.91 25.7895 10.0309 26.1822 9.14981 26.5749C8.35444 26.9297 7.37766 27.2148 6.67598 27.7291C5.83476 28.3451 5.81881 29.5012 6.10387 30.4262C6.36102 31.2614 6.91719 31.4189 7.58697 31.2913C8.43019 36.9526 10.9598 42.3129 14.7752 46.6067C17.0796 49.1982 19.8684 51.4328 22.9741 52.9897C26.046 54.5306 29.997 55.4475 32.9412 53.1312C36.3978 50.4142 36.4616 45.6619 36.3699 41.6611C36.3699 41.5774 36.344 41.5076 36.3101 41.4498H36.3081Z" fill="#ACACAC"/>
<path d="M6.83495 29.7042C6.65554 28.2809 8.16456 27.9361 9.19914 27.4736C9.99252 27.1207 10.7839 26.7659 11.5773 26.4131C11.6809 27.0869 11.8205 27.7527 11.9959 28.4105C11.1985 28.869 10.3852 29.2956 9.54201 29.6683C8.79049 30.0012 7.00439 31.0677 6.83495 29.7042Z" fill="#DEDEDE"/>
<path d="M32.8915 52.0507C30.039 54.7817 25.8707 53.6076 22.7929 51.9391C17.319 48.9709 12.9913 44.0651 10.4895 38.3839C9.45694 36.0396 8.75725 33.5678 8.39844 31.0401C9.72605 30.5557 11.0058 29.9437 12.2358 29.248C13.4816 33.2209 15.9934 36.7612 19.4459 39.1713C24.0806 42.4066 30.1187 43.2937 35.5208 41.7328C35.6006 45.2631 35.6484 49.4114 32.8935 52.0507H32.8915Z" fill="#DEDEDE"/>
<path d="M58.2923 35.4281C56.249 33.4367 54.7101 30.9469 53.841 28.2299C53.5539 27.3329 53.3386 26.4119 53.1971 25.479C53.0376 24.4205 53.0256 23.358 52.9838 22.2875C52.9678 21.857 52.8921 21.7932 52.5652 21.528C52.308 21.3227 52.0449 21.1274 51.7738 20.94C51.2296 20.5652 50.6595 20.2303 50.0694 19.9353C48.8813 19.3413 47.6115 18.9107 46.3078 18.6555C43.7124 18.1472 40.9595 18.3446 38.5216 19.4011C38.1049 19.5825 37.7003 19.7858 37.3076 20.015C36.1753 20.6749 35.2484 21.5938 34.7361 22.8138C34.142 24.2291 34.0723 25.784 33.7992 27.2791C32.7048 30.2552 30.6815 32.8188 27.9744 34.559C27.5159 34.854 27.9405 35.5876 28.403 35.2926C30.1153 34.1922 31.5765 32.7769 32.7247 31.1463C32.015 33.04 31.0582 34.8341 29.8841 36.4986C29.8761 36.4986 29.8661 36.4986 29.8582 36.4966C29.7984 36.6341 29.7286 36.7657 29.6509 36.8933C29.3917 37.3199 29.8203 37.595 30.1093 37.8561C30.4881 38.195 30.8967 38.498 31.3094 38.795C32.1486 39.397 33.0596 39.8954 34.0124 40.2941C35.9401 41.0994 38.0192 41.5021 40.0983 41.6536C41.6492 41.7652 43.2081 41.7393 44.757 41.6137C49.7305 41.215 54.6782 39.5704 58.2942 36.0202C58.4537 35.8647 58.4557 35.5876 58.2942 35.4301L58.2923 35.4281Z" fill="#ACACAC"/>
<path d="M44.7546 40.779C39.8109 41.1796 34.2294 40.6275 30.5156 37.0453C32.1462 34.7648 33.3841 32.2272 34.1377 29.5261C34.8653 26.9167 34.5463 23.3246 36.763 21.4129C38.8023 19.6547 41.9259 19.1105 44.5353 19.268C47.346 19.4375 50.0591 20.5059 52.2139 22.3179C52.19 22.3678 52.1761 22.4256 52.1741 22.4934C52.0664 27.4151 53.9622 32.2013 57.3968 35.7137C53.9721 38.9071 49.3674 40.4042 44.7566 40.779H44.7546Z" fill="#ACACAC"/>
<path d="M52.8299 71.4135C53.1409 71.0428 53.2605 70.5165 53.3024 69.7949C53.3403 69.1371 53.3801 68.4812 53.428 67.8234C53.7569 63.2545 53.8566 58.6696 53.733 54.0888C53.6712 51.7983 53.5516 49.5119 53.3761 47.2274C53.2545 45.6427 53.1648 43.9582 52.4412 42.513C51.7296 41.0957 50.4478 40.3601 48.9448 40.0073C45.7095 39.2518 42.225 39.3973 39.0036 39.8658C37.989 40.0133 36.8886 40.083 35.9377 40.4937C34.2334 41.2293 33.3005 43.0991 32.6725 44.7436C31.8353 46.9324 31.4406 49.2906 31.022 51.587C30.5635 54.1147 30.1847 56.6563 29.8837 59.2079C29.6266 61.3946 29.3954 63.5854 29.2678 65.7841C29.204 66.8825 29.1661 67.9829 29.1641 69.0852C29.1641 69.6035 28.9329 70.3271 29.2658 70.7737C29.9396 71.6767 31.4147 71.593 32.4054 71.7544C35.3138 72.2289 38.1763 72.6674 41.1306 72.7491C44.5433 72.8428 48.0776 72.6714 51.4425 72.0794C52.1123 71.9617 52.5489 71.7504 52.8299 71.4135Z" fill="#ACACAC"/>
<path d="M30.0344 70.0458C30.0185 70.0199 30.0025 69.988 29.9906 69.9522C29.9427 69.8086 29.9507 69.6551 29.9607 69.5036C30.2198 65.0663 30.5228 60.6489 31.1567 56.2454C31.671 52.6712 32.1534 48.9137 33.3395 45.489C34.0033 43.5713 35.008 41.5081 37.1609 41.0436C41.1637 40.1825 45.4057 39.7818 49.3706 41.0357C51.3999 41.6776 52.0896 43.4995 52.3328 45.4511C52.8571 49.6472 52.9109 53.959 52.9029 58.183C52.8929 62.2855 52.6637 66.372 52.3428 70.4605C52.283 71.214 50.1221 71.1941 49.548 71.2578C48.6509 71.3575 47.7519 71.4353 46.8529 71.515C44.989 71.6804 43.1152 71.7383 41.2454 71.6924C39.3736 71.6466 37.5058 71.4931 35.6519 71.2359C34.723 71.1063 33.798 70.9509 32.879 70.7695C32.1375 70.6219 30.9155 70.5741 30.2657 70.2233C30.166 70.1694 30.0903 70.1296 30.0344 70.0439V70.0458Z" fill="black"/>
<path d="M46.6371 45.0274C45.8657 44.0526 44.3846 44.2041 43.2882 44.2221C42.3872 44.238 41.4861 44.254 40.5831 44.2679C39.8177 44.2819 38.9505 44.2081 38.2389 44.547C37.1485 45.0653 36.987 46.2713 37.1086 47.3597C37.3 49.084 37.8462 50.8123 38.514 52.4051C38.9406 53.4237 39.5007 54.9666 40.7665 55.1779C42.126 55.4031 42.9613 53.934 43.6131 52.9871C44.8969 51.1233 46.0411 49.0402 46.8225 46.8813C47.0617 46.2175 47.0916 45.6015 46.6351 45.0254L46.6371 45.0274Z" fill="#ACACAC"/>
<path d="M42.4467 53.1794C42.0101 53.7694 41.5237 54.5449 40.7044 54.19C40.1124 53.9329 39.8572 53.3209 39.5961 52.7647C39.0818 51.6684 38.6771 50.5202 38.3721 49.35C38.125 48.4032 37.7821 47.2988 37.9515 46.3141C38.2067 44.823 40.0307 45.128 41.1629 45.108C42.2553 45.0881 43.3696 45.0084 44.462 45.0602C45.0182 45.0861 45.7797 45.3413 46.0667 45.8616C46.4614 46.5732 45.7518 47.4663 45.4368 48.0742C44.5298 49.8225 43.6188 51.5906 42.4427 53.1794H42.4467Z" fill="#DEDEDE"/>
<path d="M50.8842 47.9314C50.8503 46.9367 50.5094 45.9001 50.2483 44.9971C49.71 43.1213 48.9505 41.3093 47.9797 39.6169C46.8754 37.6913 45.3106 35.2792 42.759 35.5583C40.1556 35.8454 38.0485 38.3132 36.7169 40.3764C35.2956 42.5811 34.3986 45.2005 34.281 47.8278C34.2312 48.9261 34.6877 49.6737 35.8678 49.4524C37.7416 49.0996 39.6074 48.4358 41.4473 47.9314C41.4573 47.9294 41.4673 47.9235 41.4772 47.9195C42.8447 47.9434 44.1683 48.2484 45.3883 48.8803C46.3571 49.3826 47.1306 50.3375 48.1611 50.7003C48.8867 50.9554 49.6403 50.7501 50.1526 50.174C50.7366 49.5182 50.9101 48.7388 50.8822 47.9314H50.8842Z" fill="#ACACAC"/>
<path d="M47.992 49.6642C47.2764 49.2476 46.7003 48.6336 45.9647 48.2309C44.5912 47.4774 43.0702 47.0369 41.4954 47.1565C39.8369 47.282 38.1664 47.9498 36.5677 48.3884C36.2687 48.4701 35.3816 48.8309 35.1444 48.4522C35.0288 48.2688 35.1444 47.5531 35.1644 47.3299C35.2341 46.5903 35.3657 45.8567 35.5511 45.1371C36.2428 42.45 37.7 39.9622 39.7412 38.0784C40.8615 37.0459 42.4583 35.9794 44.049 36.5335C45.4604 37.0239 46.3414 38.521 47.0611 39.733C48.279 41.7842 49.4751 44.0308 49.7841 46.4588C49.9296 47.6149 50.0153 50.8403 47.992 49.6642Z" fill="black"/>
<path d="M50.8701 37.3931C50.2442 37.423 49.6502 37.2197 49.1937 36.821C48.6814 36.3725 48.3764 35.7465 48.3365 35.0608C48.2946 34.3491 48.5478 33.6335 49.0282 33.0993C49.4349 32.6468 49.999 32.3497 50.613 32.264C50.6848 32.2541 50.7585 32.2461 50.8343 32.2421C51.4622 32.2122 52.11 32.4195 52.5665 32.7963C52.8576 33.0375 53.0609 33.3325 53.1685 33.6714C53.2642 33.9704 53.3021 34.2973 53.2842 34.6422C53.2503 35.2801 53.027 35.918 52.6582 36.4362C52.2516 37.0084 51.5997 37.3572 50.8701 37.3931Z" fill="#ACACAC"/>
<path d="M52.0424 35.9839C51.4783 36.7693 50.3241 36.8511 49.6344 36.1853C48.9506 35.5274 48.9526 34.5247 49.5088 33.7852C49.8018 33.3945 50.2364 33.0975 50.7208 33.0117C51.2032 32.926 51.7175 33.1034 52.0803 33.4224C52.487 33.7812 52.5926 34.2616 52.5208 34.7859C52.463 35.2125 52.2956 35.6331 52.0444 35.9839H52.0424Z" fill="black"/>
<path d="M35.5733 34.8521C34.9473 34.882 34.3533 34.6786 33.8968 34.28C33.3845 33.8314 33.0795 33.2055 33.0396 32.5198C32.9978 31.8081 33.2509 31.0925 33.7314 30.5583C34.138 30.1058 34.7021 29.8087 35.3161 29.723C35.3879 29.713 35.4616 29.7051 35.5374 29.7011C36.1653 29.6712 36.8132 29.8785 37.2697 30.2553C37.5607 30.4965 37.764 30.7915 37.8717 31.1304C37.9674 31.4294 38.0052 31.7563 37.9873 32.1012C37.9534 32.7391 37.7301 33.3769 37.3614 33.8952C36.9547 34.4673 36.3029 34.8162 35.5733 34.8521Z" fill="#ACACAC"/>
<path d="M36.7456 33.4429C36.1814 34.2283 35.0272 34.31 34.3375 33.6442C33.6538 32.9864 33.6558 31.9837 34.2119 31.2442C34.505 30.8535 34.9395 30.5564 35.4239 30.4707C35.9063 30.385 36.4206 30.5624 36.7834 30.8814C37.1901 31.2402 37.2957 31.7206 37.224 32.2449C37.1662 32.6714 36.9987 33.0921 36.7475 33.4429H36.7456Z" fill="black"/>
<path d="M38.3597 42.0662C38.3677 41.8111 38.3757 41.5559 38.3956 41.2988C38.4395 40.7446 38.5152 40.1924 38.6169 39.6462C38.7125 39.1259 38.7265 38.5897 38.7783 38.0634C38.7983 37.8322 38.884 37.5232 38.7684 37.3079C38.6508 37.0907 38.3418 36.977 38.1524 36.8275C37.8853 36.6162 37.6361 36.373 37.4049 36.1258C36.8926 35.5796 36.464 34.9637 36.1331 34.2919C35.0746 32.147 34.7775 29.4698 35.2241 26.1069C35.6287 23.061 36.9763 17.7326 41.4336 16.2654C41.4854 16.2475 41.5312 16.2375 41.5771 16.2256C41.6209 16.2136 41.6688 16.2037 41.7266 16.1817C42.3944 15.9286 43.114 15.781 43.8615 15.7452C45.1333 15.6834 46.4729 15.9465 47.7328 16.5086C49.7242 17.3957 51.2571 19.1579 52.0465 21.4683C52.6585 23.2544 52.8638 25.3494 52.6605 27.6997C52.4033 30.6758 51.6957 33.1238 50.5614 34.9756C50.0272 35.8468 49.3295 36.5843 48.4883 37.1644C48.2032 37.3618 47.9002 37.5412 47.5912 37.6947C47.4098 37.7844 47.3979 37.8581 47.354 38.1033L47.3321 38.2229C47.2882 38.4442 47.2464 38.6674 47.2065 38.8907C47.1268 39.3452 47.057 39.7977 47.0032 40.2303C46.8875 41.1612 46.8277 42.0682 46.8277 42.9294C46.8277 42.9613 42.8589 51.7542 40.4767 50.7296C39.3225 50.2332 38.4933 48.5648 38.3278 47.3328C38.1345 45.9095 38.2401 44.4404 38.3278 43.0131C38.3478 42.7001 38.3517 42.3852 38.3617 42.0702L38.3597 42.0662Z" fill="#ACACAC"/>
<path d="M50.6978 32.9541C50.0061 34.7362 48.8918 36.1834 47.2213 37.0346C47.1256 37.1064 47.0419 37.1861 46.9641 37.2698C46.9024 37.3436 46.8465 37.4213 46.7967 37.5011C46.693 37.7542 46.6073 38.0114 46.5475 38.2785C46.5455 38.2904 46.5396 38.3004 46.5316 38.3084C46.2385 39.7636 46.087 41.2367 46.0711 42.7238C45.6804 44.5059 41.8211 50.1194 40.5952 49.6768C39.738 49.3679 39.439 48.2456 39.2736 47.4542C39.0363 46.3119 38.9945 45.1299 38.9965 43.9677C38.9965 43.1763 39.0064 42.3849 39.0802 41.5975C39.152 40.838 39.3373 40.1005 39.427 39.343C39.5068 38.6612 39.6523 37.9117 39.433 37.2299C39.1858 36.4665 38.4682 36.1655 37.9439 35.6213C37.4097 35.0671 36.9751 34.4232 36.6602 33.7215C35.819 31.8457 35.7033 29.7008 35.8349 27.6775C36.0781 23.9299 37.3001 18.9404 41.0577 17.236C41.2271 17.1463 41.2889 17.1184 41.4065 17.0586C43.1288 16.2174 45.0824 16.3469 46.8884 16.9928C48.6865 17.6347 50.0838 18.9723 50.9051 20.6866C51.7105 22.371 51.9895 24.2648 51.9776 26.1187C51.9636 28.427 51.5351 30.8012 50.6978 32.9541Z" fill="black"/>
<path d="M46.8862 16.9928C45.0802 16.3469 43.1267 16.2174 41.4044 17.0586C41.2847 17.1164 41.2249 17.1443 41.0555 17.236C37.2999 18.9384 36.076 23.9279 35.8328 27.6775C35.8168 27.9327 35.8029 28.1878 35.7969 28.445C37.3438 28.7878 38.8687 27.4802 38.476 25.7319C38.6215 25.7479 38.779 25.702 38.8867 25.5545C40.3598 23.5591 41.9804 21.6873 43.7347 19.9391L45.5447 23.4455C46.1866 24.6874 46.7547 26.017 47.5819 27.1473C48.5328 28.445 50.2292 29.4496 51.7621 28.8656C51.8957 27.9506 51.9695 27.0296 51.9754 26.1167C51.9874 24.2628 51.7083 22.369 50.903 20.6846C50.0837 18.9703 48.6863 17.6327 46.8862 16.9908V16.9928Z" fill="#EDF3F5"/>
<path d="M42.9413 37.5647C43.6549 37.6723 44.7553 37.5208 44.9227 38.4318C45.0882 39.3329 44.2011 40.6884 43.8064 41.4399C43.1685 42.6559 42.3951 43.9715 41.3944 44.9244C40.6528 45.6301 39.7698 45.7218 39.0282 45.3629C39.0063 44.8965 38.9943 44.43 38.9963 43.9676C38.9963 43.1762 39.0063 42.3848 39.082 41.5974C39.1538 40.8379 39.3392 40.1003 39.4289 39.3428C39.5086 38.6611 39.6541 37.9116 39.4349 37.2298C39.3511 36.9707 39.2116 36.7673 39.0441 36.5859C40.314 37.0225 41.6117 37.3634 42.9453 37.5647H42.9413Z" fill="#EDF3F5"/>
<path d="M51.8202 18.9809C50.1098 16.5051 47.2194 15.2193 44.2412 15.5024C44.1974 15.4804 44.1475 15.4625 44.0897 15.4545C40.7986 15.0339 36.3892 14.8206 34.6728 18.3669C33.9074 19.9497 33.8814 21.8095 33.9592 23.5299C34.0549 25.6409 34.4496 27.718 35.0914 29.7314C35.0914 29.7354 35.0954 29.7393 35.0974 29.7453C35.0356 30.1699 35.7513 30.3254 35.9446 29.8649C37.8224 25.3897 40.677 21.4089 44.2751 18.1636C45.5449 23.3345 47.7616 28.2184 50.8275 32.578C50.9889 32.8072 51.262 32.8032 51.4474 32.6856C51.5291 32.6398 51.5989 32.57 51.6408 32.4663C52.1949 31.1288 52.6096 29.7593 52.8906 28.3499C52.9066 28.316 52.9206 28.2782 52.9285 28.2343C53.4707 25.1286 53.702 21.7079 51.8182 18.9829L51.8202 18.9809Z" fill="#ACACAC"/>
<path d="M51.1157 31.4954C48.2531 27.2614 46.1899 22.5689 45.0098 17.5893C44.9819 17.4697 44.9181 17.392 44.8384 17.3421C44.7387 17.0969 44.3939 16.9275 44.1287 17.1587C40.5047 20.3103 37.6282 24.1775 35.6228 28.5232C35.2242 27.0859 34.9511 25.6208 34.8454 24.1277C34.7338 22.5529 34.674 20.8366 35.1942 19.3256C36.4641 15.6378 40.7818 15.8869 43.9374 16.2816C44.0032 16.3335 44.0909 16.3614 44.2045 16.3514C47.0072 16.0743 49.7482 17.2664 51.2692 19.6804C52.6107 21.8114 52.6267 24.355 52.3017 26.7829C52.3017 26.7889 52.2978 26.7949 52.2978 26.8009C52.0745 28.4155 51.6818 29.9744 51.1157 31.4954Z" fill="#ACACAC"/>
<path d="M49.4643 27.2491C49.6337 27.0518 49.6297 26.6671 49.3148 26.5235C47.6742 25.778 45.8921 25.6504 44.1658 26.1408C43.1432 25.6943 42.0787 25.6883 41.064 26.1229C39.3656 25.4551 37.5496 25.4212 35.8233 26.0312C35.4944 26.1468 35.4585 26.5295 35.61 26.7408C35.6021 26.7627 35.5961 26.7867 35.5921 26.8126C35.2353 29.0193 36.0247 31.7901 38.8015 31.521C41.1657 31.2918 42.1006 28.8678 41.5365 26.8385C42.1883 26.5833 42.9039 26.5714 43.5638 26.8086C42.8103 28.7861 43.5259 31.3017 45.8721 31.7363C48.6151 32.2446 49.6417 29.5515 49.4762 27.3229C49.4762 27.297 49.4683 27.2731 49.4643 27.2511V27.2491Z" fill="#DEDEDE"/>
<path d="M38.2177 30.656C36.2761 30.4068 36.1944 28.3556 36.4376 26.8406C36.4436 26.7967 36.4436 26.7589 36.4376 26.723C37.8509 26.3143 39.2742 26.3662 40.6676 26.8805C41.3075 28.6008 40.3287 30.9271 38.2157 30.656H38.2177Z" fill="black"/>
<path d="M46.5265 30.9247C44.3975 31.0124 43.6241 28.6103 44.4095 26.9518C45.8408 26.5591 47.2621 26.6308 48.6375 27.1591C48.6296 27.195 48.6256 27.2328 48.6296 27.2767C48.7432 28.8076 48.482 30.8429 46.5265 30.9227V30.9247Z" fill="black"/>
<path d="M39.9893 28.164C39.8019 27.7793 39.4211 27.851 39.2038 28.1261C38.9008 28.5128 38.9288 29.2125 39.2517 29.5753C39.463 29.8125 39.8736 29.8185 40.0092 29.4896C40.1866 29.063 40.1906 28.5826 39.9873 28.162L39.9893 28.164Z" fill="#ACACAC"/>
<path d="M46.4932 28.164C46.3058 27.7793 45.925 27.851 45.7078 28.1261C45.4048 28.5128 45.4327 29.2125 45.7556 29.5753C45.9669 29.8125 46.3775 29.8185 46.5131 29.4896C46.6905 29.063 46.6945 28.5826 46.4912 28.162L46.4932 28.164Z" fill="#ACACAC"/>
<path d="M42.4331 31.8183C42.2298 31.1166 42.2458 30.4328 42.4989 29.7471C42.6883 29.2348 41.8889 28.9517 41.6976 29.464C41.3966 30.2793 41.3567 31.1505 41.5999 31.9857C41.7514 32.506 42.5846 32.3445 42.4331 31.8183Z" fill="#ACACAC"/>
<path d="M44.5092 32.6239C44.1065 33.2299 43.3071 33.3735 42.733 32.909C42.3124 32.5681 41.7084 33.1661 42.133 33.509C43.1437 34.3263 44.5171 34.1469 45.2427 33.0525C45.5457 32.596 44.8102 32.1714 44.5092 32.6239Z" fill="#ACACAC"/>
<path d="M52.3726 64.3187C52.3427 64.2111 52.2849 64.1353 52.2111 64.0875C51.1207 61.8548 49.5718 59.2794 46.793 59.2215C45.7524 59.1996 44.6341 59.6043 44.0261 60.4854C43.8607 60.7266 43.753 60.9857 43.7052 61.2469C43.0055 61.0894 42.252 61.5678 42.25 62.3652C42.25 63.3659 43.2786 63.7446 44.0959 63.8782C44.1916 63.8941 44.2773 63.8782 44.3511 63.8463C44.4806 64.2011 44.7258 64.5101 45.0727 64.7154C45.1604 65.4669 45.7006 66.049 46.4461 66.1806C46.4621 66.2623 46.482 66.346 46.5099 66.4297C46.8249 67.3786 47.9791 67.7773 48.7705 67.2151C49.1831 67.6577 49.811 67.9168 50.5027 67.8191C52.1672 67.5839 52.7653 65.758 52.3726 64.3187Z" fill="#ACACAC"/>
<path d="M43.1917 62.6101C42.9505 62.2732 43.2814 61.9044 43.6422 62.1237C43.7 62.1576 43.7558 62.1775 43.8096 62.1835C43.9113 62.4068 44.0728 62.6101 44.296 62.7736C44.2741 62.8653 44.2602 62.9569 44.2522 63.0486C43.8834 62.9908 43.4209 62.931 43.1917 62.6121V62.6101Z" fill="black"/>
<path d="M50.7909 66.8518C49.9098 67.3123 48.6898 66.5129 49.256 65.5083C49.5251 65.0318 48.7915 64.6032 48.5224 65.0797C48.2553 65.5501 48.2214 66.0365 48.347 66.4691C47.8088 66.9914 47.2147 66.2777 47.2705 65.7076C47.3343 65.0518 47.9104 64.6192 48.4427 64.3282C48.9211 64.065 48.4945 63.3314 48.0141 63.5946C47.3244 63.9733 46.6865 64.5853 46.4811 65.3269C45.8373 65.1634 45.8213 64.3182 46.1084 63.8079C46.3655 63.3494 46.814 63.0404 47.2466 62.7653C47.7071 62.4723 47.2805 61.7387 46.818 62.0317C46.1682 62.4464 45.5123 62.9826 45.2193 63.6982C44.9701 63.2916 45.1276 62.7274 45.4625 62.3327C45.8133 61.9201 46.3117 61.6669 46.7841 61.4257C47.2705 61.1766 46.842 60.445 46.3556 60.6922C45.7296 61.0131 45.0778 61.4058 44.6631 61.9819C44.0711 61.3978 45.01 60.5865 45.4306 60.3632C45.7974 60.1679 46.228 60.0742 46.6426 60.0662C47.5157 60.0463 48.3111 60.4011 48.9869 60.9314C50.2367 61.9101 50.9344 63.3773 51.6042 64.7787C51.7497 65.57 51.5624 66.4491 50.7869 66.8538L50.7909 66.8518Z" fill="black"/>
<path d="M61.0575 49.5199C58.2966 46.8427 55.3982 44.3111 52.3862 41.917C52.3044 41.8532 52.2167 41.8233 52.131 41.8193C51.9337 41.5482 51.3755 41.6319 51.3496 42.0725C51.228 44.2692 51.1064 46.466 50.9828 48.6627C50.8791 50.5405 50.4864 52.6854 51.0825 54.5154C51.5908 56.0742 52.9084 57.0031 54.1743 57.9301C55.8587 59.164 57.5431 60.3939 59.2276 61.6279C57.9857 63.2565 56.1438 64.325 54.0806 64.5602L54.2042 64.2652C54.2799 64.0838 54.1503 63.8844 54.0088 63.7867C53.2234 63.2386 52.1868 62.7203 51.3177 63.4219C50.4805 64.0977 50.4346 65.5091 50.2353 66.4759C50.0319 67.4546 49.5037 68.7842 50.01 69.751C50.4207 70.5325 51.2998 70.7996 52.1151 70.6401C52.3084 70.6022 52.4121 70.4089 52.426 70.2314L52.4838 69.5298C57.89 69.4779 64.6217 69.0254 67.3567 63.5057C70.1236 57.9221 64.6816 53.0382 61.0555 49.5239L61.0575 49.5199Z" fill="#ACACAC"/>
<path d="M51.6115 69.8513C50.0865 69.8871 50.9457 67.2379 51.1331 66.3349C51.2267 65.8804 51.2786 65.388 51.4261 64.9475C51.8208 63.7654 52.5344 63.873 53.274 64.3155C53.1683 64.5687 53.0627 64.8219 52.955 65.075C52.351 66.0717 51.9663 67.1502 51.7949 68.2924C51.755 68.3502 51.7271 68.42 51.7211 68.5037C51.6852 68.9522 51.6493 69.3988 51.6115 69.8473V69.8513Z" fill="#DEDEDE"/>
<path d="M63.2028 66.6846C60.0532 68.5963 56.182 68.6461 52.5998 68.676C52.7333 67.5119 53.1181 66.4334 53.732 65.4347C56.6803 65.2473 59.3216 63.5589 60.6891 60.9216C60.9402 60.4372 60.2087 60.0066 59.9555 60.493C59.8777 60.6425 59.796 60.7861 59.7123 60.9296C58.2332 59.8472 56.7541 58.7647 55.2749 57.6843C53.7739 56.5859 52.0735 55.5773 51.7386 53.5898C51.4277 51.7419 51.7805 49.6967 51.8842 47.8388C51.9778 46.1644 52.0695 44.4899 52.1632 42.8154C54.9899 45.0799 57.7169 47.4661 60.3223 49.9838C62.7802 52.3579 65.8819 54.9773 66.9544 58.3382C68.0368 61.7309 66.0852 64.9384 63.2048 66.6866L63.2028 66.6846Z" fill="#DEDEDE"/>
<path d="M78.9532 70.1949C79.229 69.8028 79.3039 69.2767 79.2842 68.5615C79.2665 67.9113 79.2527 67.261 79.2448 66.6089C79.1896 62.081 78.9098 57.557 78.4094 53.0567C78.1591 50.8066 77.8517 48.5623 77.4912 46.3279C77.2409 44.7773 77.0143 43.1261 76.1789 41.7606C75.3612 40.4228 74.0371 39.8041 72.5278 39.5834C69.2787 39.1066 65.8582 39.5381 62.7253 40.2671C61.7381 40.4957 60.6603 40.6553 59.7579 41.138C58.1383 42.005 57.3758 43.9221 56.893 45.593C56.2487 47.8195 56.0556 50.1721 55.833 52.4695C55.5886 54.9975 55.4271 57.5314 55.3423 60.0692C55.2694 62.2445 55.2221 64.4218 55.2793 66.597C55.3069 67.6847 55.362 68.7723 55.4507 69.856C55.4921 70.3663 55.3246 71.0973 55.6911 71.5111C56.43 72.3446 57.8743 72.1397 58.8634 72.2165C61.7677 72.4431 64.6247 72.6382 67.5389 72.4746C70.9082 72.2855 74.3741 71.8224 77.6409 70.9614C78.2911 70.79 78.7029 70.5456 78.9512 70.191L78.9532 70.1949Z" fill="#ACACAC"/>
<path d="M56.3847 70.7354C56.367 70.7098 56.3493 70.6822 56.3335 70.6467C56.2744 70.5108 56.2705 70.3571 56.2665 70.2073C56.1562 65.8154 56.0872 61.4392 56.3473 57.0493C56.5581 53.4869 56.7236 49.7451 57.6064 46.2753C58.1009 44.3306 58.9206 42.2164 61.0033 41.5819C64.875 40.4017 69.0187 39.6569 73.0284 40.5633C75.0795 41.0263 75.909 42.7661 76.311 44.6675C77.174 48.756 77.5858 53.0002 77.9247 57.1616C78.2557 61.2028 78.3681 65.2479 78.3878 69.301C78.3917 70.0477 76.2598 70.2073 75.7022 70.3177C74.8273 70.4911 73.9485 70.6428 73.0678 70.7945C71.2452 71.1117 69.4049 71.3245 67.5587 71.4329C65.7124 71.5413 63.8583 71.5472 62.0121 71.4447C61.086 71.3935 60.1639 71.3167 59.2418 71.2142C58.4989 71.1314 57.2911 71.1846 56.6232 70.893C56.5207 70.8477 56.4419 70.8162 56.3808 70.7354H56.3847Z" fill="#DEDEDE"/>
<path d="M56.4711 54.9915C56.4534 55.2694 56.4376 55.5491 56.4219 55.825C63.5349 56.5639 70.7109 56.3984 77.7747 55.3442C77.751 55.0664 77.7254 54.7886 77.6978 54.5088C70.6755 55.561 63.5428 55.7225 56.4711 54.9915Z" fill="black"/>
<path d="M56.6256 52.7676C56.6039 53.0454 56.5822 53.3232 56.5625 53.601C63.5612 54.2572 70.6131 53.9537 77.5212 52.7104C77.4917 52.4326 77.4601 52.1548 77.4306 51.875C70.5757 53.1144 63.577 53.4119 56.6275 52.7676H56.6256Z" fill="black"/>
<path d="M56.317 57.6658C56.2914 58.1544 56.2697 58.6431 56.25 59.1317C63.5167 59.3268 70.7814 58.9505 77.991 58.0264C77.9693 57.7367 77.9496 57.4491 77.9259 57.1594C77.9102 56.9644 77.8924 56.7693 77.8767 56.5742C70.7302 57.5003 63.5187 57.8569 56.317 57.6638V57.6658Z" fill="black"/>
<path d="M72.9513 40.8717C71.6351 38.2314 69.119 36.9231 66.2009 37.132C63.4778 37.327 60.808 38.3122 60.077 41.1949C59.279 44.3415 59.7499 47.9946 60.4592 51.1117C60.5262 51.4053 60.9577 51.5353 61.1607 51.2969C61.9272 50.3945 63.0109 49.7837 64.197 49.6773C64.8098 49.6221 65.4245 49.7068 66.0078 49.9019C66.788 50.1639 67.1368 50.7846 67.9348 50.3689C68.5082 50.0713 69.0224 49.7009 69.6293 49.4605C70.8115 48.9955 72.1927 48.9423 72.7287 50.3216C72.8587 50.6546 73.4735 50.7807 73.5385 50.3216C73.9838 47.1769 74.4252 43.8233 72.9533 40.8698L72.9513 40.8717Z" fill="#ACACAC"/>
<path d="M71.1277 48.3397C69.7642 48.2017 68.5465 48.9367 67.4589 49.6756C67.4569 49.6756 67.4549 49.6716 67.451 49.6697C65.3998 48.3692 62.8679 48.5899 61.1104 50.1524C60.6119 47.6796 60.407 45.1063 60.6808 42.598C60.8345 41.1912 61.268 39.7962 62.5211 38.9923C63.5832 38.3125 64.9644 38.0623 66.2018 37.9677C68.8972 37.7628 71.1336 38.9686 72.2941 41.4336C73.4192 43.8236 73.2104 46.5289 72.8675 49.0924C72.4124 48.6628 71.8134 48.4047 71.1277 48.3357V48.3397Z" fill="black"/>
<path d="M58.7071 36.5799C59.3199 36.6706 59.9248 36.5267 60.4115 36.176C60.9593 35.7839 61.3179 35.1968 61.4223 34.5249C61.5307 33.8293 61.3514 33.1023 60.9277 32.5289C60.5711 32.0461 60.045 31.6994 59.448 31.5555C59.3771 31.5378 59.3061 31.524 59.2332 31.5141C58.6185 31.4235 57.9604 31.5654 57.4757 31.8944C57.1663 32.1033 56.9378 32.3732 56.7998 32.6983C56.6777 32.9821 56.6087 33.3013 56.5929 33.6421C56.5654 34.2746 56.723 34.9209 57.0363 35.4667C57.3811 36.0677 57.9899 36.4735 58.7052 36.578L58.7071 36.5799Z" fill="#ACACAC"/>
<path d="M57.6865 35.083C58.1672 35.9086 59.2943 36.1017 60.0371 35.5125C60.7721 34.9293 60.8647 33.9441 60.3898 33.1638C60.1396 32.752 59.7396 32.4191 59.2706 32.287C58.8037 32.157 58.2815 32.2811 57.8934 32.5609C57.4579 32.8742 57.3101 33.3372 57.3298 33.8594C57.3476 34.285 57.4697 34.7145 57.6845 35.083H57.6865Z" fill="black"/>
<path d="M73.7071 36.1766C74.3199 36.2673 74.9248 36.1234 75.4115 35.7727C75.9593 35.3806 76.3179 34.7934 76.4223 34.1215C76.5307 33.426 76.3514 32.6989 75.9277 32.1256C75.5711 31.6428 75.045 31.296 74.448 31.1522C74.3771 31.1345 74.3061 31.1207 74.2332 31.1108C73.6185 31.0202 72.9604 31.1621 72.4757 31.4911C72.1663 31.7 71.9377 31.9699 71.7998 32.295C71.6777 32.5787 71.6087 32.8979 71.5929 33.2388C71.5654 33.8713 71.723 34.5176 72.0363 35.0634C72.3831 35.6643 72.9899 36.0702 73.7052 36.1747L73.7071 36.1766Z" fill="#ACACAC"/>
<path d="M72.6865 34.6787C73.1672 35.5043 74.2943 35.6974 75.0371 35.1082C75.7721 34.525 75.8647 33.5398 75.3898 32.7596C75.1396 32.3477 74.7396 32.0148 74.2706 31.8827C73.8037 31.7527 73.2815 31.8768 72.8934 32.1566C72.4579 32.4699 72.3101 32.9329 72.3298 33.4551C72.3476 33.8807 72.4697 34.3102 72.6845 34.6787H72.6865Z" fill="black"/>
<path d="M70.5696 42.3729C70.5873 42.1207 70.6031 41.8685 70.607 41.6143C70.6169 41.0646 70.5952 40.5149 70.5479 39.9671C70.5046 39.4469 70.542 38.9169 70.542 38.3948C70.546 38.1642 70.4908 37.8529 70.6248 37.6519C70.7607 37.449 71.078 37.3682 71.277 37.2382C71.5587 37.0569 71.8287 36.8402 72.0809 36.6195C72.6385 36.1328 73.1173 35.5653 73.5074 34.9368C74.7547 32.927 75.3024 30.3222 75.1822 26.9706C75.0739 23.9343 74.2581 18.5631 70.014 16.6952C69.9647 16.6735 69.9214 16.6578 69.876 16.642C69.8327 16.6262 69.7893 16.6105 69.7322 16.5848C69.0997 16.2716 68.4042 16.0588 67.6732 15.9504C66.4279 15.7671 65.0841 15.8992 63.7916 16.3307C61.7483 17.0124 60.0715 18.5986 59.0726 20.7975C58.3002 22.4959 57.8963 24.5372 57.8726 26.8682C57.8411 29.8217 58.3021 32.2965 59.242 34.2275C59.6834 35.1358 60.3001 35.9259 61.0725 36.5801C61.3345 36.8007 61.6143 37.0057 61.904 37.1869C62.0734 37.2933 62.0793 37.3662 62.099 37.6106L62.1089 37.7308C62.1306 37.9534 62.1503 38.1761 62.168 38.3987C62.2035 38.8539 62.2271 39.3051 62.2389 39.7366C62.2645 40.6627 62.235 41.5611 62.1542 42.4084C62.1503 42.4399 65.2142 51.4701 67.6574 50.6879C68.8416 50.3095 69.815 48.747 70.0967 47.551C70.4218 46.1698 70.4593 44.7137 70.5105 43.301C70.5223 42.9897 70.546 42.6803 70.5676 42.371L70.5696 42.3729Z" fill="#ACACAC"/>
<path d="M59.3016 32.2283C59.8119 34.0469 60.7715 35.5779 62.332 36.5749C62.4187 36.6557 62.4936 36.7404 62.5626 36.8311C62.6177 36.9079 62.6631 36.9907 62.7044 37.0754C62.7813 37.3335 62.8424 37.5956 62.8759 37.8635C62.8759 37.8753 62.8818 37.8852 62.8877 37.8931C63.0355 39.3511 63.0453 40.8171 62.9192 42.2811C63.134 44.0721 66.3949 49.9635 67.6422 49.6443C68.515 49.4217 68.917 48.3478 69.1534 47.5853C69.4963 46.4838 69.65 45.3253 69.7603 44.1825C69.8352 43.4042 69.9022 42.6239 69.9041 41.8417C69.9041 41.087 69.7938 40.3442 69.78 39.5915C69.7662 38.9137 69.6953 38.163 69.977 37.5128C70.2923 36.7838 71.0292 36.5572 71.5947 36.0725C72.172 35.5779 72.6626 34.9848 73.039 34.3248C74.0458 32.5593 74.3631 30.4609 74.4281 28.457C74.5483 24.7468 73.8212 19.7204 70.2884 17.687C70.1288 17.5826 70.0736 17.5491 69.9613 17.4801C68.3475 16.489 66.4127 16.4299 64.5743 16.891C62.7438 17.3501 61.2405 18.5323 60.271 20.1401C59.3174 21.7204 58.8622 23.5567 58.6967 25.3813C58.4898 27.6551 58.6849 30.0294 59.3016 32.2283Z" fill="black"/>
<path d="M70.2918 17.687C70.1322 17.5826 70.0771 17.5491 69.9648 17.4801C68.351 16.489 66.4161 16.4299 64.5778 16.891C62.7473 17.3501 61.2439 18.5323 60.2745 20.1401C59.3209 21.7204 58.8657 23.5567 58.7002 25.3813C58.5209 27.3595 58.645 29.4126 59.0864 31.3613C60.4578 28.4097 61.1474 25.2138 61.0981 21.9686C64.6527 22.6267 68.2604 22.4198 71.6869 21.3775C71.8977 24.5892 72.7646 27.6807 74.2582 30.522C74.3567 29.8343 74.4099 29.1388 74.4316 28.455C74.5518 24.7449 73.8247 19.7185 70.2918 17.6851V17.687Z" fill="#EDF3F5"/>
<path d="M66.4915 37.5061C65.7802 37.5455 64.7122 37.2894 64.46 38.1701C64.2118 39.0391 64.9546 40.4597 65.2718 41.236C65.7841 42.4931 66.4186 43.8605 67.3131 44.895C67.9752 45.6615 68.8342 45.8348 69.5987 45.5511C69.6657 45.094 69.7209 44.6369 69.7643 44.1817C69.8391 43.4034 69.9061 42.6232 69.9081 41.8409C69.9081 41.0863 69.7977 40.3434 69.784 39.5908C69.7702 38.913 69.6992 38.1623 69.981 37.512C70.0874 37.2657 70.245 37.0786 70.4263 36.917C69.1357 37.2263 67.8254 37.4352 66.4935 37.5081L66.4915 37.5061Z" fill="#EDF3F5"/>
<path d="M70.8906 14.3309C68.0158 13.4383 64.68 13.7595 61.9038 14.8274C60.5777 15.3377 59.2261 16.053 58.5758 17.3869C58.0419 18.4805 58.1798 19.7119 58.9935 20.6183C59.0684 20.7011 59.1531 20.7365 59.2359 20.7405C62.085 21.7079 65.1509 21.5858 68.1025 21.2744C69.4581 21.1306 70.8295 20.9966 72.1733 20.77C73.1545 20.6045 74.2087 20.1947 74.5456 19.1642C75.3022 16.8589 72.7723 14.9161 70.8906 14.3329V14.3309Z" fill="#ACACAC"/>
<path d="M73.3021 19.5622C72.8115 19.9267 72.0805 19.9957 71.5012 20.0725C70.2559 20.238 69.0087 20.3976 67.7595 20.5218C65.001 20.7956 62.1558 20.8863 59.4958 19.9976C58.2544 18.5238 59.7007 16.784 61.0602 16.051C62.4395 15.3062 64.0769 14.8786 65.6295 14.7131C68.124 14.4471 71.8539 14.5555 73.3632 16.9574C73.8518 17.7357 74.1848 18.9041 73.3041 19.5602L73.3021 19.5622Z" fill="#ACACAC"/>
<path d="M58.5063 19.5682C57.6197 19.915 57.198 20.9948 56.8729 21.8085C56.4099 22.9632 56.1537 24.2025 56.1202 25.4458C56.0552 27.9009 57.0345 30.1175 58.5004 32.0426C58.5063 32.0505 58.5142 32.0564 58.5201 32.0643C58.6719 32.2613 59.0186 32.2968 59.1664 32.0643C59.2295 31.9953 59.2649 31.9086 59.2511 31.814C59.9309 29.1875 60.3191 26.4921 60.3605 23.7749C60.3782 22.6775 60.7664 18.6816 58.5044 19.5663L58.5063 19.5682Z" fill="#ACACAC"/>
<path d="M59.4891 25.7201C59.359 27.4737 59.0753 29.2076 58.6674 30.9159C56.7365 27.9328 56.1099 24.0177 58.2005 20.8749C58.429 20.3548 58.8408 20.2622 59.4339 20.5932C59.491 20.8749 59.5226 21.1587 59.5285 21.4444C59.5561 21.8306 59.564 22.2227 59.5718 22.6108C59.5935 23.6472 59.564 24.6856 59.4871 25.7201H59.4891Z" fill="#ACACAC"/>
<path d="M76.627 24.1549C76.5916 23.0869 76.3729 22.019 75.8842 21.0614C75.5493 20.4033 74.9857 19.357 74.367 18.9078C73.8843 18.5571 73.108 18.4763 72.6469 18.9117C71.8942 19.623 72.3218 21.1028 72.4282 21.9697C72.8085 25.0553 73.4961 28.0877 74.2784 31.0945C74.2705 31.2107 74.3217 31.3053 74.4045 31.3664C74.5995 31.5575 74.9739 31.457 75.0567 31.195C75.0567 31.193 75.0586 31.1891 75.0606 31.1871C75.9039 28.9527 76.7039 26.5725 76.6251 24.1529L76.627 24.1549Z" fill="#ACACAC"/>
<path d="M73.0625 20.5663C73.0172 20.0363 73.1492 18.9723 73.9532 19.5811C74.1778 19.7506 74.3236 20.123 74.4792 20.3496C75.5826 21.9672 75.9885 23.581 75.7836 25.5415C75.6339 26.9838 75.228 28.3886 74.7472 29.758C74.2901 27.9414 73.8763 26.1129 73.5571 24.2667C73.3443 23.0411 73.167 21.8057 73.0625 20.5663Z" fill="#ACACAC"/>
<path d="M64.0264 27.6781C63.8156 27.3116 63.4432 27.4101 63.2501 27.6958C62.9782 28.0997 63.055 28.7854 63.3998 29.1204C63.6244 29.3391 64.0303 29.3174 64.1407 28.9824C64.2865 28.5509 64.255 28.0741 64.0264 27.6761V27.6781Z" fill="#ACACAC"/>
<path d="M69.845 27.2939C69.6716 26.9077 69.2933 26.9688 69.0706 27.2328C68.7593 27.6072 68.7652 28.2968 69.0746 28.6653C69.2756 28.9057 69.6814 28.9234 69.8253 28.6042C70.0125 28.1884 70.0322 27.7136 69.843 27.2919L69.845 27.2939Z" fill="#ACACAC"/>
<path d="M67.0247 27.2269C66.9144 26.6673 66.0593 26.9038 66.1696 27.4633C66.2465 27.8495 66.5992 29.0061 66.1361 29.217C65.6179 29.4534 66.0672 30.2179 66.5834 29.9834C67.5942 29.5224 67.1883 28.0623 67.0247 27.2289V27.2269Z" fill="#ACACAC"/>
<path d="M65.8447 30.1669C65.4664 29.9206 64.8457 30.2161 64.5009 30.4112C64.0536 30.6634 63.6911 31.0496 63.4684 31.5146C63.2931 31.8811 63.6438 32.22 64.0064 32.0525C64.3748 31.8831 64.7413 31.7136 65.1098 31.5442C65.3895 31.4141 65.7639 31.3117 65.9747 31.0713C66.1954 30.8171 66.1442 30.3974 65.8802 30.1925C65.8683 30.1846 65.8565 30.1748 65.8447 30.1669Z" fill="#ACACAC"/>
<path d="M67.1616 30.0589C67.5262 29.7949 68.1626 30.0589 68.5153 30.2363C68.9744 30.4668 69.3566 30.8333 69.6009 31.2865C69.794 31.6431 69.461 31.9997 69.0906 31.85C68.7143 31.6983 68.3399 31.5485 67.9636 31.3968C67.6779 31.2825 67.2976 31.1958 67.0769 30.9673C66.8424 30.7249 66.874 30.3033 67.1281 30.0865C67.14 30.0767 67.1498 30.0688 67.1616 30.0609V30.0589Z" fill="#ACACAC"/>
<path d="M67.4057 32.6824C66.7634 32.836 66.121 32.6587 65.6442 32.2016C65.2797 31.8509 64.7221 32.4065 65.0886 32.7572C65.7703 33.4114 66.6983 33.6597 67.6146 33.4409C68.1072 33.3227 67.8983 32.5641 67.4057 32.6824Z" fill="#ACACAC"/>
<path d="M84.5158 56.6122C83.966 53.6134 82.9001 50.6992 81.4046 48.0412C79.716 45.0383 77.2806 41.868 74.4394 40.2129C74.2482 40.1006 74.0886 40.1676 73.998 40.3055C73.8739 40.3922 73.8049 40.54 73.8758 40.7292C73.8916 40.7705 73.9093 40.8099 73.9251 40.8513C73.9468 40.8612 73.9684 40.871 73.9901 40.8848C74.1359 40.9755 74.2285 41.1173 74.3251 41.2552C74.5536 41.5823 74.8058 41.8917 75.0344 42.2188C75.1763 42.4197 75.0718 42.7212 74.8748 42.8414C75.7378 44.4591 76.6678 46.0629 76.7486 47.8796C76.7329 47.919 76.721 47.9604 76.7171 48.0077L75.8344 57.7255C72.8414 56.8566 69.6711 57.1994 66.9362 58.689C66.9027 58.6949 66.8673 58.7048 66.8318 58.7205C66.1954 58.9964 65.5589 59.2742 64.9245 59.55C63.4585 57.4634 61.4094 55.4202 58.9937 54.502C58.9779 54.4961 58.9622 54.4921 58.9464 54.4862C58.8006 53.1602 58.6528 51.8321 58.505 50.5061C58.4834 50.3169 58.3612 50.1928 58.2174 50.1357C57.8607 48.4057 57.9356 46.6462 58.4203 44.9812C58.3159 44.8512 58.2706 44.6719 58.3514 44.4827C58.6627 43.7576 58.9641 42.8572 59.5927 42.3212C59.7011 41.9646 59.2341 41.5705 58.905 41.8936C53.8274 46.857 50.8778 53.8813 51.0039 60.9983C51.063 64.3223 51.7231 68.0955 54.4323 70.3299C56.8933 72.3594 60.4064 72.5525 63.3561 71.6146C65.3678 70.9762 67.1195 69.8393 68.7017 68.4778C71.3419 70.0678 74.4669 70.9762 77.5506 70.3989C80.248 69.8925 82.7957 68.198 84.0015 65.6917C85.3394 62.9095 85.0557 59.5619 84.5158 56.6122Z" fill="#ACACAC"/>
<path d="M60.433 56.2404C61.8871 57.2237 63.1245 58.467 64.1412 59.8915C62.6141 60.5555 61.0871 61.2195 59.5581 61.8836C59.5069 61.8225 59.4379 61.7791 59.3611 61.7575C59.1108 61.3949 58.8586 61.0324 58.6084 60.6718C58.567 60.6107 58.5138 60.5614 58.4547 60.524C58.3404 60.4018 58.167 60.3506 57.9838 60.4728C57.7099 60.656 57.4144 60.8747 57.0833 60.9378C56.7957 60.993 56.4942 60.9535 56.5178 60.6087C56.5375 60.3447 56.6499 60.3033 56.8725 60.1772C57.4971 59.8206 58.236 59.6334 58.9473 59.5723C59.4793 59.525 59.5049 58.6876 58.967 58.733C58.2616 58.794 56.9691 58.995 56.2006 59.5546C56.175 59.5388 56.1474 59.5231 56.1179 59.5112C55.4125 59.2334 56.7523 58.5024 56.9572 58.4295C57.4932 58.2384 58.0449 58.1793 58.6104 58.2049C59.1502 58.2285 59.17 57.3911 58.6301 57.3655C57.6646 57.3222 56.4331 57.5034 55.6706 58.1812C55.6292 58.132 55.576 58.0906 55.5071 58.0591C54.9278 57.8069 56.1829 57.07 56.3622 56.9951C56.9139 56.7626 57.4932 56.7153 58.0823 56.7823C58.6182 56.8434 58.634 56.004 58.102 55.9429C57.1937 55.8385 56.1533 56.0257 55.3829 56.5675C55.4755 55.4759 56.6794 54.9341 57.7336 55.0405C58.7266 55.139 59.6271 55.6947 60.4349 56.2404H60.433Z" fill="black"/>
<path d="M64.8279 70.1072C62.028 71.5317 58.3099 71.9219 55.5692 70.1328C54.048 69.1397 53.1239 67.6403 52.5742 65.9734C52.5959 65.9674 52.6195 65.9596 52.6412 65.9497L58.5306 63.2503C58.5562 63.2385 58.5799 63.2247 58.6016 63.2089L66.9795 59.5677C67.0426 59.5677 67.1096 59.55 67.1766 59.5125C69.7952 58.0328 72.8354 57.6939 75.7141 58.5628C75.7299 58.5668 75.7437 58.5687 75.7575 58.5707C75.7437 58.7224 75.7299 58.8741 75.7161 59.0259C74.794 60.547 73.7438 61.9715 72.5635 63.2976C72.5222 63.3193 72.4808 63.3488 72.4414 63.3941C70.2247 65.9477 67.8859 68.5506 64.8259 70.1052L64.8279 70.1072Z" fill="black"/>
<path d="M80.1649 68.5528C76.7325 70.5212 72.6401 69.7941 69.3555 67.8927C70.4411 66.8898 71.4519 65.7923 72.4174 64.6948C72.4213 64.6909 72.4253 64.6889 72.4292 64.683C73.7908 63.2585 75.0045 61.7176 76.0626 60.0586C78.5334 61.3984 81.1422 62.4211 83.8711 63.1028C83.4554 65.3155 82.3736 67.2839 80.1629 68.5508L80.1649 68.5528Z" fill="black"/>
<path d="M59.1237 42.8653C56.6115 45.4228 54.6628 48.4867 53.4215 51.854C52.3043 54.8864 51.7526 58.1198 51.8511 61.3512C51.8885 62.5945 52.0245 63.9126 52.3437 65.1678C53.9712 64.421 55.6007 63.6742 57.2282 62.9275C57.2617 62.894 57.3031 62.8624 57.3582 62.8388C57.8035 62.6457 58.2508 62.4506 58.6961 62.2575C58.4971 61.9699 58.2961 61.6802 58.0971 61.3926C57.6164 61.6802 57.0765 61.8989 56.507 61.7472C55.9691 61.6034 55.5317 61.095 55.5889 60.5197C55.6007 60.4074 55.6263 60.3029 55.6657 60.2044C55.1967 59.9049 55.045 59.3434 55.2125 58.837C54.6116 58.5474 54.4579 57.9405 54.6687 57.3967C54.6293 57.3494 54.5978 57.2883 54.584 57.2095C54.2096 55.0066 56.241 54.0372 58.0892 54.2776C57.9493 53.0146 57.8094 51.7496 57.6696 50.4846C57.6282 50.1083 58.0282 50.0117 58.2902 50.1674C58.369 47.9389 58.572 45.7203 58.901 43.5155C58.97 43.2968 59.0449 43.08 59.1217 42.8633L59.1237 42.8653Z" fill="#DEDEDE"/>
<path d="M83.96 58.5518C83.1837 51.6733 79.5543 45.5356 74.2383 41.1318C74.4629 43.4864 75.9978 45.573 76.7722 47.8389C76.9613 47.4863 77.6037 47.5552 77.5603 48.0281C77.2253 51.7068 76.8924 55.3854 76.5574 59.0661C76.5712 59.137 76.5672 59.2119 76.5338 59.2907C76.5298 59.3124 76.5278 59.334 76.5219 59.3537C78.8923 60.6364 81.3887 61.6059 83.9994 62.2699C84.1354 61.062 84.0999 59.799 83.96 58.5518Z" fill="#DEDEDE"/>
</g>
</svg>
