<svg width="85" height="73" viewBox="0 0 85 73" fill="none" xmlns="http://www.w3.org/2000/svg">
<mask id="mask0_509_22969" style="mask-type:alpha" maskUnits="userSpaceOnUse" x="0" y="0" width="85" height="73">
<rect width="85" height="72.7812" fill="#D9D9D9"/>
</mask>
<g mask="url(#mask0_509_22969)">
<path d="M41.2514 44.0125C40.1839 42.7852 38.8454 42.4684 37.3926 41.9147C36.5563 41.595 36.0569 41.2497 35.7686 40.3763C35.5973 39.8569 35.6773 39.3859 35.5831 38.8636C35.4689 38.2357 35.2549 37.7619 34.7354 37.3709C33.882 36.7287 32.786 36.666 32.181 35.6699C31.7271 34.9249 31.6301 34.0173 31.7614 33.1668C31.8784 32.4104 32.2323 31.6912 32.2437 30.9177C32.2552 30.1443 31.9184 29.4279 31.5502 28.7657C30.8167 27.4357 29.578 26.4282 28.1709 25.8773C26.5754 25.2523 24.8401 25.1752 23.159 25.4207C22.3142 25.5434 21.4837 25.746 20.6674 25.9944C20.205 26.1342 19.6285 26.1 19.1804 26.334C18.4212 26.7307 18.7951 27.3872 18.541 28.0436C18.3727 28.4803 18.013 28.8057 17.6334 29.0654C17.0483 29.4678 16.3348 29.6476 15.6355 29.7418C14.1971 29.9331 12.7529 29.7276 11.3144 29.6847C9.58193 29.6305 7.69249 29.973 6.53656 31.3944C5.36637 32.8357 5.99428 34.3741 6.69069 35.8754C7.48414 37.5821 7.58403 39.2803 5.38064 39.8312C4.4188 40.0709 3.51404 40.2136 2.66065 40.7531C-0.347605 42.6568 -0.909869 46.821 1.51329 49.4296C2.77482 50.7882 4.39026 51.0565 6.08847 51.5531C7.64111 52.0069 8.48023 52.7347 8.64577 54.4158C8.72569 55.2321 8.73996 56.0484 9.25941 56.7305C10.5181 58.3831 13.4778 58.5086 15.3501 58.6742C17.9873 58.9025 20.6217 58.6742 23.1847 58.0577C27.9397 58.874 32.0668 57.4812 36.2567 55.3063C39.2021 53.7793 42.8583 51.79 42.7726 47.9683C42.7412 46.5298 42.1904 45.1028 41.2457 44.0153L41.2514 44.0125Z" fill="#ACACAC"/>
<path d="M37.1946 54.1711C33.0646 56.4058 28.9661 58.1497 24.2739 57.636C24.3224 57.4476 24.1797 57.2107 23.9343 57.2764C21.3941 57.9785 18.7797 58.2981 16.1453 58.1554C14.8496 58.0869 13.5538 57.91 12.2894 57.6217C10.5341 57.2221 9.43241 56.5657 9.23547 54.6249C9.08421 53.155 8.75883 52.0504 7.33462 51.3854C5.73631 50.6405 3.89254 50.6862 2.47689 49.5302C0.52466 47.9376 -0.0575829 45.1406 1.2753 42.9629C1.92889 41.8954 2.93926 41.0677 4.13799 40.6881C4.9343 40.437 5.80195 40.4113 6.56115 40.0374C7.90545 39.3781 8.07955 37.9596 7.64287 36.6438C7.33462 35.7134 6.72098 34.8885 6.50407 33.9296C6.09593 32.1286 7.52585 30.8956 9.08991 30.4475C12.1296 29.5741 18.7997 32.0002 19.4105 27.0026C21.7366 26.1549 24.2111 25.5127 26.6914 26.0236C29.2601 26.5516 31.4406 28.4039 31.6804 31.0526C31.2351 32.5253 30.8384 34.1408 31.5148 35.6021C31.786 36.19 32.1799 36.6467 32.7307 36.992C33.9637 37.7655 34.8028 37.5343 35.0568 39.3867C35.2538 40.8137 35.4107 41.6557 36.8407 42.2979C38.4218 43.0057 39.926 43.1884 41.0476 44.6668C42.1351 46.0996 42.5603 48.0861 41.9182 49.7985C41.1333 51.8935 39.0726 53.155 37.2031 54.1682L37.1946 54.1711Z" fill="#ACACAC"/>
<path d="M21.4735 35.9149C21.4992 35.718 21.5106 35.5239 21.4792 35.327C21.4107 34.896 21.1139 34.602 20.8998 34.2396C20.6743 33.86 20.4546 33.4775 20.2434 33.0922C19.8181 32.3244 19.4185 31.5424 19.0418 30.7461C18.2911 29.1649 17.6404 27.5352 17.0924 25.8741C15.9964 22.549 15.32 19.0898 15.0774 15.5964C14.9946 14.3834 14.9632 13.1646 14.9832 11.9488C14.9832 11.9317 14.9775 11.9202 14.9746 11.906C15.6396 11.0326 16.3931 10.2363 17.238 9.53704C17.7089 9.14602 18.5423 8.68651 18.294 7.93872C17.9629 6.94263 16.7585 7.43925 15.9108 8.00722C15.9336 6.79992 15.8737 5.59548 15.6825 4.3996C15.5683 3.68892 15.554 2.16196 14.8348 1.73098C13.7787 1.09736 13.6389 2.78987 13.6789 4.10848C13.4876 3.81165 13.285 3.52338 13.0652 3.24367C12.7427 2.83553 12.2518 2.09917 11.621 2.259C11.2243 2.36175 11.053 2.75562 11.0645 3.13236C10.4851 3.07243 10.0084 3.54336 10.0084 4.14272C10.0084 4.65076 10.2625 5.15309 10.5621 5.61546C9.80865 5.25584 8.9153 5.01038 8.49575 5.56408C8.15325 6.01789 8.50145 6.49168 8.86107 6.78851C9.48898 7.30225 10.1454 7.78745 10.7876 8.28122C10.7876 8.29263 10.7876 8.30405 10.7905 8.31832C11.0131 9.02044 11.2329 9.72256 11.4555 10.4247C11.4469 10.4475 11.4326 10.4675 11.4298 10.496C10.0998 19.1069 10.6478 27.9433 13.1366 36.3002C13.7131 38.2353 14.3353 40.2304 15.1972 42.0599C15.6339 42.9846 16.3132 44.0207 17.492 43.8437C18.8191 43.6439 19.5441 42.0285 20.0293 40.9753C20.4603 40.042 20.7771 39.063 21.0254 38.067C21.1538 37.5504 21.2623 37.0309 21.3622 36.5115C21.3993 36.3145 21.4449 36.1147 21.4735 35.9121V35.9149Z" fill="#ACACAC"/>
<path d="M20.8612 35.5381C20.8754 35.6352 20.8811 35.7322 20.8754 35.8349C20.8098 36.6569 20.5729 37.5417 20.3503 38.338C20.2275 38.7776 20.0848 39.2142 19.925 39.6424C19.8422 39.865 19.7538 40.0876 19.6596 40.3045C19.5939 40.4586 19.3856 40.7469 19.3856 40.9067C19.1087 41.4861 18.752 42.3709 18.2211 42.7648C16.4344 44.092 15.7865 41.92 15.3698 40.8782C14.1283 37.7758 13.1807 34.5506 12.5071 31.2797C11.5767 26.7559 11.1999 22.118 11.3683 17.5028C11.4254 15.9502 11.5538 14.4004 11.7336 12.8563C11.825 12.0629 12.0818 11.2837 12.0533 10.4788C12.0248 9.70536 11.6537 9.01751 11.4254 8.29541C11.4882 8.19266 11.4882 8.06137 11.3598 7.96148C10.9573 7.65038 10.5577 7.33928 10.1553 7.02818C9.95552 6.87405 9.75287 6.71708 9.55308 6.56295C9.42465 6.46306 9.13638 6.3175 9.06217 6.16338C8.82243 5.65819 9.89273 6.05206 10.0668 6.11486C10.4949 6.26898 10.8888 6.48875 11.2656 6.74276C11.4739 6.88547 11.6737 6.72279 11.708 6.5287C11.7736 6.44308 11.7936 6.32891 11.7137 6.20904C11.4882 5.87511 11.2627 5.54117 11.0544 5.19582C10.963 5.0417 10.1496 3.53186 11.0372 3.74878C11.1 3.7659 11.1571 3.75734 11.2056 3.74022C11.4682 4.45946 11.9391 5.17014 12.2702 5.8323C12.4472 6.18906 12.978 5.87511 12.8039 5.5212C12.587 5.08737 12.3701 4.65068 12.1561 4.21686C12.0476 3.99994 11.9306 3.78303 11.8307 3.56326C11.5852 3.29212 11.6138 3.15797 11.9192 3.16654C12.0876 3.05522 12.2131 3.08947 12.2902 3.27214C12.6327 3.50903 12.9124 4.05132 13.1379 4.39952C13.3691 4.75914 13.5746 5.13018 13.7658 5.51263C13.7772 5.53547 13.7915 5.54688 13.8057 5.56401C13.9313 5.85513 14.4337 5.82944 14.3937 5.46982C14.3252 4.84477 14.2139 4.14836 14.2938 3.52045C14.3195 3.31495 14.3223 2.61569 14.6677 2.59571C14.7248 2.59285 14.936 3.74592 14.9531 3.82299C15.2585 5.36707 15.347 6.92257 15.287 8.49235C15.2357 8.54087 15.19 8.58368 15.1529 8.62364C14.8818 8.91476 15.3184 9.35144 15.5896 9.06032C15.9378 8.68643 16.4715 8.19837 17.0024 8.12131C17.2792 7.97004 17.4733 8.08706 17.5818 8.47808C17.4933 8.55229 17.4048 8.62935 17.3163 8.70355C17.1108 8.86909 16.8996 9.02893 16.697 9.19732C15.835 9.92227 15.0844 10.75 14.4051 11.649C14.3309 11.7489 14.3309 11.846 14.3766 11.9259C14.3766 11.9344 14.3709 11.943 14.3709 11.9516C14.3081 15.4422 14.6791 18.9442 15.4668 22.3463C16.2574 25.757 17.4676 29.0678 19.0631 32.1845C19.3742 32.7953 19.7024 33.3975 20.0449 33.994C20.316 34.4678 20.7755 34.9673 20.8669 35.5381H20.8612Z" fill="black"/>
<path d="M40.3576 29.8896C41.3651 28.7251 42.3384 27.2295 41.465 25.7054C41.0512 24.9833 40.3376 24.5438 39.6041 24.5438C39.5213 23.7446 38.725 23.1881 37.9459 23.5135C37.2123 23.8188 37.0325 24.6894 37.4407 25.3059C37.0982 25.537 36.8727 25.9281 36.907 26.3904C36.3133 26.5074 35.8481 27.0212 35.9023 27.6719C35.9023 27.6919 35.9137 27.7033 35.9166 27.7204C35.7025 27.8061 35.5141 27.963 35.3914 28.1714C34.8834 29.0248 35.3714 30.1008 36.1506 30.586C36.1991 30.6174 36.2448 30.6288 36.2905 30.6317C36.4474 31.1739 36.8185 31.6534 37.3465 31.9132C37.3579 31.9189 37.3693 31.9189 37.3807 31.9217C38.1713 33.8597 38.4796 35.8861 38.2969 37.9011C38.2769 38.1209 35.791 38.3435 35.5198 38.3692C34.518 38.4577 33.5105 38.4605 32.5087 38.3778C31.5412 38.3007 30.5451 37.9325 29.5947 37.8983C29.1409 37.8812 28.981 38.1666 28.6899 38.5462C27.0802 40.6468 25.8472 44.2887 28.2646 46.2609C30.6621 48.216 35.3457 47.4425 37.9887 46.5006C40.8885 45.4674 43.4886 43.187 44.1536 40.0788C44.9756 36.24 42.5296 32.7865 40.3633 29.8896H40.3576Z" fill="#ACACAC"/>
<path d="M38.1921 24.0733C38.5974 23.9106 38.9827 24.2331 38.9941 24.6441C38.9941 24.6441 38.9941 24.647 38.9941 24.6498C38.7715 24.7297 38.5546 24.8525 38.352 25.0294C38.332 25.0465 38.3206 25.0694 38.3063 25.0893C38.2121 25.0808 38.1179 25.0808 38.0266 25.0893C38.018 25.0751 38.0123 25.0608 38.0009 25.0494C37.7126 24.7411 37.7783 24.2388 38.1893 24.0761L38.1921 24.0733Z" fill="black"/>
<path d="M39.1441 45.3337C36.6382 46.6294 33.2218 47.1403 30.4419 46.5524C28.5353 46.1499 27.3594 44.7685 27.5135 42.7621C27.6362 41.1723 28.5581 39.7852 29.4115 38.4894C32.3313 39.223 35.3453 39.2315 38.2165 38.5522C38.0909 39.4256 37.8797 40.2933 37.5686 41.1495C37.4345 41.5234 38.0281 41.6832 38.1623 41.3122C39.0442 38.8719 39.2098 36.189 38.5933 33.666C38.4277 32.9838 38.2051 32.3131 37.934 31.6652C37.8997 31.5824 37.8398 31.5254 37.7713 31.494C37.7456 31.4512 37.7113 31.4112 37.6514 31.3798C36.9635 31.0373 36.6524 30.2581 36.9122 29.536C37.0463 29.1621 36.4498 28.9995 36.3185 29.3733C36.2614 29.5332 36.2272 29.6959 36.2129 29.8585C35.9189 29.5703 35.7306 29.1564 35.8219 28.7426C35.8761 28.4886 36.0217 28.2802 36.2928 28.2802C36.6667 28.2802 36.9065 28.6998 37.0806 28.9738C37.2946 29.3077 37.8284 28.9995 37.6143 28.6627C37.3432 28.2403 37.0263 27.8093 36.5183 27.6837C36.5183 27.678 36.5183 27.6751 36.5183 27.6694C36.4698 27.0843 37.0492 26.8417 37.5315 27.0644C37.9168 27.2413 38.1223 27.6323 38.2394 28.0205C38.3535 28.4001 38.95 28.2374 38.833 27.8578C38.6332 27.2014 38.1965 26.5906 37.5173 26.4165C37.5173 26.4108 37.5173 26.4079 37.5173 26.3993C37.4744 25.8485 38.0053 25.5631 38.4848 25.7629C38.9529 25.9598 39.1441 26.4564 39.1726 26.9302C39.1955 27.3241 39.8148 27.3269 39.7891 26.9302C39.752 26.2994 39.4866 25.663 38.9757 25.3233C40.1402 24.5641 41.2505 26.0968 41.1506 27.2099C41.0592 28.2146 40.3457 28.9823 39.7035 29.6959C39.5351 29.8814 39.6493 30.124 39.8205 30.2039C41.1106 31.9307 42.5034 33.7944 43.2113 35.8665C43.2055 35.8665 43.2027 35.8694 43.197 35.8722C43.2626 35.9692 43.314 36.0749 43.3454 36.189C43.3825 36.3175 43.3968 36.4516 43.4339 36.5829C43.451 36.6428 43.4596 36.7028 43.4653 36.7627C43.5966 37.3307 43.6793 37.9101 43.6822 38.5123C43.6965 41.492 41.7071 44.0122 39.1413 45.3365L39.1441 45.3337Z" fill="black"/>
<path d="M32.5891 53.5111C32.1324 50.2374 31.6757 46.9637 31.2191 43.6872C30.9165 41.5095 31.1306 38.3186 28.7274 37.3053C27.2518 36.6831 25.6078 36.6774 24.1237 36.0096C23.2988 35.6385 22.5282 35.1562 21.8204 34.5939C21.4322 34.2828 20.3106 32.8044 19.8282 33.0498C19.657 33.1354 19.5457 33.3038 19.4486 33.4665C18.0358 35.824 16.8342 38.0617 16.1635 40.7617C15.4899 43.4674 15.2502 46.2673 15.2473 49.0472C15.2445 51.8871 15.1589 55.0381 15.8125 57.8208C16.349 60.1042 18.033 61.3543 20.1051 62.2419C23.9182 63.8773 29.6607 65.0903 32.335 60.8434C33.7022 58.6714 32.9201 55.8686 32.5919 53.5111H32.5891Z" fill="#ACACAC"/>
<path d="M31.9942 60.1214C31.312 61.4999 29.9278 62.4218 28.4893 62.8528C25.5039 63.7461 21.7193 62.5388 19.0964 61.0318C15.7856 59.131 16.1081 55.2608 15.9682 51.91C15.7028 45.6081 16.2308 39.0522 20.0211 33.792C21.5795 35.4645 23.5288 36.6946 25.7608 37.2655C27.4818 37.705 29.4426 37.6479 29.9934 39.76C30.3388 41.0786 30.4073 42.5114 30.5957 43.8614C31.0666 47.2407 31.5375 50.62 32.0085 54.0021C32.2796 55.9543 32.9189 58.2548 31.997 60.1242L31.9942 60.1214Z" fill="#DEDEDE"/>
<path d="M26.9682 50.837C26.7542 46.1477 26.2861 41.4754 25.1644 36.9088C25.133 36.7861 24.9989 36.6719 24.8676 36.6833C24.5993 36.7033 24.331 36.7233 24.0627 36.7433C23.9543 36.6462 23.7773 36.6691 23.6603 36.7747C23.4405 36.7918 23.2207 36.8089 23.0038 36.8232C22.8554 36.8346 22.7641 36.9288 22.727 37.0401C22.5671 37.0316 22.413 37.1257 22.4359 37.3312C23.0324 42.3945 23.4405 47.4777 23.6317 52.5752C23.7231 55.0212 23.743 57.4671 23.763 59.9131C23.7716 60.9035 24.4138 61.3231 25.3442 61.0548C25.4042 61.0519 25.4584 61.032 25.5098 61.0006C25.5469 60.9863 25.584 60.9749 25.6239 60.9578C26.9425 60.4183 27.1594 58.977 27.1823 57.7155C27.2194 55.4293 27.0824 53.1146 26.9768 50.8313L26.9682 50.837Z" fill="#ACACAC"/>
<path d="M24.3754 59.9162C24.2441 59.705 24.3754 58.9515 24.3754 58.6918C24.3697 57.6728 24.3583 56.6539 24.3354 55.6321C24.2926 53.5943 24.2156 51.5564 24.1071 49.5186C23.8902 45.48 23.5363 41.45 23.0625 37.4342C23.2651 37.4171 23.4421 37.3971 23.6019 37.3828C24.7864 45.0405 25.2602 52.7809 25.029 60.527C24.8235 60.4699 24.6066 60.2844 24.3783 59.9133L24.3754 59.9162Z" fill="black"/>
<path d="M26.4956 58.6004C26.4442 58.8772 26.1246 59.8733 25.6508 60.3271C25.8677 52.6581 25.3882 45.0004 24.2266 37.417C24.4777 37.4998 24.6632 37.7167 24.8431 38.2104C25.1599 39.0867 25.2483 40.1455 25.4025 41.0646C25.7535 43.1424 25.9819 45.2402 26.1417 47.3437C26.2815 49.1874 26.37 51.0369 26.4328 52.8864C26.4956 54.7016 26.8324 56.8137 26.4956 58.6032V58.6004Z" fill="black"/>
<path d="M27.4099 35.5298C26.6992 34.2227 25.5633 33.0353 24.0363 32.7756C21.0566 32.2733 19.0358 35.3129 19.2727 38.0044C19.3726 39.146 19.932 40.2791 21.165 40.4532C22.4922 40.6416 23.4912 39.6826 24.2989 38.7579C24.7298 39.871 25.3349 41.201 26.6649 41.3979C27.6582 41.5435 28.4602 40.9384 28.6543 39.9595C28.9311 38.5752 28.0492 36.7029 27.4099 35.5298Z" fill="#ACACAC"/>
<path d="M27.3941 40.5678C27.1686 40.6677 26.9003 40.7019 26.6178 40.6477C25.5361 40.4451 25.1964 39.3719 24.8539 38.4814C24.794 38.3244 24.6598 38.2816 24.5314 38.3045C24.4715 38.099 24.1718 37.962 23.9863 38.1789C23.5439 38.6926 22.8617 39.6402 22.1539 39.7344C21.1321 39.9484 20.4585 39.743 20.0989 38.9067C19.9705 38.5927 19.8991 38.2674 19.8849 37.9334C19.8535 37.5224 19.8763 37.0915 19.9477 36.6833C20.3073 34.6341 22.2909 32.6904 24.4914 33.5324C26.0698 34.1374 26.9203 35.7129 27.4769 37.2056C27.7366 37.9049 28.1048 38.6184 28.1162 39.3805C28.1247 39.9285 27.8336 40.3737 27.3941 40.5678Z" fill="black"/>
<path d="M17.723 29.5154C17.7401 30.4259 18.5621 31.2393 19.4755 31.2365C21.7531 31.2251 21.6589 27.6688 19.4184 27.7373C18.5079 27.7658 17.703 28.6021 17.723 29.5154Z" fill="#ACACAC"/>
<path d="M19.4387 28.3534C20.9428 28.3106 20.9 30.6367 19.4558 30.6168C18.8793 30.6082 18.3398 30.0716 18.3398 29.4922C18.3398 28.9129 18.8593 28.3677 19.4387 28.3506V28.3534Z" fill="black"/>
<path d="M29.3285 31.6189C29.3456 32.5294 30.1676 33.3428 31.0809 33.34C33.3585 33.3286 33.2643 29.7723 31.0238 29.8408C30.1134 29.8694 29.3085 30.7056 29.3285 31.6189Z" fill="#ACACAC"/>
<path d="M31.0442 30.457C32.5483 30.4141 32.5055 32.7403 31.0613 32.7203C30.4847 32.7117 29.9453 32.1751 29.9453 31.5958C29.9453 31.0164 30.4648 30.4712 31.0442 30.4541V30.457Z" fill="black"/>
<path d="M21.9834 33.1806C21.3669 35.2584 21.0786 38.7233 23.8985 39.2827C24.7719 39.4568 25.7566 39.1714 26.2674 38.4036C26.9325 37.4047 26.5757 36.1089 26.8411 34.993C29.4983 34.2138 31.4477 32.0532 32.3154 29.4474C33.1288 27.0014 32.9062 24.407 32.3154 21.941C31.7902 19.7462 30.9454 17.2117 28.4366 16.698C26.3559 16.2698 24.0041 17.0804 22.4029 18.419C18.1474 21.9781 17.3683 29.5301 21.9834 33.1806Z" fill="#ACACAC"/>
<path d="M21.7707 19.8921C23.4233 17.9798 27.0966 16.1475 29.5083 17.6973C30.8726 18.5735 31.2379 20.4429 31.5975 21.9071C32.0171 23.6339 32.2055 25.4548 32.0456 27.1987C31.8944 28.8426 31.432 30.498 30.4445 31.8423C29.9536 32.5102 29.3399 33.0839 28.6406 33.5263C28.0156 33.923 27.1765 34.0143 26.5942 34.3825C25.1272 35.313 27.0052 39.0462 24.1511 38.6837C22.8782 38.5239 22.2788 37.5135 22.1789 36.3205C22.1304 35.7354 22.1903 35.1389 22.2902 34.5595C22.3501 34.2027 22.764 33.2751 22.6213 32.9669C22.587 32.8955 22.5271 32.8384 22.4643 32.7871C21.5139 31.9508 20.7918 30.9576 20.2952 29.873C18.8253 26.6735 19.3305 22.712 21.7707 19.8921Z" fill="black"/>
<path d="M31.5973 21.9067C31.2405 20.4396 30.8752 18.573 29.5081 17.6968C27.0963 16.147 23.423 17.9822 21.7705 19.8916C19.8211 22.1464 19.1104 25.1261 19.6527 27.8661C19.6756 27.8575 19.7013 27.8433 19.7269 27.8261C19.7526 27.8062 19.7726 27.7862 19.7983 27.7662C19.8354 27.7462 19.8668 27.7205 19.8896 27.6863C20.7373 26.9613 21.2482 25.8939 22.1672 25.2774C22.6696 24.9406 23.2404 24.7665 23.8169 24.601C24.0452 25.8482 25.3724 25.9367 26.5141 25.7597C28.0953 25.5171 29.4396 24.7265 30.4984 23.5849C30.7553 25.8482 31.0122 28.1144 31.2691 30.3777C31.2691 30.3777 31.2691 30.3806 31.2691 30.3834C31.7057 29.3788 31.9483 28.2857 32.0454 27.1954C32.2052 25.4515 32.0168 23.6306 31.5973 21.9038V21.9067Z" fill="#D3DDE1"/>
<path d="M25.6376 34.3284C25.8773 34.4311 26.1199 34.5111 26.3682 34.5767C25.8345 35.1761 25.9744 36.3377 25.8688 37.2796C25.1381 37.2282 24.6044 36.5889 24.3076 35.9381C24.0507 35.3759 23.6111 34.2542 24.5444 34.0316C24.9326 33.9402 25.3008 34.1857 25.6376 34.3312V34.3284Z" fill="#D3DDE1"/>
<path d="M23.6215 26.5615C24.3836 26.4017 24.1353 27.7974 23.9212 28.1284C23.7757 28.3511 23.4417 28.3339 23.3532 28.0685C23.2362 27.7146 23.0564 26.7071 23.5844 26.5701C23.5958 26.5672 23.6101 26.5644 23.6215 26.5615Z" fill="#ACACAC"/>
<path d="M28.1701 27.498C28.9378 27.3667 28.641 28.751 28.4155 29.0735C28.2643 29.2904 27.9303 29.2619 27.8504 28.9936C27.7448 28.634 27.6021 27.6236 28.133 27.5037C28.1444 27.5037 28.1587 27.498 28.1701 27.4952V27.498Z" fill="#ACACAC"/>
<path d="M26.5725 27.3577C26.7923 28.2311 26.5897 29.1016 26.016 29.7923C25.762 30.0977 25.3196 29.6696 25.5707 29.3642C25.9989 28.8476 26.1444 28.1826 25.9817 27.5318C25.8847 27.1465 26.4755 26.9696 26.5725 27.3549V27.3577Z" fill="#ACACAC"/>
<path d="M25.3891 30.1429C25.0067 30.0944 24.6499 29.9289 24.3559 29.6777C23.9421 29.321 23.6681 30.1115 23.5853 30.3913C23.4341 30.9136 23.4483 31.5129 24.0249 31.7669C24.8897 32.1465 25.4947 31.2418 25.686 30.534C25.7431 30.3199 25.5832 30.1686 25.3891 30.1429Z" fill="#ACACAC"/>
<path d="M20.9522 19.244C19.4594 19.1013 18.6746 21.2761 18.4006 22.375C17.9239 24.2701 18.1979 26.1795 19.057 27.9177C19.1369 28.0804 19.291 28.1004 19.4195 28.0433C19.5165 28.0832 19.625 28.069 19.7135 27.9577C20.9436 26.3879 21.7799 24.6155 22.071 22.6319C22.2222 21.6072 22.5134 19.3953 20.9522 19.2469V19.244Z" fill="#ACACAC"/>
<path d="M21.517 22.121C21.4513 22.7718 21.3172 23.4254 21.1259 24.0533C20.7635 25.2434 20.1869 26.3109 19.4477 27.2984C18.9711 26.231 18.7285 25.115 18.7856 23.9305C18.817 23.2998 18.9368 22.6633 19.1338 22.0639C19.1994 21.8613 19.7731 20.3143 20.1241 20.2116C20.8691 19.8149 21.3372 19.8349 21.5655 21.0935C21.5655 21.436 21.5484 21.7785 21.517 22.121Z" fill="#ACACAC"/>
<path d="M32.9937 19.2836C31.6609 16.0071 28.3044 14.1975 24.8737 15.499C22.2708 16.4866 19.4851 20.1712 20.4127 23.1139C21.2775 25.8567 24.9422 23.4478 26.9915 21.8095C26.7318 22.1863 26.4264 22.5316 26.0639 22.837C25.7157 23.131 24.8509 23.4278 24.6197 23.8759C24.3115 24.4667 24.7282 24.8691 25.2819 25.0061C27.3768 25.5199 29.7743 23.9016 31.0558 22.2833C31.5952 24.892 31.8093 27.5149 31.698 30.1778C31.6865 30.4775 32.1346 30.606 32.2716 30.3348C33.9927 26.9555 34.4436 22.8484 32.9909 19.2808L32.9937 19.2836Z" fill="#ACACAC"/>
<path d="M31.5721 21.7296C31.5378 21.5697 31.4151 21.5069 31.2924 21.5126C31.1582 21.4099 30.9442 21.3985 30.8214 21.5783C30.2335 22.4488 29.4857 23.1623 28.5581 23.6647C28.1071 23.9101 25.7068 24.9319 25.5356 24.1984C25.4614 23.8816 26.8856 22.9397 27.171 22.6001C27.6676 22.0121 28.0073 21.3585 28.2698 20.6393C28.3954 20.2968 27.9074 20.137 27.7218 20.3995C27.7076 20.4081 27.6933 20.4138 27.679 20.4252C26.5488 21.4527 25.3158 22.3575 23.9458 23.0396C23.1952 23.4135 21.6026 24.3525 21.0118 22.954C20.7292 22.289 21.0061 21.2529 21.183 20.6107C21.9651 17.7909 24.431 15.5646 27.4593 15.7045C33.6327 15.9899 33.9553 23.8587 32.3427 28.588C32.3256 26.2791 32.0715 23.9957 31.5749 21.7267L31.5721 21.7296Z" fill="#ACACAC"/>
<path d="M17.1415 63.26C16.4394 62.9261 15.5974 63.2828 14.921 63.4826C13.6081 63.8737 12.1382 64.1562 10.8881 64.7156C9.87776 65.1666 9.49245 66.2083 10.4629 66.9904C11.2021 67.5869 12.4979 67.5755 13.3969 67.604C14.667 67.6468 15.9085 67.4841 17.1444 67.1987C17.4269 67.1331 17.4127 66.7991 17.2357 66.6593C17.8865 65.6603 18.5914 63.945 17.1444 63.26H17.1415Z" fill="#ACACAC"/>
<path d="M13.3943 66.985C12.892 66.9679 11.9216 67.025 11.4763 66.7681C9.42708 65.5836 11.2708 65.244 11.893 65.0442C12.9519 64.7046 14.0194 64.3935 15.084 64.0766C15.8746 63.8398 15.8945 63.7399 16.6966 64.2622C17.53 64.4905 17.6641 64.9757 17.1018 65.7235C16.9563 65.9775 16.7964 66.2258 16.6252 66.4627C16.571 66.5426 16.5624 66.6225 16.5824 66.691C15.5349 66.9079 14.4732 67.025 13.3972 66.9879L13.3943 66.985Z" fill="#ACACAC"/>
<path d="M33.0521 55.6371C32.6782 54.9521 31.9533 55.4973 31.5023 55.7741C31.1027 56.0196 30.6917 56.2479 30.275 56.4591C29.4473 56.8787 28.5854 57.2297 27.7006 57.5094C25.9453 58.0631 24.1044 58.3371 22.2635 58.3115C21.1447 58.2972 20.0287 58.1716 18.9356 57.9404C18.3876 57.8263 17.8481 57.6835 17.3144 57.5152C16.9348 57.3953 16.2527 56.8987 16.0158 57.4952C15.796 58.0517 16.1385 58.8395 16.2527 59.3846C16.4097 60.1295 16.5866 60.8716 16.7807 61.608C16.9691 62.3187 17.1774 63.0236 17.4058 63.7229C17.5199 64.0711 17.6369 64.4193 17.7597 64.7675C17.8396 64.9901 17.9566 65.6609 18.1393 65.8036C17.5827 65.3754 17.1403 64.7675 16.3183 65.0472C14.1092 65.795 15.3222 68.5692 15.8046 69.9792C16.5552 72.1654 17.5085 74.2975 18.6958 76.2811C19.5635 77.7338 20.7594 79.746 22.3834 80.665C20.8821 84.8378 18.7586 88.6195 16.1442 92.19C15.3993 93.2061 14.5516 94.5932 15.3165 95.8462C15.8331 96.691 16.9063 96.7224 17.734 96.3542C18.7301 95.9118 19.3894 94.9186 20.1286 94.1622C21.824 92.4355 23.3795 90.5689 24.7808 88.5967C26.793 85.7568 28.4855 82.6915 29.8241 79.4777C31.1598 76.2668 32.1445 72.9075 32.7439 69.4797C33.3461 66.0433 33.563 62.5413 33.3718 59.0592C33.3347 58.3942 33.2833 57.7321 33.2177 57.0699C33.1748 56.6304 33.2776 56.1366 33.0921 55.7199C33.0807 55.6914 33.0664 55.6657 33.0521 55.6428V55.6371Z" fill="#ACACAC"/>
<path d="M17.5799 95.749C17.5114 95.7262 17.4315 95.7348 17.3488 95.7947C15.6848 95.515 15.2167 94.7729 15.9474 93.5713C16.1129 93.2659 16.3013 92.9777 16.5096 92.7008C16.9064 92.1329 17.3402 91.5906 17.7369 91.0226C18.4818 89.9552 19.1754 88.8535 19.8176 87.7232C21.0534 85.5484 22.0781 83.2708 22.9286 80.9218C23.5165 81.1473 24.1587 81.2272 24.8551 81.0874C27.4695 80.5679 28.0717 77.5597 28.2972 75.342C28.6768 71.6288 28.5398 67.9013 27.9861 64.2137C27.929 63.8313 27.3439 63.994 27.4039 64.3736C27.8206 67.162 27.9947 69.9734 27.8748 72.7904C27.7692 75.3448 27.7292 80.879 23.8819 80.4851C21.199 80.2111 19.4465 76.5265 18.3334 74.4001C17.1718 72.1853 16.2984 69.8563 15.6591 67.4446C15.6762 67.4104 15.6905 67.3733 15.6934 67.3304C15.7619 66.5884 16.13 65.05 17.1889 65.7664C17.6342 66.0661 17.9339 66.4685 18.4447 66.6711C18.4562 66.6768 18.4676 66.6711 18.4761 66.6768C19.0784 68.1553 19.7634 69.6052 20.534 71.018C20.7195 71.3605 21.2446 71.0551 21.0563 70.7126C18.8672 66.6968 17.3687 62.4014 16.5753 57.9032C21.8783 59.7784 27.7977 59.0278 32.4642 55.8711C34.348 70.6241 28.6683 85.8509 17.5714 95.7548L17.5799 95.749Z" fill="black"/>
<path d="M28.4692 72.9672C28.435 73.7578 28.3808 74.5484 28.3009 75.339C28.0725 77.5567 27.4732 80.5649 24.8588 81.0844C24.1624 81.2242 23.5202 81.1443 22.9322 80.9188C22.5983 81.8407 22.2387 82.7483 21.8477 83.6445C23.3746 84.2724 25.6265 82.7226 26.7311 81.8892C27.4817 81.3241 28.2095 80.6991 28.9145 80.0398C30.0818 77.374 30.9952 74.6026 31.6488 71.7656C30.7097 72.3593 29.6138 72.7474 28.4692 72.9672Z" fill="#D3DDE1"/>
<path d="M23.832 80.4736C23.8491 80.4736 23.8662 80.4793 23.8833 80.4821C27.5937 80.8617 27.7621 75.7243 27.8649 73.0671C26.1923 73.3011 24.457 73.1927 22.9729 72.8445C20.7267 72.3136 19.0627 70.9151 17.5614 69.2311C17.5357 69.2026 17.5101 69.174 17.4844 69.1455C18.6917 73.5865 22.0224 77.1114 26.512 78.5185C26.0696 79.7743 25.0193 80.4964 23.8291 80.4736H23.832Z" fill="#D3DDE1"/>
<path d="M37.5945 70.0737C36.039 65.1645 34.4835 60.2554 32.928 55.3463C32.8652 55.1465 32.6511 55.0638 32.4685 55.158C28.5583 57.1558 24.1258 58.0578 19.7447 57.7267C19.1282 57.681 18.5117 57.6097 17.8981 57.5155C17.313 57.427 16.6309 57.1673 16.0429 57.2529C15.8203 57.2871 15.5691 57.3785 15.6148 57.661C16.5281 63.5263 15.5349 71.6349 22.0908 74.5917C27.6221 77.0863 33.4046 74.118 37.5174 70.3762C37.5973 70.3048 37.6287 70.1735 37.5973 70.0708L37.5945 70.0737Z" fill="#ACACAC"/>
<path d="M36.1037 70.7905C35.2674 71.4954 34.3826 72.149 33.4493 72.7199C31.7625 73.7531 29.8902 74.5265 27.918 74.7806C23.9108 75.2972 20.0035 73.6132 18.2282 69.8714C16.4587 66.1439 16.8268 61.8456 16.2617 57.8441C21.7502 59.0372 27.4014 58.3407 32.4332 55.8662L36.2407 67.8821C36.6117 69.0495 37.1568 69.8971 36.1008 70.7876L36.1037 70.7905Z" fill="black"/>
<path d="M63.8149 33.4473C63.8698 32.5314 64.8333 32.4605 65.4507 32.8944C66.0039 33.2844 66.375 34.0443 66.7519 34.5782C67.4084 35.5119 68.0481 36.4588 68.6704 37.4163C71.1573 41.2497 73.3476 45.2654 75.2572 49.4152C75.3696 49.659 75.1294 49.8784 74.9394 49.8423C74.9364 49.8635 74.9334 49.8848 74.9257 49.9102C74.6512 50.7338 73.872 50.6266 73.3689 50.0452C72.7584 49.3353 72.3514 48.3459 71.8786 47.5434C71.2627 46.4909 70.644 45.4391 70.0281 44.3866C68.7935 42.2823 67.5624 40.18 66.3278 38.0757C65.771 37.1238 65.2116 36.1727 64.6548 35.2208C64.3898 34.7675 63.781 34.0426 63.8149 33.4473Z" fill="#ACACAC"/>
<path d="M65.2744 35.1729C65.6902 35.8829 66.106 36.5929 66.5252 37.3049C67.3327 38.6789 68.1382 40.0563 68.9457 41.4303C69.7532 42.8044 70.5588 44.1818 71.3663 45.5558L72.5043 47.4967C72.7418 47.902 72.9786 48.3046 73.2161 48.7099C73.2662 48.7985 74.1847 50.3466 74.3808 49.7599C74.4335 49.5999 74.5823 49.548 74.7108 49.5716C73.4781 46.9039 72.1367 44.2861 70.6639 41.7417C69.9166 40.4505 69.1355 39.1744 68.3284 37.9198C67.8992 37.2572 67.4646 36.596 67.018 35.9439C66.6618 35.422 66.1658 34.3399 65.6559 34.0024C65.546 33.7142 65.3436 33.6756 65.04 33.886C64.5636 33.834 64.4576 33.9472 64.7177 34.221C64.7237 34.4585 65.1489 34.956 65.2729 35.1674L65.2744 35.1729Z" fill="black"/>
<path d="M39.5909 23.9431C39.6005 23.9142 39.6151 23.8928 39.6289 23.8686C39.7701 23.2939 39.9121 22.7218 40.0533 22.1471C39.6371 21.0376 39.6997 19.8601 40.1962 18.7927C39.5747 18.0099 38.4791 16.3551 39.3585 15.575C40.1248 14.8925 41.0253 15.836 41.6694 16.6593C41.6537 16.4507 41.638 16.242 41.6285 16.0346C41.608 15.6144 41.6074 15.1713 41.8729 14.8196C42.2067 14.3765 42.8142 14.3435 43.132 14.7126C43.2527 14.4816 43.451 14.3114 43.7511 14.3032C44.6644 14.2721 44.9632 15.5066 45.0575 16.598C45.3551 15.7302 45.8626 14.8756 46.6402 15.2137C47.6485 15.6527 47.0947 17.4763 46.7075 18.3888C47.0716 18.445 47.4133 18.6442 47.5632 18.9945C47.8252 19.609 47.3489 20.2131 46.9963 20.6729C46.4883 21.3322 45.8983 21.9029 45.2457 22.4146C44.9748 22.6278 45.1068 24.3856 45.1063 24.7387C45.104 25.5908 45.1653 26.4521 45.3777 27.2812C45.7238 28.637 46.5535 29.7163 47.8435 30.2833C49.4442 30.988 51.1582 30.6385 52.8388 30.4992C53.7458 30.4232 54.6508 30.3507 55.5577 30.2747C55.9643 30.2406 57.835 29.8254 58.0392 30.2368C58.1031 30.3653 58.0863 30.5186 58.0667 30.661C57.8745 32.069 57.5545 33.4561 57.2126 34.8375C57.0184 35.6249 56.8404 38.1722 55.9216 38.301C51.2675 38.9494 46.1116 39.7423 42.0374 36.749C37.8376 33.6673 38.2961 28.4253 39.5896 23.9492L39.5909 23.9431Z" fill="#ACACAC"/>
<path d="M57.5234 30.67C55.5272 30.8362 53.5271 31.0094 51.5315 31.1667C50.5945 31.2392 49.6051 31.3112 48.6623 31.1578C48.7849 33.6122 48.3093 35.9833 47.2568 38.21C50.1 38.6285 53.1105 38.1705 55.9263 37.7128C56.4575 35.3645 56.9922 33.0182 57.5234 30.67Z" fill="#DEDEDE"/>
<path d="M42.9846 36.7032C44.1566 37.4246 45.404 37.8661 46.6911 38.1102C46.6951 38.1033 46.6936 38.0979 46.6976 38.091C47.7821 35.8644 48.2387 33.4984 48.0989 31.034C47.7812 30.9449 47.4704 30.8277 47.171 30.6666C44.2219 29.0607 44.3912 25.2442 44.6885 22.3963C44.6965 22.3184 44.7335 22.2617 44.7769 22.2179C44.7773 22.1332 44.8089 22.0459 44.8935 21.9822C45.6172 21.4221 46.2892 20.7564 46.7986 19.9946C46.9123 19.8239 47.1023 19.5801 47.0797 19.3674C47.0391 19.0022 46.5947 18.8745 46.3 18.957C45.8259 19.0852 45.5333 19.6163 45.2998 20.0002C45.1969 20.168 45.0115 20.1598 44.8885 20.0705C44.5245 20.0901 44.1613 20.1125 43.8001 20.1314C43.4396 20.153 43.4414 19.5897 43.8019 19.5681C44.1829 19.5468 44.5665 19.5247 44.9475 19.5034C45.2315 19.0592 45.5782 18.6097 46.0787 18.4394C46.0839 18.4263 46.081 18.4155 46.0869 18.4051C46.3186 17.9284 47.0299 16.1497 46.385 15.8399C45.7704 15.5453 45.3448 17.6171 45.282 18.0628C45.2534 18.2688 45.062 18.303 44.9142 18.2293C44.7491 18.2855 44.5289 18.2022 44.5339 17.9733C44.5462 17.4597 44.5281 16.9513 44.4431 16.4435C44.4012 16.1807 44.3435 15.9134 44.271 15.656C44.1757 15.3143 44.2333 15.0217 43.8063 15.1954C43.4469 15.3392 43.5347 15.3738 43.5317 15.7392C43.5311 15.9522 43.5306 16.1652 43.53 16.3783C43.529 16.8481 43.5273 17.3151 43.5291 17.7842C43.5281 18.1461 42.9662 18.1434 42.9672 17.7815C42.9689 17.0024 42.8759 16.1526 42.9659 15.3672C42.8744 15.3511 42.7915 15.2918 42.7606 15.1777C42.3835 15.1163 42.1989 15.2187 42.203 15.4917C42.1759 15.6069 42.1694 15.7224 42.1805 15.839C42.1805 16.0431 42.203 16.2558 42.2173 16.459C42.2389 16.7972 42.266 17.134 42.2965 17.4728C42.399 17.5939 42.3766 17.737 42.305 17.838C42.2303 18.0885 41.7842 18.0516 41.7554 17.7299C41.7524 17.719 41.7549 17.7067 41.7513 17.6931L41.0903 16.9152C40.9362 16.7323 40.3736 15.8987 40.0961 15.9475C39.9393 16.0773 39.7817 16.2045 39.625 16.3343C39.63 16.4496 39.6485 16.5613 39.684 16.6712C39.7401 16.8894 39.8316 17.1096 39.9248 17.3148C40.1369 17.7766 40.4182 18.1934 40.7466 18.58C40.8658 18.7198 40.8195 18.8927 40.7159 18.9936C40.2636 19.9237 40.2235 20.926 40.5571 21.8916C40.6161 21.9485 40.6463 22.0278 40.6292 22.1258C40.647 22.2026 40.6299 22.2685 40.5853 22.3185L39.9781 24.7835C39.9642 24.8397 39.937 24.8792 39.9042 24.9084C38.7936 29.233 38.7009 34.0641 42.9832 36.6978L42.9846 36.7032Z" fill="black"/>
<path d="M56.2968 30.3991C58.0858 29.6706 60.0332 29.8295 61.9018 30.106C63.0984 30.2842 64.5704 30.0934 65.6824 30.7435C67.0706 31.5552 67.0193 33.3772 67.3035 34.773C68.2108 39.2055 68.2701 43.803 67.454 48.2492C66.5541 53.138 64.7757 59.2733 59.3723 60.7104C56.7764 61.4004 54.0288 60.8949 51.6259 59.7713C49.7591 58.8994 47.7797 57.568 48.0566 55.236C48.2172 53.8832 48.9331 52.6165 49.411 51.3616C50.0451 49.7059 50.5913 48.0155 51.0464 46.3003C51.9131 43.0418 52.2911 39.761 52.6823 36.4211C52.9771 33.8976 53.7688 31.4265 56.2968 30.3991Z" fill="#ACACAC"/>
<path d="M53.2657 36.1987C52.6024 41.3823 51.8952 46.3386 50.0432 51.266C49.6524 52.3048 49.1555 53.3169 48.8256 54.3772C48.2711 56.166 48.9457 57.5322 50.4762 58.5154C52.833 60.0277 55.8156 60.8109 58.5876 60.3095C64.2178 59.2923 66.0119 52.9894 66.9112 48.0979C67.4377 45.2376 67.5598 42.3117 67.3291 39.4141C67.2099 37.9298 67.0031 36.4547 66.7182 34.9919C66.5653 34.2109 66.5759 33.4002 66.4005 32.6223C66.3051 32.2048 66.1287 31.7888 65.8105 31.5044C65.3281 31.0749 64.6793 31.0841 64.0746 31.02C63.4427 30.9517 62.8113 30.8103 62.1849 30.7084C60.9272 30.5088 59.6513 30.3492 58.3776 30.4776C55.1139 30.8057 53.6559 33.1566 53.2665 36.2014L53.2657 36.1987Z" fill="#DEDEDE"/>
<path d="M51.7559 45.4732C52.1693 43.6467 52.4858 41.8056 52.7609 39.9406C57.5646 41.1794 62.4784 41.8897 67.4354 42.0605C67.4446 44.0848 67.2761 46.1076 66.9101 48.0991C66.8997 48.1574 66.8866 48.2163 66.8769 48.2773C62.8487 47.9283 58.8547 47.2756 54.9317 46.2829C54.0015 46.0473 52.8155 45.8546 51.7532 45.4739L51.7559 45.4732Z" fill="black"/>
<path d="M46.9897 75.2498C47.5822 74.3548 48.431 73.7083 49.5819 73.1581C50.4751 72.7301 51.5671 72.5749 52.0727 73.6281C52.6076 74.7462 52.1 76.429 51.8341 77.5537C51.4966 78.9834 50.9983 80.3779 50.3645 81.7012C49.9649 82.5353 49.3524 84.2173 48.1944 84.2358C47.4476 84.2481 47.0167 83.6005 46.7303 82.9926C45.8966 81.2203 45.7239 79.1293 46.17 77.2299C46.3521 76.4516 46.6213 75.8014 46.989 75.2471L46.9897 75.2498Z" fill="#ACACAC"/>
<path d="M35.8182 66.4083C36.4745 64.3295 37.6497 62.4488 38.9617 60.7089C40.4808 58.6915 42.2017 56.8295 44.0564 55.1179C44.9847 54.2604 45.9438 53.4413 46.9321 52.6551C47.4397 52.2525 47.9522 51.8574 48.473 51.4716C48.8556 51.1874 49.3643 50.6708 49.8551 50.6256C50.1135 50.6025 50.3617 50.7249 50.5935 50.8402C53.3479 52.21 56.2816 53.2105 59.2954 53.819C60.8174 54.1251 62.3592 54.3324 63.9077 54.4359C64.4464 54.4711 65.5666 54.2587 65.7058 54.8598C65.8525 55.4996 65.6078 56.4552 65.593 57.1212C65.4677 63.1654 66.7305 69.2253 69.1745 74.75C71.2865 79.5305 74.2912 83.9239 78.0423 87.5614C78.1881 87.7028 78.343 87.8564 78.3796 88.0564C78.4297 88.317 78.2636 88.5631 78.1092 88.7769C77.2493 89.963 76.3677 91.1549 75.2303 92.0776C74.0962 93.0024 72.6617 93.6438 71.2018 93.5456C68.8267 93.3856 67.017 91.4017 65.6115 89.4719C60.5533 82.5366 57.2018 74.472 54.937 66.1896C54.7725 65.5808 54.4865 64.8562 53.8624 64.7741C53.6303 64.7435 53.3995 64.8146 53.179 64.8917C51.3757 65.5133 49.6886 66.4679 48.2261 67.6943C47.4062 68.3826 46.5956 69.3424 46.7853 70.3993C46.9475 71.3003 47.7383 71.7952 48.5334 72.0907C49.1988 72.3366 50.8546 72.2127 50.8276 73.1562C50.7927 74.3933 49.8505 75.9953 49.192 77.0015C48.7821 77.6256 48.3156 78.2124 47.7908 78.745C47.5839 78.9584 46.3644 80.2767 46.0757 80.1768C44.0757 79.4896 42.0565 78.796 40.2393 77.7095C38.422 76.6229 36.7978 75.0993 35.9552 73.1545C35.0648 71.0971 35.1193 68.7173 35.7669 66.5738C35.7843 66.5195 35.8009 66.4626 35.8182 66.4083Z" fill="#ACACAC"/>
<path d="M37.2904 74.3301C39.3536 77.1873 42.7475 78.5243 46.0095 79.4594C46.0629 79.4741 46.103 79.5041 46.1322 79.537C48.2171 77.8916 49.637 75.6473 50.2547 73.0598C48.2822 72.7647 45.4317 71.7709 46.3111 69.2264C46.7221 68.0363 47.9137 67.1631 48.8935 66.4637C50.2561 65.4918 51.7498 64.7789 53.3318 64.2638C52.6911 63.9267 51.9746 63.75 51.2182 63.759C50.856 63.7636 50.8579 63.2003 51.2201 63.1957C55.9083 63.1359 56.1058 68.6321 57.3027 72.0064C58.9423 76.62 61.02 81.0802 63.5138 85.2938C65.0051 87.8099 66.6368 90.8888 69.2956 92.3457C73.02 94.3894 75.9334 90.9686 77.8075 88.1028C68.9105 79.6474 64.167 67.2931 65.1344 55.0488C59.7855 54.8585 54.5784 53.5363 49.7809 51.1585C44.5958 54.6189 39.8515 59.3978 37.038 65.0167C35.5009 68.0859 35.1881 71.425 37.2877 74.3308L37.2904 74.3301Z" fill="black"/>
<path d="M48.5062 65.114C49.2518 64.5917 50.0834 64.0111 50.969 63.5764C51.0024 63.6782 51.0857 63.7606 51.2246 63.7581C51.9783 63.7498 52.6948 63.9265 53.3381 64.2629C51.7561 64.778 50.2632 65.4936 48.8998 66.4628C47.92 67.1622 46.7312 68.0347 46.3174 69.2255C45.438 71.7699 48.2885 72.7638 50.2611 73.0589C50.0881 73.7851 49.8492 74.4825 49.5517 75.1462C46.7894 73.9943 42.9514 72.2408 44.5058 69.0094C45.3073 67.3492 47.0403 66.1343 48.5082 65.1105L48.5062 65.114Z" fill="#D3DDE1"/>
<path d="M53.1876 63.5795C53.166 62.413 53.2195 61.2554 53.3453 60.1074C53.3126 60.1045 53.2818 60.0983 53.2488 60.0839C51.867 59.425 52.233 57.7455 52.4611 56.5027C52.698 55.2168 53.1157 53.987 53.6784 52.82C53.8553 52.883 54.033 52.9487 54.2092 53.009C53.9047 53.625 53.6407 54.2621 53.4305 54.9255C53.1016 55.968 52.15 58.7507 53.4144 59.5346C53.6971 57.3964 54.2483 55.3052 55.0427 53.2853C55.2182 53.3429 55.3957 53.397 55.5731 53.4511C54.2802 56.7139 53.6668 60.178 53.7535 63.7152C53.7561 63.7787 53.7366 63.8248 53.7102 63.8669C53.5473 63.7593 53.3732 63.6635 53.1931 63.578L53.1876 63.5795Z" fill="#ACACAC"/>
<path d="M76.2769 87.6481C76.3975 87.4056 76.5035 87.1524 76.6026 86.8952C76.7472 87.0428 76.8897 87.1938 77.037 87.3406C75.8518 90.2273 73.355 92.2203 70.4149 92.7991C70.078 92.7035 69.7328 92.5665 69.3804 92.3817C72.157 92.1445 74.6152 90.579 76.0078 88.1583C75.9837 88.1444 75.9603 88.1332 75.9394 88.1097C67.6623 79.2156 63.3796 67.0605 64.0844 54.995C64.2678 55.0067 64.4532 55.0149 64.6386 55.0231C63.9376 66.898 68.1577 78.8863 76.2797 87.6474L76.2769 87.6481Z" fill="#ACACAC"/>
<path d="M45.5592 79.3245C45.3475 79.2622 45.1351 79.1971 44.9247 79.1286C46.8859 77.467 48.274 75.2662 48.9426 72.77C49.1228 72.8234 49.3069 72.8699 49.4868 72.9116C48.8256 75.4029 47.4643 77.6168 45.5592 79.3245Z" fill="#ACACAC"/>
<path d="M61.7922 52.1853C61.8724 51.8691 61.9755 51.5729 62.102 51.2879C62.1065 51.24 62.1268 51.1967 62.1621 51.155C62.2537 50.967 62.3564 50.7876 62.4667 50.6148C62.1296 50.3035 61.8907 49.8928 61.8073 49.4662C58.2731 46.362 56.673 41.8835 55.8267 37.3646C55.5101 35.6771 55.1189 34.0039 55.0945 32.2783C55.0829 31.4824 55.0756 30.3907 55.6109 29.7357C56.0957 29.141 57.6455 28.9263 57.6419 29.9887C57.6314 33.1557 57.9737 36.2507 58.9107 39.2869C59.374 40.786 59.9605 42.246 60.6596 43.6493C61.022 44.3767 61.418 45.0891 61.8417 45.7853C61.9938 46.0359 62.8589 47.7092 63.1162 47.7039C63.7532 47.6833 64.3768 48.1185 64.4501 48.7985C64.6968 48.6677 64.9525 48.549 65.223 48.4526C66.069 48.151 66.9692 48.0068 67.8635 47.9488C69.7747 47.8231 71.6353 48.1775 73.5563 47.9266C74.2498 47.8354 74.9173 47.8095 75.4762 48.3176C76.0858 48.8731 76.4201 49.7014 76.6654 50.4691C77.1889 52.1153 77.2963 53.836 77.5429 55.5337C77.5517 55.5984 77.5624 55.6596 77.5712 55.7243C77.8105 57.1907 78.332 59.0124 77.6409 60.4356C76.9019 61.9506 75.1565 62.087 73.6756 62.3094C71.5972 62.6233 69.4723 63.0984 67.368 63.1977C65.9127 63.2673 64.4947 62.9157 63.5434 61.741C62.4672 60.4162 62.1696 58.5515 61.8773 56.9216C61.5982 55.3727 61.3998 53.7349 61.7894 52.186L61.7922 52.1853ZM62.7922 50.1624C63.1099 49.7674 63.481 49.4192 63.9057 49.1294C63.8991 49.1049 63.8932 49.0832 63.8967 49.0531C63.9677 48.3048 63.084 48.0042 62.5991 48.5231C62.4031 48.7336 62.3289 48.9753 62.3364 49.2182C62.3584 49.2676 62.3608 49.3195 62.3475 49.3668C62.3982 49.6622 62.5652 49.9466 62.7922 50.1624Z" fill="#ACACAC"/>
<path d="M76.6051 53.1455C76.479 52.1735 76.3788 51.2003 76.0729 50.2623C75.8859 49.6888 75.6241 49.0538 75.1352 48.6756C74.5661 48.2374 73.9037 48.4544 73.258 48.5502C72.1987 48.7082 71.2206 48.5963 70.161 48.5269C69.2405 48.4666 68.3142 48.4604 67.4003 48.5645C65.7131 48.7551 63.9625 49.3566 62.988 50.839C62.9833 50.8432 62.982 50.8494 62.9781 50.8563C64.8145 50.6369 65.2551 53.8482 66.5314 54.6872C67.7761 55.5056 69.7164 55.4449 71.1419 55.4154C72.585 55.3869 76.6856 55.4014 76.5911 53.2339C76.5905 53.1991 76.5981 53.1737 76.6051 53.1455Z" fill="black"/>
<path d="M77.3265 59.6256C77.6992 58.0463 77.1282 56.0951 76.8086 54.4609C76.0375 55.5559 74.1007 55.8665 72.4755 55.9529C73.1085 57.9398 73.0694 60.0005 72.3549 61.9609C74.2285 61.7607 76.8586 61.5951 77.3265 59.6256Z" fill="black"/>
<path d="M65.8435 62.533C67.6644 62.9769 69.8245 62.3202 71.6347 62.0467C71.6679 62.0406 71.7019 62.0373 71.7386 62.0332C71.7423 62.0147 71.746 61.9962 71.7552 61.9762C72.5138 60.0069 72.561 57.9761 71.895 55.9747C71.4097 55.9863 70.9731 55.9847 70.6353 55.9827C69.3454 55.9756 67.7812 55.9435 66.5901 55.3555C66.0564 55.0915 65.6359 54.7298 65.3021 54.2368C64.7822 53.4645 64.2174 50.8263 62.6243 51.5369C62.4152 52.0221 62.279 52.5401 62.2117 53.0657C61.9905 54.7644 62.3341 56.5088 62.7031 58.1646C63.115 60.0218 63.7804 62.032 65.8497 62.5342L65.8435 62.533Z" fill="black"/>
<path d="M57.0856 29.9057C54.7713 29.2714 55.8982 34.3765 56.0538 35.3609C56.3164 37.0426 56.63 38.7192 57.088 40.3598C57.9743 43.5206 59.443 46.4802 61.8375 48.7347C61.9212 48.4525 62.091 48.1879 62.3728 47.9718C62.4285 47.9305 62.4856 47.8946 62.5436 47.8614C58.8074 42.6334 56.8929 36.3356 57.0856 29.9057Z" fill="black"/>
<path d="M66.8531 50.1785C67.2246 49.8856 67.6423 49.6881 67.9872 49.3616C68.4259 48.9514 68.7315 48.4576 68.9445 47.9013C68.9347 47.8865 68.9209 47.8785 68.9111 47.8637C68.5661 47.2541 67.6617 47.2857 67.3904 46.5833C67.2082 46.1135 67.4253 45.6261 67.9204 45.4893C69.0136 45.188 70.2708 46.1926 70.892 47.0279C72.4263 47.1644 73.3933 45.6111 73.0141 44.1972C72.6828 42.9715 71.6165 42.0815 70.5535 41.494C69.067 40.6738 67.3812 40.2779 65.9827 39.2882C64.6063 38.3159 63.8879 36.8303 63.8318 35.1599C63.8035 34.3451 63.9093 33.532 64.0748 32.7349C64.2132 32.053 64.3622 31.3566 64.5445 30.6862C64.6715 30.2202 65.0434 30.4988 65.3557 30.5894C65.5858 30.6555 65.8139 30.7251 66.0448 30.7939C66.9232 31.0639 67.7938 31.3593 68.6549 31.6836C70.3743 32.3329 72.0516 33.0956 73.6692 33.9707C73.8323 34.0579 73.9935 34.1484 74.1539 34.2363C75.0545 34.7394 75.9778 35.2831 76.864 35.8835C76.9032 35.8991 76.9391 35.9244 76.9676 35.9546C78.6707 37.1245 80.2284 38.5203 81.2207 40.3197C82.4678 42.5781 82.7021 45.4135 81.172 47.5943C79.3371 50.2075 76.0916 51.0118 73.1444 51.6392C73.1187 52.5123 73.0252 53.4358 72.4167 54.1106C71.8835 54.698 71.0835 54.8792 70.3717 54.5262C70.2644 54.4736 70.2286 54.3841 70.231 54.296C69.5668 54.388 68.8492 54.1212 68.4406 53.3947C68 53.2921 67.5895 53.0211 67.321 52.5658C66.8498 52.5328 66.3898 52.2722 66.2065 51.8201C65.9425 51.177 66.3616 50.565 66.8531 50.1785Z" fill="#ACACAC"/>
<path d="M72.588 34.033C70.1877 32.8008 67.67 31.8336 65.0779 31.0965C64.2562 33.8761 63.6369 37.0385 66.4471 38.9269C68.1739 40.0874 70.3473 40.4157 71.9679 41.7537C72.1887 41.936 72.4011 42.1411 72.5975 42.3621C74.4196 40.6914 75.7204 38.6193 76.4255 36.2474C75.1941 35.4137 73.8772 34.6935 72.5872 34.0303L72.588 34.033Z" fill="#DEDEDE"/>
<path d="M67.3205 51.9708C67.3957 51.9155 67.49 51.8988 67.5698 51.9355C67.8505 51.8771 68.1233 51.7568 68.2599 51.6382C68.5619 51.3787 68.7695 51.028 68.9823 50.6964C69.1765 50.3931 69.6648 50.6723 69.4679 50.9763C69.0834 51.576 68.6404 52.2177 67.959 52.4719C68.5893 53.1473 69.7405 53.0286 70.0841 52.0083C70.1986 51.6683 70.7435 51.8126 70.627 52.1561C70.3819 52.8844 69.7945 53.3144 69.1606 53.4215C69.9046 54.1303 71.2233 53.6952 71.231 52.4974C71.232 52.1355 71.7939 52.1382 71.7929 52.5001C71.7897 53.2738 71.3703 53.8304 70.8188 54.1136C71.5529 54.3876 72.0361 53.8517 72.2788 53.2115C72.4096 52.8671 72.4766 52.5019 72.5321 52.137C72.5729 51.8577 72.4547 51.3559 72.7143 51.1545C72.945 50.9755 73.6116 50.9674 73.9044 50.8999C74.7594 50.7068 75.6084 50.4919 76.435 50.2043C78.0907 49.6285 79.6632 48.7339 80.6934 47.2744C82.6161 44.5559 81.4934 41.0799 79.4355 38.8015C78.6884 37.974 77.8282 37.2441 76.9081 36.5829C76.1594 38.9871 74.8175 41.1112 72.9488 42.8032C73.5232 43.6161 73.8463 44.5962 73.588 45.5875C73.4171 46.2461 73.0114 46.8428 72.4391 47.2103C72.0403 47.4669 71.5074 47.6896 71.0138 47.6277C70.357 47.5427 70.0867 46.8546 69.5882 46.5053C69.2298 46.2551 68.8196 46.0714 68.3821 46.0235C68.0525 45.9872 67.6893 46.1495 68.0231 46.5346C68.1674 46.7027 68.4169 46.7869 68.6088 46.8837C68.9425 47.0531 69.2111 47.24 69.3994 47.5712C69.4213 47.609 69.4315 47.647 69.4357 47.6838C69.5205 47.7396 69.5682 47.8405 69.5217 47.9697C69.2265 48.7815 68.759 49.494 68.0688 50.0276C67.6791 50.3283 66.9838 50.5745 66.7923 51.0492C66.495 51.7886 66.8667 51.9914 67.3218 51.9647L67.3205 51.9708Z" fill="black"/>
<path d="M58.1414 16.8295C58.3087 16.7492 58.556 16.8253 58.5581 17.0697C58.576 19.5991 57.7153 21.9547 56.091 23.884C55.9479 24.0539 55.6762 23.9523 55.6214 23.7601C55.1406 22.0995 54.6678 15.5957 58.1448 16.8314L58.1414 16.8295Z" fill="#ACACAC"/>
<path d="M57.9908 17.3747C55.4371 16.4785 55.6881 21.1291 56.0358 23.0502C57.2761 21.3998 57.9439 19.4491 57.9908 17.3747Z" fill="#ACACAC"/>
<path d="M68.1817 27.5793C67.8754 28.3503 66.9162 28.7816 66.1381 28.4845C64.2017 27.7422 65.4187 24.7362 67.304 25.5155C68.0703 25.8334 68.4872 26.8055 68.1817 27.5793Z" fill="#ACACAC"/>
<path d="M67.0877 26.0367C65.8217 25.5157 65.1128 27.5183 66.3501 27.9654C66.8433 28.1442 67.475 27.8568 67.6621 27.3658C67.8485 26.8722 67.5787 26.2394 67.0912 26.0387L67.0877 26.0367Z" fill="black"/>
<path d="M57.6192 25.6408C57.3129 26.4118 56.3537 26.8431 55.5756 26.546C53.6392 25.8037 54.8562 22.7977 56.7415 23.5771C57.5078 23.8949 57.9247 24.8671 57.6192 25.6408Z" fill="#ACACAC"/>
<path d="M56.5252 24.0963C55.2592 23.5753 54.5503 25.5779 55.7876 26.025C56.2808 26.2037 56.9125 25.9163 57.0996 25.4254C57.286 24.9317 57.0162 24.299 56.5287 24.0983L56.5252 24.0963Z" fill="black"/>
<path d="M63.38 29.3384C63.2419 31.3121 62.3799 34.3622 59.7979 33.9314C58.9972 33.7979 58.25 33.2387 58.0609 32.4208C57.8138 31.3561 58.5311 30.3632 58.6632 29.3243C56.6474 27.8044 55.6793 25.3306 55.773 22.8265C55.8615 20.4754 56.8816 18.3333 58.1725 16.4183C59.3225 14.7136 60.8522 12.8216 63.155 13.1877C65.0658 13.4908 66.8098 14.9412 67.7461 16.5982C70.2342 21.0059 68.484 27.708 63.3827 29.3376L63.38 29.3384Z" fill="#ACACAC"/>
<path d="M67.8072 18.0602C67.01 15.896 64.4682 13.1506 61.9143 13.6951C60.4712 14.0034 59.5626 15.4826 58.7883 16.6193C57.8769 17.9592 57.1355 19.4544 56.7144 20.9943C56.316 22.4463 56.1826 24.0076 56.5963 25.4735C56.802 26.2023 57.141 26.8864 57.5956 27.4926C58.0033 28.0327 58.687 28.3787 59.0647 28.8832C60.0171 30.148 57.2235 32.7316 59.7703 33.3439C60.9047 33.6147 61.7394 32.9487 62.2075 31.959C62.437 31.4741 62.5764 30.9465 62.6757 30.421C62.7368 30.0983 62.681 29.1714 62.9015 28.9543C62.9543 28.9022 63.0225 28.875 63.0915 28.8505C64.1676 28.443 65.1027 27.8257 65.8701 27.0613C68.1464 24.8013 68.9823 21.2566 67.8053 18.0636L67.8072 18.0602Z" fill="black"/>
<path d="M57.3794 19.1396C57.7693 18.2585 58.247 17.412 58.7857 16.619C59.5601 15.4823 60.4687 14.0032 61.9118 13.6948C64.4623 13.1483 67.0048 15.8964 67.8047 18.0599C68.7767 20.6988 68.373 23.5725 66.9221 25.7669C66.8907 25.7259 66.8706 25.673 66.868 25.6095C66.809 23.7561 66.748 21.9062 66.689 20.0529C66.0465 20.6231 65.2386 21.0981 64.3994 20.6717C63.9915 20.4641 63.7645 20.1084 63.7296 19.7212C62.5434 20.4851 60.9853 20.9704 59.6513 20.4561C58.8794 20.1602 58.4148 19.4634 58.6392 18.7554C58.251 18.8253 57.8058 19.0389 57.3856 19.1409L57.3794 19.1396Z" fill="#D3DDE1"/>
<path d="M59.8941 29.1397C59.6587 29.1508 59.4229 29.1387 59.1929 29.1163C59.4563 29.8004 58.9649 30.7469 58.7553 31.5851C59.3945 31.7768 60.0525 31.4036 60.5146 30.9404C60.9133 30.5439 61.6463 29.7276 60.923 29.2349C60.6234 29.0301 60.2295 29.1219 59.8941 29.1397Z" fill="#D3DDE1"/>
<path d="M64.0991 23.1604C63.4992 22.7801 63.2668 24.0502 63.3411 24.4005C63.3934 24.6372 63.6833 24.7309 63.8422 24.5334C64.0556 24.2686 64.5308 23.4665 64.1247 23.1797C64.1144 23.1737 64.1068 23.167 64.0964 23.1611L64.0991 23.1604Z" fill="#ACACAC"/>
<path d="M59.9793 22.2494C59.3262 21.9739 59.3026 23.2634 59.4372 23.6003C59.5268 23.824 59.8293 23.8676 59.953 23.6476C60.1202 23.3516 60.4551 22.4824 60.0095 22.2646C59.9992 22.2586 59.9896 22.2554 59.9793 22.2494Z" fill="#ACACAC"/>
<path d="M63.0074 25.6432C62.5936 26.1021 61.9441 26.2164 61.3855 25.9678C61.0551 25.8209 60.8413 26.3424 61.1718 26.4893C61.9715 26.8447 62.8722 26.6275 63.454 25.9833C63.6953 25.7139 63.2467 25.3773 63.0074 25.6432Z" fill="#ACACAC"/>
<path d="M61.0951 22.5909C61.2576 22.267 61.7466 22.5489 61.5807 22.8708C61.5073 23.0189 60.909 24.4842 61.3125 24.5035C61.6717 24.5201 61.6726 25.0827 61.3107 25.0668C60.1063 25.0103 60.7975 23.1787 61.0951 22.5909Z" fill="#ACACAC"/>
<path d="M67.6905 16.6946C67.7591 16.4427 68.0662 16.4385 68.204 16.6258C70.0236 19.0765 70.098 22.4392 68.2821 24.9072C68.1733 25.0533 66.9734 26.5412 66.8976 25.6693C66.6321 22.6323 66.9006 19.6348 67.694 16.6966L67.6905 16.6946Z" fill="#ACACAC"/>
<path d="M68.0853 17.4489C67.4733 19.9502 67.2538 22.4942 67.4203 25.068C69.3559 22.903 69.5904 19.9088 68.0853 17.4489Z" fill="#ACACAC"/>
<path d="M55.5776 15.2069C56.07 14.5868 56.6671 14.0959 57.3357 13.7081C56.763 13.6763 56.1848 13.6022 55.9413 13.0672C55.742 12.6312 55.9386 12.2397 56.2867 11.9678C56.9856 11.4231 58.217 11.3965 59.071 11.329C60.1779 11.2397 61.2658 11.3277 62.3427 11.547C62.2217 11.3143 62.1928 11.0568 62.3624 10.7805C62.8234 10.0231 64.0312 10.6298 64.6156 10.9093C67.1531 12.122 68.4734 14.8126 68.147 17.5633C68.1295 17.7139 68.0154 17.7972 67.8967 17.8206C67.3164 18.9223 66.2102 19.9824 64.9486 20.1338C64.5742 20.1796 64.2088 20.0538 64.1173 19.6615C64.0481 19.3624 64.2116 19.0207 64.4218 18.7014C63.7821 19.0347 63.1182 19.3104 62.4159 19.509C61.6919 19.7134 60.4425 20.1036 59.6964 19.7745C58.7292 19.3477 59.1528 18.6237 59.7116 18.0236C58.7799 18.3308 57.8137 18.5103 56.819 18.5196C56.0904 18.5241 55.1659 18.4707 54.7918 17.7319C54.3575 16.8782 55.0694 15.8546 55.5791 15.2124L55.5776 15.2069Z" fill="#ACACAC"/>
<path d="M56.4313 17.9451C56.8151 17.9668 57.2165 17.9458 57.5991 17.9094C58.2564 17.8455 58.9012 17.7033 59.5284 17.4959C59.814 17.4012 60.0767 17.2223 60.3767 17.1704C60.6407 17.1252 61.2604 17.2989 60.9071 17.6482C60.73 17.8214 59.9082 18.4168 59.8855 18.6446C59.7807 19.6878 61.4524 19.1601 61.8699 19.0589C62.9876 18.7947 64.0156 18.3273 64.9876 17.7176C65.1712 17.6009 65.3461 17.7315 65.3902 17.8946C65.4782 17.9728 65.5201 18.0957 65.4382 18.2228C65.281 18.4694 64.8893 18.8815 64.8345 19.1733C64.7062 19.8496 65.6143 19.3154 65.8856 19.1575C66.6383 18.715 67.181 18.055 67.5338 17.2627C67.5533 17.2166 67.5826 17.1853 67.6142 17.1622C67.7114 15.704 67.362 14.2821 66.4493 13.0998C66.0062 12.5255 65.4857 12.0625 64.8672 11.6785C64.5839 11.5014 64.2925 11.3701 63.9837 11.2495C63.8078 11.1687 63.6274 11.1037 63.4406 11.058C63.0599 10.8867 63.0182 11.1197 63.3127 11.7574C63.5877 11.9573 63.3568 12.4046 63.0832 12.2744C63.06 12.2748 63.0403 12.2773 63.015 12.2695C61.7184 11.9259 60.4065 11.7731 59.0671 11.8843C58.8849 11.8985 57.1526 11.976 57.0286 12.2486C56.657 13.0577 57.776 13.1315 58.3043 13.2249C58.4873 13.1492 58.6105 13.2821 58.6327 13.4394C58.6893 13.6166 58.569 13.8387 58.3546 13.8091C57.1466 14.331 54.9386 15.8435 55.4114 17.3022C55.6006 17.8839 55.866 17.9084 56.4298 17.9397L56.4313 17.9451Z" fill="#ACACAC"/>
</g>
</svg>
