<svg width="86" height="70" viewBox="0 0 86 70" fill="none" xmlns="http://www.w3.org/2000/svg">
<path d="M2.01465 21.9199H83.9854C84.8219 21.9199 85.5 22.5981 85.5 23.4346V67.6797C85.4998 68.516 84.8217 69.1943 83.9854 69.1943H2.01465C1.17829 69.1943 0.500229 68.516 0.5 67.6797V23.4346L0.507812 23.2793C0.585549 22.5157 1.23056 21.9199 2.01465 21.9199Z" fill="#131313" stroke="#363636"/>
<path d="M72.124 55.4375C72.1074 55.6118 72.0548 55.7749 71.9697 55.9189C71.7526 56.2809 71.517 56.6618 71.3027 57.0508L70.9492 57.6865L70.1836 56.3057H70.1846C70.1112 56.1706 70.0221 56.0268 69.957 55.916C69.874 55.7741 69.8196 55.6118 69.8027 55.4404C69.9408 55.9524 70.4089 56.3301 70.9639 56.3301C71.5197 56.3299 71.987 55.9507 72.124 55.4375Z" fill="#424242" stroke="#363636"/>
<mask id="path-3-inside-1_509_22838" fill="white">
<path d="M62.6055 56.2368C62.6055 57.6173 63.7281 58.7372 65.1059 58.7372C66.4837 58.7372 67.6063 57.6146 67.6063 56.2368C67.6063 54.8589 66.4837 53.7363 65.1059 53.7363C63.7281 53.7363 62.6055 54.8589 62.6055 56.2368ZM64.0108 57.159C63.9284 56.8873 63.8845 56.5936 63.8763 56.2834H65.0071V57.159H64.0108ZM64.5981 58.4792C63.9641 58.3365 63.4234 57.933 63.0995 57.3593H63.8625C63.9668 57.6558 64.1123 57.9248 64.2962 58.1553C64.3895 58.2733 64.4911 58.3804 64.5981 58.4764V58.4792ZM65.0071 57.3593V58.5313C64.9302 58.4874 64.6915 58.331 64.4527 58.0236C64.299 57.8259 64.1727 57.6036 64.0794 57.3566H65.0071V57.3593ZM64.1315 55.0044C64.3978 54.4143 64.7903 54.0492 64.9165 53.9449C64.9467 53.9449 64.9769 53.9394 65.0071 53.9394V55.0071H64.1343L64.1315 55.0044ZM63.1654 55.0044C63.4865 54.5021 63.9915 54.1398 64.5652 53.9998C64.4527 54.1206 64.3456 54.2496 64.2496 54.3896C64.1151 54.5817 64.0025 54.7876 63.912 55.0044H63.1654ZM63.8763 56.0831C63.8872 55.7839 63.9476 55.4902 64.0492 55.2075H65.0043V56.0831H63.8735H63.8763ZM62.8113 56.0831C62.8305 55.7756 62.9129 55.482 63.0501 55.2075H63.8351C63.739 55.4929 63.6841 55.7866 63.6732 56.0831H62.8086H62.8113ZM63.6759 56.2834C63.6814 56.5908 63.7253 56.8873 63.8022 57.159H63.0035C62.8827 56.8818 62.8168 56.5881 62.8113 56.2834H63.6787H63.6759ZM66.5167 56.2834H67.406C67.4005 56.5881 67.3346 56.8818 67.2138 57.159H66.3904C66.4673 56.8845 66.5084 56.5908 66.5167 56.2834ZM65.2075 55.0044V53.9367C65.2294 53.9367 65.2486 53.9367 65.2706 53.9394C65.3584 54.0135 65.567 54.2029 65.7784 54.5076C65.8854 54.664 65.9815 54.8287 66.0583 55.0016H65.2075V55.0044ZM66.1407 55.2047C66.245 55.4875 66.3026 55.7839 66.3136 56.0803H65.2075V55.2047H66.1407ZM66.2779 55.0044C66.1873 54.7903 66.0748 54.5817 65.9403 54.3896C65.8415 54.2468 65.7317 54.1151 65.6164 53.9916C66.2038 54.1261 66.7198 54.4911 67.0464 55.0016H66.2751L66.2779 55.0044ZM66.3163 56.2834C66.3081 56.5936 66.2642 56.89 66.1818 57.159H65.2075V56.2834H66.3136H66.3163ZM66.5167 56.0831C66.5057 55.7866 66.4508 55.4902 66.3547 55.2075H67.1644C67.3017 55.482 67.384 55.7784 67.4032 56.0831H66.5167ZM67.1123 57.3593C66.7884 57.933 66.2257 58.3474 65.5835 58.4847C65.6933 58.3859 65.7976 58.2761 65.8909 58.1553C66.0748 57.922 66.2203 57.653 66.3246 57.3593H67.1095H67.1123ZM66.1132 57.3593C65.836 58.0812 65.3612 58.4243 65.2075 58.5176V57.3593H66.1132Z"/>
</mask>
<path d="M62.6055 56.2368C62.6055 57.6173 63.7281 58.7372 65.1059 58.7372C66.4837 58.7372 67.6063 57.6146 67.6063 56.2368C67.6063 54.8589 66.4837 53.7363 65.1059 53.7363C63.7281 53.7363 62.6055 54.8589 62.6055 56.2368ZM64.0108 57.159C63.9284 56.8873 63.8845 56.5936 63.8763 56.2834H65.0071V57.159H64.0108ZM64.5981 58.4792C63.9641 58.3365 63.4234 57.933 63.0995 57.3593H63.8625C63.9668 57.6558 64.1123 57.9248 64.2962 58.1553C64.3895 58.2733 64.4911 58.3804 64.5981 58.4764V58.4792ZM65.0071 57.3593V58.5313C64.9302 58.4874 64.6915 58.331 64.4527 58.0236C64.299 57.8259 64.1727 57.6036 64.0794 57.3566H65.0071V57.3593ZM64.1315 55.0044C64.3978 54.4143 64.7903 54.0492 64.9165 53.9449C64.9467 53.9449 64.9769 53.9394 65.0071 53.9394V55.0071H64.1343L64.1315 55.0044ZM63.1654 55.0044C63.4865 54.5021 63.9915 54.1398 64.5652 53.9998C64.4527 54.1206 64.3456 54.2496 64.2496 54.3896C64.1151 54.5817 64.0025 54.7876 63.912 55.0044H63.1654ZM63.8763 56.0831C63.8872 55.7839 63.9476 55.4902 64.0492 55.2075H65.0043V56.0831H63.8735H63.8763ZM62.8113 56.0831C62.8305 55.7756 62.9129 55.482 63.0501 55.2075H63.8351C63.739 55.4929 63.6841 55.7866 63.6732 56.0831H62.8086H62.8113ZM63.6759 56.2834C63.6814 56.5908 63.7253 56.8873 63.8022 57.159H63.0035C62.8827 56.8818 62.8168 56.5881 62.8113 56.2834H63.6787H63.6759ZM66.5167 56.2834H67.406C67.4005 56.5881 67.3346 56.8818 67.2138 57.159H66.3904C66.4673 56.8845 66.5084 56.5908 66.5167 56.2834ZM65.2075 55.0044V53.9367C65.2294 53.9367 65.2486 53.9367 65.2706 53.9394C65.3584 54.0135 65.567 54.2029 65.7784 54.5076C65.8854 54.664 65.9815 54.8287 66.0583 55.0016H65.2075V55.0044ZM66.1407 55.2047C66.245 55.4875 66.3026 55.7839 66.3136 56.0803H65.2075V55.2047H66.1407ZM66.2779 55.0044C66.1873 54.7903 66.0748 54.5817 65.9403 54.3896C65.8415 54.2468 65.7317 54.1151 65.6164 53.9916C66.2038 54.1261 66.7198 54.4911 67.0464 55.0016H66.2751L66.2779 55.0044ZM66.3163 56.2834C66.3081 56.5936 66.2642 56.89 66.1818 57.159H65.2075V56.2834H66.3136H66.3163ZM66.5167 56.0831C66.5057 55.7866 66.4508 55.4902 66.3547 55.2075H67.1644C67.3017 55.482 67.384 55.7784 67.4032 56.0831H66.5167ZM67.1123 57.3593C66.7884 57.933 66.2257 58.3474 65.5835 58.4847C65.6933 58.3859 65.7976 58.2761 65.8909 58.1553C66.0748 57.922 66.2203 57.653 66.3246 57.3593H67.1095H67.1123ZM66.1132 57.3593C65.836 58.0812 65.3612 58.4243 65.2075 58.5176V57.3593H66.1132Z" fill="#424242"/>
<path d="M64.0108 57.159L63.0537 57.449L63.2689 58.159H64.0108V57.159ZM63.8763 56.2834V55.2834H62.8494L62.8766 56.31L63.8763 56.2834ZM65.0071 56.2834H66.0071V55.2834H65.0071V56.2834ZM65.0071 57.159V58.159H66.0071V57.159H65.0071ZM64.5981 58.4792L64.3785 59.4548L65.5981 59.7293V58.4792H64.5981ZM63.0995 57.3593V56.3593H61.3865L62.2287 57.851L63.0995 57.3593ZM63.8625 57.3593L64.8059 57.0274L64.5708 56.3593H63.8625V57.3593ZM64.2962 58.1553L65.0806 57.5351L65.078 57.5318L64.2962 58.1553ZM64.5981 58.4764H65.5981V58.0302L65.266 57.7322L64.5981 58.4764ZM65.0071 58.5313L64.511 59.3996L66.0071 60.2545V58.5313H65.0071ZM64.4527 58.0236L65.2424 57.4101L65.242 57.4096L64.4527 58.0236ZM64.0794 57.3566V56.3566H62.6326L63.1439 57.71L64.0794 57.3566ZM65.0071 57.3566H66.0071V56.3566H65.0071V57.3566ZM64.1315 55.0044L63.22 54.5931L62.9359 55.2229L63.4244 55.7115L64.1315 55.0044ZM64.9165 53.9449V52.9449H64.5569L64.2796 53.174L64.9165 53.9449ZM65.0071 53.9394H66.0071V52.9394H65.0071V53.9394ZM65.0071 55.0071V56.0071H66.0071V55.0071H65.0071ZM64.1343 55.0071L63.4272 55.7142L63.7201 56.0071H64.1343V55.0071ZM63.1654 55.0044L62.3229 54.4657L61.3391 56.0044H63.1654V55.0044ZM64.5652 53.9998L65.2968 54.6815L67.5757 52.2358L64.3281 53.0283L64.5652 53.9998ZM64.2496 54.3896L65.0688 54.9631L65.0741 54.9554L64.2496 54.3896ZM63.912 55.0044V56.0044H64.578L64.8347 55.3898L63.912 55.0044ZM63.8763 56.0831V57.0831H64.8402L64.8756 56.1197L63.8763 56.0831ZM64.0492 55.2075V54.2075H63.3458L63.1081 54.8694L64.0492 55.2075ZM65.0043 55.2075H66.0043V54.2075H65.0043V55.2075ZM65.0043 56.0831V57.0831H66.0043V56.0831H65.0043ZM62.8113 56.0831V57.0831H63.7508L63.8094 56.1454L62.8113 56.0831ZM63.0501 55.2075V54.2075H62.4321L62.1557 54.7603L63.0501 55.2075ZM63.8351 55.2075L64.7829 55.5265L65.2268 54.2075H63.8351V55.2075ZM63.6732 56.0831V57.0831H64.6368L64.6725 56.1201L63.6732 56.0831ZM63.6759 56.2834V55.2834H62.6579L62.6761 56.3013L63.6759 56.2834ZM63.8022 57.159V58.159H65.1242L64.7644 56.8868L63.8022 57.159ZM63.0035 57.159L62.0867 57.5584L62.3483 58.159H63.0035V57.159ZM62.8113 56.2834V55.2834H61.7931L61.8115 56.3014L62.8113 56.2834ZM66.5167 56.2834V55.2834H65.5431L65.517 56.2566L66.5167 56.2834ZM67.406 56.2834L68.4058 56.3014L68.4241 55.2834H67.406V56.2834ZM67.2138 57.159V58.159H67.869L68.1306 57.5584L67.2138 57.159ZM66.3904 57.159L65.4275 56.8894L65.072 58.159H66.3904V57.159ZM65.2075 53.9367V52.9367H64.2075V53.9367H65.2075ZM65.2706 53.9394L65.9155 53.1751L65.6888 52.9839L65.3946 52.9472L65.2706 53.9394ZM65.7784 54.5076L66.6037 53.9429L66.6 53.9376L65.7784 54.5076ZM66.0583 55.0016V56.0016H67.5971L66.9721 54.5955L66.0583 55.0016ZM65.2075 55.0016V54.0016H64.2075V55.0016H65.2075ZM66.1407 55.2047L67.0788 54.8586L66.8376 54.2047H66.1407V55.2047ZM66.3136 56.0803V57.0803H67.3513L67.3129 56.0433L66.3136 56.0803ZM65.2075 56.0803H64.2075V57.0803H65.2075V56.0803ZM65.2075 55.2047V54.2047H64.2075V55.2047H65.2075ZM66.2779 55.0044L65.5708 55.7115L67.1989 54.6147L66.2779 55.0044ZM65.9403 54.3896L65.1181 54.9588L65.1211 54.963L65.9403 54.3896ZM65.6164 53.9916L65.8396 53.0168L62.659 52.2886L64.8854 54.6739L65.6164 53.9916ZM67.0464 55.0016V56.0016H68.8733L67.8888 54.4627L67.0464 55.0016ZM66.2751 55.0016V54.0016H63.8609L65.568 55.7087L66.2751 55.0016ZM66.3163 56.2834L67.316 56.31L67.3432 55.2834H66.3163V56.2834ZM66.1818 57.159V58.159H66.9215L67.138 57.4517L66.1818 57.159ZM65.2075 57.159H64.2075V58.159H65.2075V57.159ZM65.2075 56.2834V55.2834H64.2075V56.2834H65.2075ZM66.5167 56.0831L65.5174 56.1201L65.553 57.0831H66.5167V56.0831ZM66.3547 55.2075V54.2075H64.9588L65.4079 55.5292L66.3547 55.2075ZM67.1644 55.2075L68.0589 54.7603L67.7825 54.2075H67.1644V55.2075ZM67.4032 56.0831V57.0831H68.4683L68.4012 56.0201L67.4032 56.0831ZM67.1123 57.3593L67.9831 57.851L68.8253 56.3593H67.1123V57.3593ZM65.5835 58.4847L64.9145 57.7414L62.1333 60.2445L65.7924 59.4626L65.5835 58.4847ZM65.8909 58.1553L65.1055 57.5362L65.0996 57.5439L65.8909 58.1553ZM66.3246 57.3593V56.3593H65.6185L65.3822 57.0247L66.3246 57.3593ZM66.1132 57.3593L67.0467 57.7178L67.5684 56.3593H66.1132V57.3593ZM65.2075 58.5176H64.2075V60.2946L65.7264 59.3724L65.2075 58.5176ZM65.2075 57.3593V56.3593H64.2075V57.3593H65.2075ZM62.6055 56.2368H61.6055C61.6055 58.1703 63.1765 59.7372 65.1059 59.7372V58.7372V57.7372C64.2796 57.7372 63.6055 57.0643 63.6055 56.2368H62.6055ZM65.1059 58.7372V59.7372C67.036 59.7372 68.6063 58.1669 68.6063 56.2368H67.6063H66.6063C66.6063 57.0623 65.9315 57.7372 65.1059 57.7372V58.7372ZM67.6063 56.2368H68.6063C68.6063 54.3066 67.036 52.7363 65.1059 52.7363V53.7363V54.7363C65.9315 54.7363 66.6063 55.4112 66.6063 56.2368H67.6063ZM65.1059 53.7363V52.7363C63.1758 52.7363 61.6055 54.3066 61.6055 56.2368H62.6055H63.6055C63.6055 55.4112 64.2803 54.7363 65.1059 54.7363V53.7363ZM64.0108 57.159L64.9678 56.869C64.9147 56.6939 64.8821 56.4902 64.8759 56.2569L63.8763 56.2834L62.8766 56.31C62.8869 56.697 62.9421 57.0806 63.0537 57.449L64.0108 57.159ZM63.8763 56.2834V57.2834H65.0071V56.2834V55.2834H63.8763V56.2834ZM65.0071 56.2834H64.0071V57.159H65.0071H66.0071V56.2834H65.0071ZM65.0071 57.159V56.159H64.0108V57.159V58.159H65.0071V57.159ZM64.5981 58.4792L64.8177 57.5036C64.4629 57.4237 64.157 57.1984 63.9703 56.8677L63.0995 57.3593L62.2287 57.851C62.6898 58.6676 63.4653 59.2492 64.3785 59.4548L64.5981 58.4792ZM63.0995 57.3593V58.3593H63.8625V57.3593V56.3593H63.0995V57.3593ZM63.8625 57.3593L62.9192 57.6913C63.0571 58.0832 63.2544 58.4528 63.5144 58.7789L64.2962 58.1553L65.078 57.5318C64.9702 57.3967 64.8766 57.2284 64.8059 57.0274L63.8625 57.3593ZM64.2962 58.1553L63.5118 58.7755C63.6416 58.9397 63.7824 59.088 63.9302 59.2207L64.5981 58.4764L65.266 57.7322C65.1998 57.6727 65.1375 57.607 65.0806 57.5351L64.2962 58.1553ZM64.5981 58.4764H63.5981V58.4792H64.5981H65.5981V58.4764H64.5981ZM65.0071 57.3593H64.0071V58.5313H65.0071H66.0071V57.3593H65.0071ZM65.0071 58.5313L65.5032 57.6631C65.5182 57.6717 65.3869 57.5961 65.2424 57.4101L64.4527 58.0236L63.6629 58.637C63.996 59.0658 64.3422 59.3032 64.511 59.3996L65.0071 58.5313ZM64.4527 58.0236L65.242 57.4096C65.1492 57.2903 65.0725 57.1557 65.0149 57.0032L64.0794 57.3566L63.1439 57.71C63.2729 58.0516 63.4487 58.3616 63.6633 58.6375L64.4527 58.0236ZM64.0794 57.3566V58.3566H65.0071V57.3566V56.3566H64.0794V57.3566ZM65.0071 57.3566H64.0071V57.3593H65.0071H66.0071V57.3566H65.0071ZM64.1315 55.0044L65.0431 55.4156C65.2265 55.009 65.5008 54.7593 65.5534 54.7159L64.9165 53.9449L64.2796 53.174C64.0797 53.3391 63.569 53.8195 63.22 54.5931L64.1315 55.0044ZM64.9165 53.9449V54.9449C64.9537 54.9449 64.9852 54.9432 65.0071 54.9418C65.0278 54.9403 65.0466 54.9386 65.0523 54.9381C65.0617 54.9372 65.058 54.9376 65.0524 54.938C65.0456 54.9384 65.0292 54.9394 65.0071 54.9394V53.9394V52.9394C64.9699 52.9394 64.9384 52.9411 64.9165 52.9426C64.8958 52.944 64.877 52.9458 64.8713 52.9463C64.8619 52.9471 64.8656 52.9468 64.8712 52.9464C64.878 52.9459 64.8944 52.9449 64.9165 52.9449V53.9449ZM65.0071 53.9394H64.0071V55.0071H65.0071H66.0071V53.9394H65.0071ZM65.0071 55.0071V54.0071H64.1343V55.0071V56.0071H65.0071V55.0071ZM64.1343 55.0071L64.8414 54.3L64.8386 54.2973L64.1315 55.0044L63.4244 55.7115L63.4272 55.7142L64.1343 55.0071ZM63.1654 55.0044L64.0079 55.543C64.1918 55.2554 64.4811 55.0497 64.8023 54.9713L64.5652 53.9998L64.3281 53.0283C63.502 53.2299 62.7812 53.7488 62.3229 54.4657L63.1654 55.0044ZM64.5652 53.9998L63.8336 53.3181C63.6949 53.467 63.5548 53.6346 63.425 53.8237L64.2496 54.3896L65.0741 54.9554C65.1364 54.8646 65.2105 54.7742 65.2968 54.6815L64.5652 53.9998ZM64.2496 54.3896L63.4303 53.8161C63.2535 54.0687 63.1067 54.3378 62.9892 54.6189L63.912 55.0044L64.8347 55.3898C64.8984 55.2373 64.9766 55.0947 65.0688 54.963L64.2496 54.3896ZM63.912 55.0044V54.0044H63.1654V55.0044V56.0044H63.912V55.0044ZM63.8763 56.0831L64.8756 56.1197C64.8825 55.9316 64.9207 55.7394 64.9903 55.5456L64.0492 55.2075L63.1081 54.8694C62.9746 55.241 62.892 55.6362 62.8769 56.0464L63.8763 56.0831ZM64.0492 55.2075V56.2075H65.0043V55.2075V54.2075H64.0492V55.2075ZM65.0043 55.2075H64.0043V56.0831H65.0043H66.0043V55.2075H65.0043ZM65.0043 56.0831V55.0831H63.8735V56.0831V57.0831H65.0043V56.0831ZM63.8735 56.0831V57.0831H63.8763V56.0831V55.0831H63.8735V56.0831ZM62.8113 56.0831L63.8094 56.1454C63.8198 55.9787 63.8642 55.8153 63.9445 55.6547L63.0501 55.2075L62.1557 54.7603C61.9615 55.1486 61.8413 55.5726 61.8133 56.0207L62.8113 56.0831ZM63.0501 55.2075V56.2075H63.8351V55.2075V54.2075H63.0501V55.2075ZM63.8351 55.2075L62.8873 54.8885C62.7617 55.2617 62.6885 55.6503 62.6738 56.046L63.6732 56.0831L64.6725 56.1201C64.6798 55.923 64.7163 55.7242 64.7829 55.5265L63.8351 55.2075ZM63.6732 56.0831V55.0831H62.8086V56.0831V57.0831H63.6732V56.0831ZM62.8086 56.0831V57.0831H62.8113V56.0831V55.0831H62.8086V56.0831ZM63.6759 56.2834L62.6761 56.3013C62.683 56.6912 62.7387 57.0733 62.8399 57.4311L63.8022 57.159L64.7644 56.8868C64.7119 56.7012 64.6798 56.4904 64.6757 56.2656L63.6759 56.2834ZM63.8022 57.159V56.159H63.0035V57.159V58.159H63.8022V57.159ZM63.0035 57.159L63.9202 56.7596C63.8504 56.5994 63.8142 56.435 63.8112 56.2654L62.8113 56.2834L61.8115 56.3014C61.8194 56.7411 61.9149 57.1642 62.0867 57.5584L63.0035 57.159ZM62.8113 56.2834V57.2834H63.6787V56.2834V55.2834H62.8113V56.2834ZM63.6787 56.2834V55.2834H63.6759V56.2834V57.2834H63.6787V56.2834ZM66.5167 56.2834V57.2834H67.406V56.2834V55.2834H66.5167V56.2834ZM67.406 56.2834L66.4061 56.2654C66.4031 56.435 66.3669 56.5994 66.2971 56.7596L67.2138 57.159L68.1306 57.5584C68.3024 57.1642 68.3979 56.7411 68.4058 56.3014L67.406 56.2834ZM67.2138 57.159V56.159H66.3904V57.159V58.159H67.2138V57.159ZM66.3904 57.159L67.3534 57.4286C67.4551 57.0654 67.5062 56.6891 67.5163 56.3102L66.5167 56.2834L65.517 56.2566C65.5107 56.4925 65.4795 56.7036 65.4275 56.8894L66.3904 57.159ZM65.2075 55.0044H66.2075V53.9367H65.2075H64.2075V55.0044H65.2075ZM65.2075 53.9367V54.9367C65.2104 54.9367 65.2121 54.9367 65.2135 54.9367C65.2149 54.9367 65.2154 54.9367 65.2153 54.9367C65.2151 54.9367 65.2114 54.9367 65.2056 54.9365C65.1929 54.9361 65.1721 54.9349 65.1465 54.9317L65.2706 53.9394L65.3946 52.9472C65.3022 52.9356 65.2235 52.9367 65.2075 52.9367V53.9367ZM65.2706 53.9394L64.6257 54.7037C64.6676 54.739 64.8092 54.8649 64.9567 55.0776L65.7784 54.5076L66.6 53.9376C66.3248 53.5409 66.0493 53.2881 65.9155 53.1751L65.2706 53.9394ZM65.7784 54.5076L64.953 55.0723C65.0334 55.1898 65.0972 55.3014 65.1445 55.4078L66.0583 55.0016L66.9721 54.5955C66.8657 54.3561 66.7373 54.1383 66.6037 53.9429L65.7784 54.5076ZM66.0583 55.0016V54.0016H65.2075V55.0016V56.0016H66.0583V55.0016ZM65.2075 55.0016H64.2075V55.0044H65.2075H66.2075V55.0016H65.2075ZM66.1407 55.2047L65.2025 55.5509C65.2697 55.7332 65.3071 55.9252 65.3143 56.1173L66.3136 56.0803L67.3129 56.0433C67.298 55.6426 67.2202 55.2417 67.0788 54.8586L66.1407 55.2047ZM66.3136 56.0803V55.0803H65.2075V56.0803V57.0803H66.3136V56.0803ZM65.2075 56.0803H66.2075V55.2047H65.2075H64.2075V56.0803H65.2075ZM65.2075 55.2047V56.2047H66.1407V55.2047V54.2047H65.2075V55.2047ZM66.2779 55.0044L67.1989 54.6147C67.0837 54.3426 66.9382 54.0713 66.7595 53.8161L65.9403 54.3896L65.1211 54.963C65.2114 55.0921 65.2909 55.238 65.3569 55.394L66.2779 55.0044ZM65.9403 54.3896L66.7625 53.8204C66.6305 53.6297 66.4884 53.4602 66.3475 53.3093L65.6164 53.9916L64.8854 54.6739C64.975 54.77 65.0525 54.864 65.1181 54.9588L65.9403 54.3896ZM65.6164 53.9916L65.3932 54.9664C65.7225 55.0418 66.0173 55.2487 66.2041 55.5406L67.0464 55.0016L67.8888 54.4627C67.4223 53.7336 66.685 53.2104 65.8396 53.0168L65.6164 53.9916ZM67.0464 55.0016V54.0016H66.2751V55.0016V56.0016H67.0464V55.0016ZM66.2751 55.0016L65.568 55.7087L65.5708 55.7115L66.2779 55.0044L66.985 54.2973L66.9823 54.2945L66.2751 55.0016ZM66.3163 56.2834L65.3167 56.2569C65.3104 56.4918 65.2775 56.6969 65.2256 56.8663L66.1818 57.159L67.138 57.4517C67.2509 57.0831 67.3057 56.6954 67.316 56.31L66.3163 56.2834ZM66.1818 57.159V56.159H65.2075V57.159V58.159H66.1818V57.159ZM65.2075 57.159H66.2075V56.2834H65.2075H64.2075V57.159H65.2075ZM65.2075 56.2834V57.2834H66.3136V56.2834V55.2834H65.2075V56.2834ZM66.3136 56.2834V57.2834H66.3163V56.2834V55.2834H66.3136V56.2834ZM66.5167 56.0831L67.516 56.046C67.5014 55.6518 67.4286 55.2595 67.3016 54.8858L66.3547 55.2075L65.4079 55.5292C65.473 55.7209 65.51 55.9215 65.5174 56.1201L66.5167 56.0831ZM66.3547 55.2075V56.2075H67.1644V55.2075V54.2075H66.3547V55.2075ZM67.1644 55.2075L66.27 55.6547C66.3499 55.8144 66.3948 55.9806 66.4052 56.146L67.4032 56.0831L68.4012 56.0201C68.3732 55.5762 68.2535 55.1495 68.0589 54.7603L67.1644 55.2075ZM67.4032 56.0831V55.0831H66.5167V56.0831V57.0831H67.4032V56.0831ZM67.1123 57.3593L66.2415 56.8677C66.0577 57.1932 65.7353 57.4297 65.3745 57.5068L65.5835 58.4847L65.7924 59.4626C66.7161 59.2652 67.5191 58.6728 67.9831 57.851L67.1123 57.3593ZM65.5835 58.4847L66.2524 59.228C66.4015 59.0938 66.548 58.9404 66.6822 58.7668L65.8909 58.1553L65.0996 57.5439C65.0472 57.6117 64.985 57.678 64.9145 57.7414L65.5835 58.4847ZM65.8909 58.1553L66.6762 58.7744C66.9328 58.4489 67.129 58.0822 67.2669 57.694L66.3246 57.3593L65.3822 57.0247C65.3115 57.2238 65.2168 57.3951 65.1055 57.5363L65.8909 58.1553ZM66.3246 57.3593V58.3593H67.1095V57.3593V56.3593H66.3246V57.3593ZM67.1095 57.3593V58.3593H67.1123V57.3593V56.3593H67.1095V57.3593ZM66.1132 57.3593L65.1797 57.0008C65.0042 57.4577 64.7142 57.6472 64.6885 57.6628L65.2075 58.5176L65.7264 59.3724C66.0082 59.2014 66.6677 58.7047 67.0467 57.7178L66.1132 57.3593ZM65.2075 58.5176H66.2075V57.3593H65.2075H64.2075V58.5176H65.2075ZM65.2075 57.3593V58.3593H66.1132V57.3593V56.3593H65.2075V57.3593Z" fill="#363636" mask="url(#path-3-inside-1_509_22838)"/>
<path d="M76.5957 57.665C76.9117 57.665 77.0186 57.8416 77.0186 57.9883C77.0184 58.1473 76.8981 58.3281 76.5957 58.3281C76.2947 58.328 76.174 58.1455 76.1738 57.9883C76.1738 57.8399 76.2788 57.6651 76.5957 57.665ZM77.0205 56.3076C77.003 56.3309 76.9863 56.3559 76.9697 56.3818H76.6191C76.6382 56.3617 76.6564 56.3394 76.6777 56.3184C76.7213 56.2754 76.7887 56.2123 76.8574 56.1455L77.0205 56.3076ZM76.5195 54.2529C77.0189 54.253 77.3901 54.3577 77.6201 54.5098C77.8287 54.6477 77.9346 54.8291 77.9346 55.0869C77.9346 55.4068 77.7864 55.5953 77.5449 55.8096C77.4806 55.8666 77.3785 55.9536 77.2803 56.041V55.3613C77.2803 55.0648 77.1255 54.8329 76.916 54.6963C76.8571 54.6579 76.7946 54.6291 76.7314 54.6055L76.3818 54.2559C76.4266 54.2541 76.4727 54.2529 76.5195 54.2529ZM76.2773 54.5342C75.9593 54.5426 75.6696 54.6705 75.4443 54.877L75.1016 54.7061C75.3649 54.4691 75.7441 54.3017 76.2773 54.2627V54.5342Z" fill="#424242" stroke="#363636"/>
<path d="M3.81836 45.2285H23.7227C23.9695 45.2285 24.1699 45.429 24.1699 45.6758V56.0205C24.1698 56.2672 23.9694 56.4668 23.7227 56.4668H3.81836C3.57161 56.4668 3.37123 56.2672 3.37109 56.0205V45.6758C3.37109 45.4599 3.52405 45.2791 3.72754 45.2373L3.81836 45.2285Z" fill="black" stroke="#363636"/>
<path d="M59.8105 26.0156H79.7148C79.9617 26.0156 80.1621 26.2161 80.1621 26.4629V36.8076C80.162 37.0543 79.9616 37.2539 79.7148 37.2539H59.8105C59.5638 37.2539 59.3634 37.0543 59.3633 36.8076V26.4629C59.3633 26.247 59.5162 26.0662 59.7197 26.0244L59.8105 26.0156Z" fill="black" stroke="#363636"/>
<path d="M80.1592 45.5498V45.5986H59.3281V45.5498H80.1592Z" fill="#272727" stroke="#363636"/>
<path d="M80.1592 41.1172V41.166H59.3281V41.1172H80.1592Z" fill="#272727" stroke="#363636"/>
<path d="M80.1592 49.9824V50.0312H59.3281V49.9824H80.1592Z" fill="#272727" stroke="#363636"/>
<path d="M24.167 35.1875V35.2363H3.33594V35.1875H24.167Z" fill="#272727" stroke="#363636"/>
<path d="M24.167 30.7549V30.8037H3.33594V30.7549H24.167Z" fill="#272727" stroke="#363636"/>
<path d="M24.167 39.6201V39.6689H3.33594V39.6201H24.167Z" fill="#272727" stroke="#363636"/>
<path d="M85.5 62.6953V69.1914H0.5V62.6953H85.5Z" fill="#2E2E2E" stroke="#363636"/>
<mask id="path-15-inside-2_509_22838" fill="white">
<path d="M79.831 64.9756V64.3388H80.627V63.7734H79.5483C79.3919 63.7734 79.2656 63.8997 79.2656 64.0561V64.9756H79.831Z"/>
</mask>
<path d="M79.831 64.9756V65.9756H80.831V64.9756H79.831ZM79.831 64.3388V63.3388H78.831V64.3388H79.831ZM80.627 64.3388V65.3388H81.627V64.3388H80.627ZM80.627 63.7734H81.627V62.7734H80.627V63.7734ZM79.2656 64.9756H78.2656V65.9756H79.2656V64.9756ZM79.831 64.9756H80.831V64.3388H79.831H78.831V64.9756H79.831ZM79.831 64.3388V65.3388H80.627V64.3388V63.3388H79.831V64.3388ZM80.627 64.3388H81.627V63.7734H80.627H79.627V64.3388H80.627ZM80.627 63.7734V62.7734H79.5483V63.7734V64.7734H80.627V63.7734ZM79.5483 63.7734V62.7734C78.8396 62.7734 78.2656 63.3474 78.2656 64.0561H79.2656H80.2656C80.2656 64.452 79.9442 64.7734 79.5483 64.7734V63.7734ZM79.2656 64.0561H78.2656V64.9756H79.2656H80.2656V64.0561H79.2656ZM79.2656 64.9756V65.9756H79.831V64.9756V63.9756H79.2656V64.9756Z" fill="#0E0E0E" mask="url(#path-15-inside-2_509_22838)"/>
<mask id="path-17-inside-3_509_22838" fill="white">
<path d="M79.831 66.1064H79.2656V67.0726C79.2656 67.229 79.3919 67.3553 79.5483 67.3553H80.627V66.7899H79.831V66.1064Z"/>
</mask>
<path d="M79.831 66.1064H80.831V65.1064H79.831V66.1064ZM79.2656 66.1064V65.1064H78.2656V66.1064H79.2656ZM80.627 67.3553V68.3553H81.627V67.3553H80.627ZM80.627 66.7899H81.627V65.7899H80.627V66.7899ZM79.831 66.7899H78.831V67.7899H79.831V66.7899ZM79.831 66.1064V65.1064H79.2656V66.1064V67.1064H79.831V66.1064ZM79.2656 66.1064H78.2656V67.0726H79.2656H80.2656V66.1064H79.2656ZM79.2656 67.0726H78.2656C78.2656 67.7813 78.8396 68.3553 79.5483 68.3553V67.3553V66.3553C79.9442 66.3553 80.2656 66.6767 80.2656 67.0726H79.2656ZM79.5483 67.3553V68.3553H80.627V67.3553V66.3553H79.5483V67.3553ZM80.627 67.3553H81.627V66.7899H80.627H79.627V67.3553H80.627ZM80.627 66.7899V65.7899H79.831V66.7899V67.7899H80.627V66.7899ZM79.831 66.7899H80.831V66.1064H79.831H78.831V66.7899H79.831Z" fill="#0E0E0E" mask="url(#path-17-inside-3_509_22838)"/>
<mask id="path-19-inside-4_509_22838" fill="white">
<path d="M82.2821 64.9756H82.8475V64.0561C82.8475 63.8997 82.7213 63.7734 82.5648 63.7734H81.5273V64.3388H82.2821V64.9756Z"/>
</mask>
<path d="M82.2821 64.9756H81.2821V65.9756H82.2821V64.9756ZM82.8475 64.9756V65.9756H83.8475V64.9756H82.8475ZM81.5273 63.7734V62.7734H80.5273V63.7734H81.5273ZM81.5273 64.3388H80.5273V65.3388H81.5273V64.3388ZM82.2821 64.3388H83.2821V63.3388H82.2821V64.3388ZM82.2821 64.9756V65.9756H82.8475V64.9756V63.9756H82.2821V64.9756ZM82.8475 64.9756H83.8475V64.0561H82.8475H81.8475V64.9756H82.8475ZM82.8475 64.0561H83.8475C83.8475 63.3474 83.2736 62.7734 82.5648 62.7734V63.7734V64.7734C82.169 64.7734 81.8475 64.452 81.8475 64.0561H82.8475ZM82.5648 63.7734V62.7734H81.5273V63.7734V64.7734H82.5648V63.7734ZM81.5273 63.7734H80.5273V64.3388H81.5273H82.5273V63.7734H81.5273ZM81.5273 64.3388V65.3388H82.2821V64.3388V63.3388H81.5273V64.3388ZM82.2821 64.3388H81.2821V64.9756H82.2821H83.2821V64.3388H82.2821Z" fill="#0E0E0E" mask="url(#path-19-inside-4_509_22838)"/>
<mask id="path-21-inside-5_509_22838" fill="white">
<path d="M82.2821 66.1064V66.7899H81.5273V67.3553H82.5648C82.7213 67.3553 82.8475 67.229 82.8475 67.0726V66.1064H82.2821Z"/>
</mask>
<path d="M82.2821 66.1064V65.1064H81.2821V66.1064H82.2821ZM82.2821 66.7899V67.7899H83.2821V66.7899H82.2821ZM81.5273 66.7899V65.7899H80.5273V66.7899H81.5273ZM81.5273 67.3553H80.5273V68.3553H81.5273V67.3553ZM82.8475 66.1064H83.8475V65.1064H82.8475V66.1064ZM82.2821 66.1064H81.2821V66.7899H82.2821H83.2821V66.1064H82.2821ZM82.2821 66.7899V65.7899H81.5273V66.7899V67.7899H82.2821V66.7899ZM81.5273 66.7899H80.5273V67.3553H81.5273H82.5273V66.7899H81.5273ZM81.5273 67.3553V68.3553H82.5648V67.3553V66.3553H81.5273V67.3553ZM82.5648 67.3553V68.3553C83.2736 68.3553 83.8475 67.7813 83.8475 67.0726H82.8475H81.8475C81.8475 66.6767 82.169 66.3553 82.5648 66.3553V67.3553ZM82.8475 67.0726H83.8475V66.1064H82.8475H81.8475V67.0726H82.8475ZM82.8475 66.1064V65.1064H82.2821V66.1064V67.1064H82.8475V66.1064Z" fill="#0E0E0E" mask="url(#path-21-inside-5_509_22838)"/>
<path d="M85.5 61.2881V61.6992H0.5V61.2881H85.5Z" fill="#272727" stroke="#363636"/>
<mask id="path-24-inside-6_509_22838" fill="white">
<path d="M6.24884 24.0576H7.21772V26.182H8.51597V26.9341H6.24609V24.0576H6.24884Z"/>
</mask>
<path d="M6.24884 24.0576H7.21772V26.182H8.51597V26.9341H6.24609V24.0576H6.24884Z" fill="#2E2E2E"/>
<path d="M7.21772 24.0576H8.21772V23.0576H7.21772V24.0576ZM7.21772 26.182H6.21772V27.182H7.21772V26.182ZM8.51597 26.182H9.51597V25.182H8.51597V26.182ZM8.51597 26.9341V27.9341H9.51597V26.9341H8.51597ZM6.24609 26.9341H5.24609V27.9341H6.24609V26.9341ZM6.24609 24.0576V23.0576H5.24609V24.0576H6.24609ZM6.24884 24.0576V25.0576H7.21772V24.0576V23.0576H6.24884V24.0576ZM7.21772 24.0576H6.21772V26.182H7.21772H8.21772V24.0576H7.21772ZM7.21772 26.182V27.182H8.51597V26.182V25.182H7.21772V26.182ZM8.51597 26.182H7.51597V26.9341H8.51597H9.51597V26.182H8.51597ZM8.51597 26.9341V25.9341H6.24609V26.9341V27.9341H8.51597V26.9341ZM6.24609 26.9341H7.24609V24.0576H6.24609H5.24609V26.9341H6.24609ZM6.24609 24.0576V25.0576H6.24884V24.0576V23.0576H6.24609V24.0576Z" fill="#363636" mask="url(#path-24-inside-6_509_22838)"/>
<mask id="path-26-inside-7_509_22838" fill="white">
<path d="M8.78516 24.0576H9.75404V26.9341H8.78516V24.0576Z"/>
</mask>
<path d="M8.78516 24.0576H9.75404V26.9341H8.78516V24.0576Z" fill="#2E2E2E"/>
<path d="M8.78516 24.0576V23.0576H7.78516V24.0576H8.78516ZM9.75404 24.0576H10.754V23.0576H9.75404V24.0576ZM9.75404 26.9341V27.9341H10.754V26.9341H9.75404ZM8.78516 26.9341H7.78516V27.9341H8.78516V26.9341ZM8.78516 24.0576V25.0576H9.75404V24.0576V23.0576H8.78516V24.0576ZM9.75404 24.0576H8.75404V26.9341H9.75404H10.754V24.0576H9.75404ZM9.75404 26.9341V25.9341H8.78516V26.9341V27.9341H9.75404V26.9341ZM8.78516 26.9341H9.78516V24.0576H8.78516H7.78516V26.9341H8.78516Z" fill="#363636" mask="url(#path-26-inside-7_509_22838)"/>
<mask id="path-28-inside-8_509_22838" fill="white">
<path d="M13.2983 24.0576L12.0824 26.9341H11.13L9.91406 24.0576H10.9571L11.6432 25.7401L12.3459 24.0576H13.2983Z"/>
</mask>
<path d="M13.2983 24.0576L12.0824 26.9341H11.13L9.91406 24.0576H10.9571L11.6432 25.7401L12.3459 24.0576H13.2983Z" fill="#2E2E2E"/>
<path d="M13.2983 24.0576L14.2194 24.447L14.8067 23.0576H13.2983V24.0576ZM12.0824 26.9341V27.9341H12.7453L13.0035 27.3234L12.0824 26.9341ZM11.13 26.9341L10.2089 27.3234L10.467 27.9341H11.13V26.9341ZM9.91406 24.0576V23.0576H8.40568L8.99297 24.447L9.91406 24.0576ZM10.9571 24.0576L11.883 23.68L11.6292 23.0576H10.9571V24.0576ZM11.6432 25.7401L10.7173 26.1178L11.6323 28.3613L12.566 26.1255L11.6432 25.7401ZM12.3459 24.0576V23.0576H11.6798L11.4231 23.6723L12.3459 24.0576ZM13.2983 24.0576L12.3772 23.6683L11.1613 26.5447L12.0824 26.9341L13.0035 27.3234L14.2194 24.447L13.2983 24.0576ZM12.0824 26.9341V25.9341H11.13V26.9341V27.9341H12.0824V26.9341ZM11.13 26.9341L12.0511 26.5447L10.8352 23.6683L9.91406 24.0576L8.99297 24.447L10.2089 27.3234L11.13 26.9341ZM9.91406 24.0576V25.0576H10.9571V24.0576V23.0576H9.91406V24.0576ZM10.9571 24.0576L10.0311 24.4353L10.7173 26.1178L11.6432 25.7401L12.5692 25.3625L11.883 23.68L10.9571 24.0576ZM11.6432 25.7401L12.566 26.1255L13.2686 24.443L12.3459 24.0576L11.4231 23.6723L10.7205 25.3548L11.6432 25.7401ZM12.3459 24.0576V25.0576H13.2983V24.0576V23.0576H12.3459V24.0576Z" fill="#363636" mask="url(#path-28-inside-8_509_22838)"/>
<mask id="path-30-inside-9_509_22838" fill="white">
<path d="M15.7879 26.2042V26.937H13.3945V24.0605H15.733V24.7934H14.3469V25.131H15.5629V25.8309H14.3469V26.2097H15.7852L15.7879 26.2042Z"/>
</mask>
<path d="M15.7879 26.2042V26.937H13.3945V24.0605H15.733V24.7934H14.3469V25.131H15.5629V25.8309H14.3469V26.2097H15.7852L15.7879 26.2042Z" fill="#2E2E2E"/>
<path d="M15.7879 26.2042H16.7879L14.8934 25.7571L15.7879 26.2042ZM15.7879 26.937V27.937H16.7879V26.937H15.7879ZM13.3945 26.937H12.3945V27.937H13.3945V26.937ZM13.3945 24.0605V23.0605H12.3945V24.0605H13.3945ZM15.733 24.0605H16.733V23.0605H15.733V24.0605ZM15.733 24.7934V25.7934H16.733V24.7934H15.733ZM14.3469 24.7934V23.7934H13.3469V24.7934H14.3469ZM14.3469 25.131H13.3469V26.131H14.3469V25.131ZM15.5629 25.131H16.5629V24.131H15.5629V25.131ZM15.5629 25.8309V26.8309H16.5629V25.8309H15.5629ZM14.3469 25.8309V24.8309H13.3469V25.8309H14.3469ZM14.3469 26.2097H13.3469V27.2097H14.3469V26.2097ZM15.7852 26.2097V27.2097H16.4033L16.6797 26.6567L15.7852 26.2097ZM15.7879 26.2042H14.7879V26.937H15.7879H16.7879V26.2042H15.7879ZM15.7879 26.937V25.937H13.3945V26.937V27.937H15.7879V26.937ZM13.3945 26.937H14.3945V24.0605H13.3945H12.3945V26.937H13.3945ZM13.3945 24.0605V25.0605H15.733V24.0605V23.0605H13.3945V24.0605ZM15.733 24.0605H14.733V24.7934H15.733H16.733V24.0605H15.733ZM15.733 24.7934V23.7934H14.3469V24.7934V25.7934H15.733V24.7934ZM14.3469 24.7934H13.3469V25.131H14.3469H15.3469V24.7934H14.3469ZM14.3469 25.131V26.131H15.5629V25.131V24.131H14.3469V25.131ZM15.5629 25.131H14.5629V25.8309H15.5629H16.5629V25.131H15.5629ZM15.5629 25.8309V24.8309H14.3469V25.8309V26.8309H15.5629V25.8309ZM14.3469 25.8309H13.3469V26.2097H14.3469H15.3469V25.8309H14.3469ZM14.3469 26.2097V27.2097H15.7852V26.2097V25.2097H14.3469V26.2097ZM15.7852 26.2097L16.6797 26.6567L16.6824 26.6512L15.7879 26.2042L14.8934 25.7571L14.8907 25.7626L15.7852 26.2097Z" fill="#363636" mask="url(#path-30-inside-9_509_22838)"/>
<path d="M3.46777 24.791C3.84476 24.791 4.15118 25.0967 4.15137 25.4736C4.15137 25.8507 3.84487 26.1572 3.46777 26.1572C3.09084 26.157 2.78516 25.8506 2.78516 25.4736C2.78535 25.0968 3.09095 24.7912 3.46777 24.791Z" fill="#4D4D4D" stroke="#363636"/>
<mask id="mask0_509_22838" style="mask-type:luminance" maskUnits="userSpaceOnUse" x="0" y="0" width="82" height="61">
<path d="M81.1029 0H0.339844V60.7953H81.1029V0Z" fill="white"/>
</mask>
<g mask="url(#mask0_509_22838)">
<path d="M70.3262 18.6035C70.3134 18.6597 70.2967 18.7275 70.2705 18.8057C70.1381 19.2005 69.9158 19.5922 69.877 19.6699L70.6846 20.2402C70.7112 20.2126 70.7362 20.1802 70.7412 20.1738C70.7505 20.1619 70.7683 20.1382 70.7793 20.124C70.8069 20.0884 70.8413 20.0446 70.8818 19.9971C70.9653 19.8992 71.0658 19.7953 71.1719 19.7168C71.2823 19.6351 71.3615 19.6086 71.4062 19.6055C71.4209 19.6044 71.4519 19.6023 71.5039 19.6387L71.5635 19.6904C71.5642 19.6937 71.5667 19.7035 71.5654 19.7217C71.5614 19.7787 71.5346 19.868 71.4756 19.9824C71.419 20.092 71.3472 20.1964 71.2871 20.2754C71.258 20.3136 71.2329 20.344 71.2158 20.3643C71.2073 20.3744 71.2001 20.3824 71.1963 20.3867C71.1951 20.3881 71.194 20.3889 71.1934 20.3896L70.2324 21.4395L71.6387 21.2217C71.6394 21.2216 71.641 21.2219 71.6426 21.2217C71.6471 21.2211 71.6549 21.22 71.665 21.2188C71.6859 21.2162 71.7175 21.2122 71.7568 21.209C71.837 21.2025 71.9437 21.1979 72.0537 21.2031C72.1667 21.2085 72.2645 21.2237 72.3359 21.2471C72.3623 21.2557 72.3789 21.2648 72.3896 21.2705C72.3901 21.2786 72.3927 21.2903 72.3916 21.3057C72.3871 21.369 72.3651 21.4552 72.3262 21.5557C72.2885 21.6527 72.2423 21.7434 72.2041 21.8115C72.1853 21.845 72.1699 21.8723 72.1592 21.8896C72.1538 21.8983 72.1498 21.9046 72.1475 21.9082C72.1468 21.9092 72.1459 21.9096 72.1455 21.9102L71.666 22.6289L72.5283 22.6865C72.5297 22.6866 72.5326 22.6872 72.5361 22.6875C72.5438 22.6882 72.5562 22.6887 72.5723 22.6904C72.6051 22.6939 72.6532 22.7 72.7109 22.709C72.8293 22.7275 72.9748 22.7576 73.1074 22.8037C73.233 22.8474 73.3058 22.8935 73.3408 22.9238C73.3117 23.0145 73.233 23.1166 73.0693 23.2188C72.901 23.3238 72.6974 23.396 72.5342 23.4404H72.5332C72.4664 23.4589 72.41 23.4718 72.3721 23.4795C72.3532 23.4833 72.3387 23.4858 72.3301 23.4873C72.3264 23.488 72.3237 23.488 72.3223 23.4883L72.0361 23.5312L71.9307 23.8018L71.9277 23.8105C71.9242 23.8191 71.9174 23.8329 71.9092 23.8516C71.8927 23.8892 71.8667 23.9463 71.8311 24.0176V24.0186C71.6759 24.3315 71.3688 24.8828 70.9336 25.3516C70.4936 25.8253 69.9807 26.1539 69.4111 26.1621C68.6819 26.1725 68.0819 25.7315 67.6289 25.2012C67.4078 24.9423 67.2377 24.6799 67.123 24.4814C67.0661 24.3829 67.0237 24.3015 66.9961 24.2461C66.987 24.2278 66.9795 24.2124 66.9736 24.2002C66.9733 24.1989 66.973 24.1976 66.9727 24.1963C66.9664 24.1738 66.957 24.1401 66.9453 24.0967C66.9219 24.0093 66.8885 23.8824 66.8506 23.7275C66.7747 23.417 66.6805 22.9963 66.6055 22.5518C66.5299 22.1042 66.4764 21.6481 66.4766 21.2617C66.4767 20.8454 66.5407 20.6233 66.5967 20.5449L66.5977 20.5439C66.7124 20.3844 66.9267 20.2998 67.2705 20.3096C67.5216 20.3167 67.7751 20.3739 67.9619 20.4287L68.124 20.4805C68.1596 20.4935 68.1883 20.5043 68.208 20.5117C68.2185 20.5157 68.2263 20.5195 68.2314 20.5215C68.234 20.5225 68.2361 20.523 68.2373 20.5234L68.2383 20.5244L68.6572 20.6865L68.8633 20.2881L68.8643 20.2861C68.8651 20.2845 68.8671 20.2821 68.8691 20.2783C68.8733 20.2705 68.8796 20.2577 68.8887 20.2412C68.907 20.2077 68.9351 20.1565 68.9727 20.0918L68.9756 20.0879C69.2032 19.6861 69.5084 19.2697 69.8223 18.9678C69.9791 18.817 70.1265 18.7059 70.2549 18.6377C70.2804 18.6241 70.3042 18.6129 70.3262 18.6035Z" fill="black" stroke="#ACACAC"/>
<path d="M68.747 25.3771C68.7964 25.3881 68.8485 25.3717 68.8842 25.3305C68.9391 25.2701 68.9336 25.1768 68.8732 25.1246C68.5494 24.8364 68.3847 24.4988 68.3847 24.1201C68.3847 23.1512 69.4359 22.2125 69.4469 22.2015C69.5073 22.1494 69.5128 22.056 69.4606 21.9957C69.4085 21.9353 69.3151 21.9298 69.2548 21.9819C69.2081 22.0231 68.0938 23.0194 68.0938 24.1173C68.0938 24.5812 68.2914 24.9929 68.6811 25.3415C68.7003 25.3579 68.725 25.3717 68.7497 25.3744L68.747 25.3771Z" fill="#484241"/>
<path d="M69.0827 21.5674C69.1266 21.7348 69.2309 21.8501 69.3818 21.9022C69.4148 21.9132 69.4477 21.9214 69.4861 21.9242C69.5657 21.9352 69.659 21.9297 69.7551 21.916C69.6975 21.9791 69.6481 22.045 69.6124 22.1108C69.5767 22.1767 69.552 22.2398 69.5465 22.3057C69.5383 22.399 69.5575 22.5308 69.7002 22.646C70.0049 22.8876 70.5621 22.8766 71.0012 22.8162C70.7432 23.0742 70.5401 23.3899 70.5154 23.6561C70.4989 23.829 70.5566 23.9745 70.6801 24.0733C70.7652 24.1419 70.8942 24.1886 71.0451 24.2188C71.4212 24.2956 71.9344 24.2709 72.2748 24.2407C72.3543 24.0815 72.3928 23.9827 72.3928 23.9827C72.3928 23.9827 72.5026 23.9663 72.6645 23.9223C72.6398 23.9114 72.6124 23.9059 72.5822 23.9114C72.0415 23.9855 71.0973 24.0321 70.8612 23.8455C70.831 23.8208 70.7954 23.7796 70.8036 23.6808C70.831 23.3844 71.2482 22.8958 71.6599 22.6735C71.7258 22.6378 71.7533 22.561 71.7258 22.4923C71.6984 22.421 71.6215 22.3853 71.5529 22.4045C71.2043 22.5006 70.2272 22.69 69.8814 22.4155C69.832 22.3743 69.8347 22.3469 69.8375 22.3304C69.8429 22.259 69.9061 22.174 70.0021 22.0779C70.1943 21.8885 70.5181 21.6744 70.7597 21.5454C70.7871 21.5317 70.8091 21.5097 70.8201 21.4823C70.842 21.4411 70.842 21.3917 70.8201 21.3478C70.7816 21.2764 70.6938 21.249 70.6224 21.2874C70.5758 21.3121 70.4825 21.3643 70.3672 21.4356C70.1366 21.5235 69.9116 21.5976 69.7332 21.625C69.6261 21.6415 69.5383 21.6415 69.4752 21.6223C69.4367 21.6085 69.3901 21.5838 69.3654 21.4905C69.3352 21.3752 69.3516 21.2051 69.4065 21.0212C69.423 20.9635 69.401 20.9032 69.3544 20.8647C69.3544 20.8647 69.3544 20.8647 69.3516 20.862C69.272 20.8016 69.154 20.84 69.1266 20.9361C69.0607 21.1639 69.036 21.389 69.0827 21.5646V21.5674Z" fill="#484241"/>
<path d="M69.4369 18.6503C69.231 18.8644 69.0553 19.0592 68.8989 19.309C68.7479 19.5533 68.6436 19.6823 68.5393 19.8442C68.5256 19.8305 68.5531 19.8579 68.5393 19.8442L68.2813 7.59732C68.2758 7.41068 68.5558 7.39421 68.5695 7.58359L69.4369 18.6503Z" fill="#414F50"/>
<path d="M68.7234 25.6711C69.824 26.0362 69.9722 25.5174 69.9722 25.5174L69.7499 22.6821C69.7334 22.6712 69.7142 22.6574 69.6978 22.6465C69.555 22.5312 69.5358 22.3967 69.5441 22.3061C69.5495 22.2402 69.5743 22.1771 69.6099 22.1112C69.6319 22.0701 69.6621 22.0262 69.695 21.985L69.6895 21.9246C69.6154 21.9301 69.5441 21.9328 69.4837 21.9246C69.4452 21.9191 69.4123 21.9136 69.3794 21.9026C69.2778 21.8697 69.1982 21.8066 69.1461 21.7188C69.061 21.8587 68.9347 21.9575 68.77 22.0179C68.7261 22.0344 68.6822 22.0481 68.6328 22.0564L68.7206 25.6711H68.7234Z" fill="#414F50"/>
<path d="M66.8119 21.6496C66.8449 21.6661 67.3554 21.9241 67.9016 22.0338C68.2035 22.0942 68.5191 22.1107 68.7717 22.0174C68.9803 21.9405 69.1257 21.7978 69.2081 21.5947C69.5017 20.8756 68.9144 20.1894 68.5384 19.8408C68.4588 19.9781 68.4176 20.0577 68.4176 20.0577C68.4176 20.0577 68.3682 20.0384 68.2858 20.0082C68.607 20.291 69.1779 20.9003 68.9391 21.4822C68.8897 21.6084 68.7991 21.6908 68.6701 21.7402C68.1843 21.9213 67.2593 21.5453 66.9437 21.3861C66.8723 21.3504 66.7845 21.3779 66.7461 21.4492C66.7104 21.5206 66.7378 21.6084 66.8092 21.6468L66.8119 21.6496Z" fill="#484241"/>
<path d="M51.5214 22.608V22.6025L51.5296 22.6163L51.5461 22.6492L51.5845 22.7288L51.6696 22.9045C51.6998 22.9648 51.73 23.0252 51.7602 23.0856C51.7904 23.146 51.8233 23.2091 51.8562 23.2695C51.9852 23.5165 52.1197 23.769 52.2597 24.0188C52.5452 24.5156 52.8388 25.0151 53.1572 25.4982C53.4756 25.9813 53.7995 26.4589 54.1481 26.92C54.3237 27.1478 54.4966 27.3783 54.6805 27.5979C54.8562 27.8257 55.0428 28.0398 55.2267 28.2594C55.6028 28.6876 55.987 29.1075 56.3877 29.5027C56.4838 29.6043 56.5881 29.7004 56.6897 29.7964C56.7912 29.8925 56.89 29.994 56.9943 30.0846C57.2029 30.2713 57.4088 30.4634 57.6229 30.6391C58.0428 31.0068 58.4875 31.3335 58.9321 31.6628C59.385 31.9757 59.8406 32.2804 60.3154 32.5521C60.4335 32.6207 60.5515 32.6921 60.6695 32.758L61.0318 32.9474L61.2129 33.0434L61.2569 33.0681L61.2349 33.0571L61.2047 33.0434C61.1635 33.0242 61.1196 33.0077 61.0757 32.994C60.8918 32.9226 60.6777 32.8897 60.4856 32.887C60.4362 32.887 60.3978 32.887 60.3511 32.887C60.3292 32.887 60.3072 32.8897 60.2852 32.8925L60.2303 32.8979C60.1947 32.9007 60.1562 32.9089 60.1233 32.9172C60.0958 32.9199 60.0684 32.9281 60.041 32.9364C60.0272 32.9391 60.0108 32.9474 60.0025 32.9474C59.9916 32.9474 59.9833 32.9528 59.9723 32.9556C59.9531 32.9611 59.9339 32.9721 59.9174 32.9775C59.9065 32.9803 59.8955 32.9858 59.8845 32.9913L59.8708 32.9995H59.8653C59.8269 33.0242 59.9065 32.9885 60.0163 32.9034C60.126 32.8183 60.2715 32.6893 60.4252 32.5356C60.5789 32.3819 60.7409 32.2008 60.9055 32.0059C61.2349 31.6162 61.5698 31.166 61.8991 30.6939C62.2285 30.2191 62.5524 29.7196 62.8708 29.2036C63.1919 28.6903 63.5048 28.1606 63.8122 27.6226C64.1196 27.0847 64.4243 26.5412 64.7207 25.9895C64.8716 25.715 65.0199 25.4406 65.1626 25.1634L65.5853 24.3646L71.0363 26.6126L70.9429 26.8815L70.8524 27.1313L70.6712 27.6254C70.5477 27.952 70.4214 28.2759 70.2924 28.597C70.0317 29.2392 69.7572 29.8788 69.4663 30.5155C69.1726 31.1496 68.8652 31.7836 68.5358 32.4176C68.3684 32.7333 68.201 33.0489 68.0226 33.3645C67.8442 33.6802 67.6603 33.9958 67.4654 34.3115C67.0756 34.9428 66.6557 35.574 66.1617 36.2136C65.9146 36.5319 65.6484 36.8558 65.352 37.1797C65.0528 37.5063 64.7234 37.8329 64.3255 38.1678C63.9247 38.4999 63.4581 38.843 62.8268 39.1531L62.7088 39.2108C62.6676 39.23 62.6237 39.2492 62.5798 39.2657C62.492 39.3014 62.4069 39.3398 62.3191 39.3727C62.2285 39.4084 62.1269 39.4413 62.0309 39.4715L61.8854 39.5182C61.836 39.5319 61.7811 39.5456 61.7262 39.5594C61.6192 39.5868 61.5121 39.6115 61.4023 39.6335C61.2871 39.6554 61.169 39.6719 61.051 39.6884C60.9906 39.6966 60.933 39.7021 60.8726 39.7103C60.8095 39.7158 60.7463 39.7186 60.6832 39.7213C60.557 39.7268 60.4335 39.7323 60.3017 39.7268C59.7802 39.7158 59.2422 39.6143 58.7427 39.4386C58.6219 39.3947 58.5039 39.3453 58.3859 39.2931L58.2981 39.2547L58.2185 39.219L58.1553 39.1861L57.8973 39.0543L57.3841 38.7881C57.2139 38.6948 57.0492 38.5987 56.8818 38.5026C56.2093 38.1239 55.5698 37.6984 54.9413 37.2593C54.3237 36.8092 53.7171 36.3398 53.149 35.8348C52.5726 35.338 52.0319 34.8083 51.5077 34.2676L51.1234 33.8559C50.9944 33.7186 50.8736 33.5759 50.7501 33.4359C50.6266 33.2959 50.5031 33.1532 50.3851 33.0105L50.0283 32.5796C49.0896 31.4158 48.2607 30.1834 47.5306 28.8989C47.1683 28.2539 46.8252 27.6007 46.515 26.9227C46.3586 26.5824 46.2076 26.242 46.0649 25.888C46.0292 25.8001 45.9935 25.7123 45.9606 25.6217C45.9249 25.5339 45.892 25.4406 45.8563 25.35C45.8234 25.2594 45.7877 25.1634 45.752 25.0673L45.6367 24.7242L51.5241 22.6163L51.5214 22.608Z" fill="#242424"/>
<path d="M67.8699 26.6867C67.9084 26.909 67.7574 27.1176 67.5378 27.1561C67.3155 27.1945 67.1069 27.0435 67.0685 26.824C67.0301 26.6016 67.181 26.393 67.4006 26.3546C67.6229 26.3162 67.8315 26.4671 67.8699 26.6867Z" fill="#DEDEDE"/>
<path d="M61.4292 35.5683C61.3551 35.5875 61.2727 35.5546 61.2343 35.4832C60.592 34.3002 60.2215 32.7056 60.2078 32.6369C60.1858 32.5436 60.2435 32.4503 60.3395 32.4283C60.4328 32.4064 60.5262 32.4668 60.5481 32.5601C60.5509 32.5766 60.9214 34.1767 61.5417 35.3185C61.5884 35.4036 61.5554 35.5079 61.4731 35.5546C61.4594 35.5628 61.4456 35.5655 61.4347 35.571L61.4292 35.5683Z" fill="#DEDEDE"/>
<path d="M60.038 34.6266C60.0133 34.6321 59.9858 34.6348 59.9584 34.6266C59.865 34.6074 59.8047 34.514 59.8239 34.4207C59.8349 34.3686 60.0983 33.1417 60.2713 32.7492C60.3097 32.6614 60.414 32.6229 60.5018 32.6614C60.5897 32.6998 60.6281 32.8041 60.5897 32.8919C60.4305 33.2487 60.167 34.4811 60.1642 34.4948C60.1505 34.5607 60.0983 34.6101 60.038 34.6266Z" fill="#DEDEDE"/>
<path d="M69.9254 29.6427C69.8814 29.6537 69.832 29.6482 69.7909 29.6235C68.0068 28.5339 64.2356 27.06 64.1971 27.0462C64.1066 27.0106 64.0627 26.9117 64.0983 26.8212C64.134 26.7306 64.2328 26.6867 64.3234 26.7224C64.3618 26.7361 68.1632 28.2237 69.972 29.3271C70.0544 29.3765 70.0791 29.4835 70.0297 29.5659C70.0049 29.607 69.9665 29.6317 69.9254 29.6427Z" fill="#DEDEDE"/>
<path d="M68.2409 28.753C68.2024 28.764 68.1613 28.7612 68.1228 28.742C68.035 28.7008 67.9993 28.5965 68.0405 28.5115L69.2152 26.033C69.2564 25.9452 69.3607 25.9095 69.4458 25.9506C69.5336 25.9918 69.5693 26.0961 69.5281 26.1812L68.3534 28.6597C68.3314 28.7091 68.2875 28.742 68.2409 28.753Z" fill="#DEDEDE"/>
<path d="M33.0145 62.6836C33.0529 62.8346 33.0941 62.9828 33.138 63.1255C33.138 63.131 33.1408 63.1365 33.1435 63.142C33.2039 63.3369 33.2725 63.5263 33.3439 63.7047C33.9971 65.2939 39.0199 65.5189 43.9659 64.9563C47.8003 64.5199 51.588 63.6086 53.2512 62.4943C54.8102 61.4485 51.4672 51.8311 51.4672 51.8311L32.7126 55.8054C32.7126 55.8054 32.2981 59.8072 33.0172 62.6809L33.0145 62.6836Z" fill="#D3DDE1"/>
<path d="M46.0423 79.5166H55.3496C55.012 74.3675 54.4905 68.5871 53.8565 62.5158C53.84 62.3539 53.8235 62.192 53.8043 62.03C53.7494 61.4921 53.6891 60.9486 53.6314 60.4052C53.6149 60.2597 53.6012 60.1142 53.5848 59.9688L51.7787 60.8031L51.3368 61.009L44.25 64.2889L44.3241 64.912L46.045 79.5138L46.0423 79.5166Z" fill="#D3DDE1"/>
<path d="M49.3345 56.8782C49.3565 56.9962 49.8148 59.3484 51.3354 61.0117C51.6428 61.3493 51.9941 61.6567 52.3921 61.912C52.705 62.1123 53.0316 62.2688 53.372 62.3841C53.5284 62.439 53.6904 62.4829 53.8523 62.5186C53.8358 62.3566 53.8194 62.1947 53.8001 62.0327C53.7233 62.0135 53.6464 61.9916 53.5696 61.9669C53.243 61.8598 52.9328 61.7144 52.6391 61.525C52.3207 61.3191 52.0326 61.0748 51.7773 60.8086C50.2595 59.2277 49.7901 56.8233 49.7846 56.7958C49.7627 56.6723 49.6419 56.59 49.5157 56.6119C49.3894 56.6366 49.3098 56.7547 49.3318 56.8809L49.3345 56.8782Z" fill="#414F50"/>
<path d="M45.5551 63.957C45.5606 64.0585 45.4783 64.1463 45.374 64.1518C45.2669 64.1573 45.1791 64.0777 45.1736 63.9762C45.1379 63.2818 45.0968 62.5709 45.0501 61.8627C45.0419 61.7365 45.0336 61.613 45.0254 61.4867C44.8689 59.1674 44.6741 56.8921 44.5259 55.2837C44.5149 55.1547 44.5012 55.0284 44.4902 54.9077C44.4572 54.5563 44.427 54.2434 44.4023 53.9772C44.5286 53.958 44.6576 53.936 44.7811 53.9141C44.8058 54.1776 44.836 54.4959 44.8689 54.85C44.8799 54.9708 44.8909 55.097 44.9046 55.226C45.0501 56.818 45.245 59.0769 45.4014 61.3797C45.4097 61.5059 45.4179 61.6349 45.4289 61.7612C45.4755 62.4968 45.5194 63.2324 45.5579 63.9515L45.5551 63.957Z" fill="#414F50"/>
<path d="M46.1001 61.5086C46.0398 61.536 45.7708 61.6623 45.4304 61.7666C45.3124 61.8023 45.1834 61.838 45.0517 61.8627C44.9309 61.8874 44.8101 61.9038 44.6894 61.9093C44.4561 61.923 44.2337 61.8983 44.0444 61.8105C43.811 61.7007 43.6601 61.4976 43.6079 61.2259C43.468 60.5095 43.1688 57.5562 42.9684 55.4675C42.9547 55.3385 42.9437 55.215 42.9327 55.0915C42.8998 54.7566 42.8724 54.4519 42.8477 54.1939C42.9739 54.1775 43.1029 54.1637 43.2292 54.1445C43.2539 54.4053 43.2813 54.7127 43.3143 55.0503C43.3252 55.1711 43.339 55.2973 43.3499 55.4263C43.5503 57.5095 43.8495 60.4601 43.9867 61.1518C44.0169 61.311 44.091 61.4153 44.2173 61.4756C44.4204 61.5717 44.725 61.5525 45.027 61.4839C45.156 61.4564 45.285 61.418 45.4057 61.3796C45.6253 61.3082 45.8174 61.2259 45.9327 61.171C46.0288 61.1243 46.1441 61.1628 46.1907 61.2533C46.2374 61.3439 46.1989 61.4564 46.1029 61.5004L46.1001 61.5086Z" fill="#414F50"/>
<path d="M33.1398 63.1203C33.1398 63.1203 33.1398 63.123 33.1398 63.1257C33.1398 63.1312 33.1398 63.1367 33.1398 63.1422C33.1535 63.2904 33.1672 63.4441 33.1837 63.5978C33.6009 67.9866 34.2431 74.5877 34.7976 79.5172H43.9951L43.9621 61.9071C43.9621 61.9071 41.3986 60.6884 38.6484 59.758C38.5002 59.7086 38.3492 59.6592 38.201 59.6098C37.9183 59.5192 37.6328 59.4286 37.3501 59.3463C37.1992 59.3024 37.0482 59.2612 36.9 59.22C35.2038 58.7589 33.6311 58.5311 32.75 58.9016C32.75 58.9016 32.8872 60.3948 33.1013 62.6811C33.115 62.8238 33.1288 62.9693 33.1425 63.1203H33.1398Z" fill="#D3DDE1"/>
<path d="M33.1406 63.1203C33.1406 63.1203 33.1406 63.123 33.1406 63.1258C33.1406 63.1312 33.1406 63.1367 33.1406 63.1422C33.1543 63.2904 33.1681 63.4441 33.1845 63.5978C33.8378 63.7076 34.4773 63.65 35.0949 63.4222C36.2723 62.994 37.1973 62.0279 37.867 61.0645C38.1854 60.6088 38.4434 60.1532 38.6465 59.758C38.9896 59.0855 39.1735 58.5833 39.1927 58.5284C39.2339 58.4076 39.1708 58.2758 39.0527 58.2347C38.932 58.1908 38.8002 58.2539 38.759 58.3747C38.7536 58.3884 38.5642 58.9126 38.1991 59.6098C38.007 59.9803 37.7627 60.3975 37.4718 60.8147C36.846 61.7122 35.9979 62.6043 34.9384 62.9913C34.362 63.2026 33.7582 63.2438 33.1406 63.1203Z" fill="#414F50"/>
<path d="M29.9037 42.0756C29.9366 42.5642 29.9778 43.0555 30.0272 43.544C30.2797 46.0006 31.2211 54.2155 32.0692 56.5155C35.1927 58.0306 38.6922 58.5796 42.0298 58.4341C42.6666 58.4066 43.2951 58.3517 43.9154 58.2776C44.4644 58.209 45.0051 58.1239 45.5375 58.0196C49.0068 57.3499 52.0425 55.9529 53.9226 54.188C53.0333 50.7407 51.9931 44.491 51.6033 41.8094C51.5292 41.3098 51.4661 40.824 51.4085 40.3464C51.3508 39.8826 51.3014 39.4325 51.2548 38.9906C51.2054 38.4883 51.1587 37.9997 51.123 37.5249C51.0846 37.0144 51.0544 36.5231 51.0297 36.0455C51.005 35.5377 50.9885 35.0464 50.9775 34.5716C50.8403 28.116 52.0205 24.9294 51.7076 23.3841C51.2383 21.0566 49.0864 21.0896 47.124 20.3567C47.0087 20.3156 46.8962 20.2689 46.7836 20.2195C46.7068 20.1866 46.6327 20.1509 46.5586 20.1179C45.8861 19.7968 45.2603 19.3439 44.7635 18.6221L39.0051 18.633C39.0051 18.633 38.5358 19.0173 37.7014 19.4427C37.6245 19.4839 37.5422 19.5223 37.4571 19.5635C37.2513 19.6623 37.0234 19.7584 36.7764 19.8544C36.1781 20.0823 35.459 20.2936 34.6108 20.4281C32.0308 20.8453 30.5487 23.59 30.2769 28.0419C30.1397 30.2898 29.9942 32.4087 29.8982 34.4536C29.8927 34.588 29.8845 34.7253 29.879 34.8598C29.7692 37.3437 29.7417 39.7152 29.9009 42.0729L29.9037 42.0756Z" fill="#454545"/>
<path d="M45.8201 45.3443L44.8348 47.7349L44.3929 48.8108L43.1413 51.8492L42.532 50.6772L42.3179 50.2628L41.8293 49.3241L41.6125 48.9096L41.1239 47.9709L40.9098 47.5565L40.4213 46.6178L40.2045 46.2033L39.7461 45.3223L39.7543 45.2262L39.8257 44.5236L39.9849 42.9371L40.0535 42.2345L40.2127 40.6453L40.2813 39.9454L40.4405 38.3562L40.5119 37.6563L40.6683 36.0671L40.7397 35.3645L40.8989 33.778L40.9675 33.0754L41.1267 31.489L41.198 30.7863L41.3545 29.1971L41.4259 28.4972L41.585 26.908L41.6537 26.2081L41.7305 25.4424L41.8184 24.5668L43.0315 24.5146L43.0672 24.7891L43.1413 25.3435L43.1633 25.5137L43.3115 26.6034L43.3856 27.1605L43.553 28.4204L43.6271 28.9775L43.7973 30.2374L43.8714 30.7918L44.0416 32.0516L44.1157 32.6088L44.2831 33.8686L44.3572 34.4231L44.5274 35.6829L44.6015 36.24L44.7689 37.4999L44.8458 38.057L45.0132 39.3169L45.0873 39.8713L45.2575 41.1311L45.3316 41.6883L45.499 42.9481L45.5731 43.5053L45.7433 44.7651L45.8174 45.3195L45.8201 45.3443Z" fill="#717171"/>
<path d="M43.1632 25.5137L42.4441 26.7928L41.7305 25.4424L41.8183 24.5668L43.0315 24.5146L43.0671 24.7891L43.1412 25.3435L43.1632 25.5137Z" fill="#636262"/>
<path d="M29.9025 42.0747C29.9354 42.5632 29.9766 43.0546 30.026 43.5431C30.2785 45.9996 31.22 54.2145 32.0681 56.5146C35.1916 58.0297 38.6911 58.5786 42.0286 58.4332L43.7825 55.661L45.5364 58.0187C49.0057 57.349 52.0413 55.9519 53.9215 54.1871C53.6003 52.9383 53.2572 51.3216 52.9334 49.6391C52.8565 49.2356 52.7797 48.8267 52.7028 48.4205C52.228 45.8432 51.8163 43.2851 51.6022 41.8085C51.5281 41.3089 51.4649 40.8231 51.4073 40.3455C51.3497 39.8817 51.3003 39.4315 51.2536 38.9896C51.2042 38.4874 51.1575 37.9988 51.1219 37.524C51.0834 37.0134 51.0532 36.5221 51.0285 36.0446C51.0038 35.5368 50.9874 35.0455 50.9764 34.5707C50.8392 28.1151 52.0194 24.9285 51.7065 23.3832C51.2371 21.0557 49.0853 21.0886 47.1228 20.3558C47.0899 20.3723 47.0569 20.3887 47.024 20.4052L42.745 39.3382L36.8796 19.8782C36.8796 19.8782 36.8411 19.87 36.7725 19.8535C36.1742 20.0813 35.4551 20.2927 34.6069 20.4272C32.0269 20.8444 30.5448 23.5891 30.273 28.041C30.1358 30.2889 29.9903 32.4078 29.8943 34.4526C29.8888 34.5871 29.8805 34.7244 29.8751 34.8588C29.7653 37.3428 29.7378 39.7142 29.897 42.0719L29.9025 42.0747Z" fill="#242424"/>
<path d="M33.5425 57.424C33.4601 57.424 33.3805 57.3719 33.3503 57.2895C30.5342 49.7937 30.5782 35.5185 30.5782 35.3758C30.5782 35.2632 30.6715 35.1699 30.784 35.1699C30.8966 35.1699 30.9899 35.2632 30.9899 35.3758C30.9899 35.5185 30.9432 49.7169 33.7346 57.1441C33.7758 57.2511 33.7209 57.3691 33.6138 57.4103C33.5891 57.4185 33.5644 57.424 33.5425 57.424Z" fill="#DEDEDE"/>
<path d="M47.8477 48.1135C49.4753 48.775 51.5475 49.3157 52.9363 49.6396C52.8595 49.2361 52.7826 48.8271 52.7058 48.4209C50.5786 47.8994 48.1111 47.1172 48.1111 47.1172L47.8477 48.1135Z" fill="#DEDEDE"/>
<path d="M39.1683 47.9189C39.1683 47.9189 34.9771 50.4358 33.0586 51.155L33.6432 52.176C33.6432 52.176 37.2882 50.5209 39.6569 48.8274L39.1683 47.9189Z" fill="#DEDEDE"/>
<path d="M47.0341 20.4053C47.0341 20.4053 48.5272 19.6286 49.6251 21.1272L48.6644 27.3302L46.4961 28.6203L47.9673 29.4986L46.3232 36.7117L42.7578 39.3411L47.0368 20.4081L47.0341 20.4053Z" fill="#DEDEDE"/>
<path d="M37.7308 19.8544C37.7308 19.8544 36.1498 18.8499 35.0547 20.3512L36.4078 27.3557L38.5816 28.6375L37.1132 29.5213L38.7875 36.7262L42.7563 39.3419L37.7308 19.8572V19.8544Z" fill="#DEDEDE"/>
<path d="M43.9703 53.7393C43.9511 53.9781 43.7398 54.1565 43.501 54.1373C43.2622 54.1181 43.0838 53.9067 43.103 53.668C43.1222 53.4292 43.3335 53.2508 43.5723 53.27C43.8111 53.2892 43.9895 53.5005 43.9703 53.7393Z" fill="#DEDEDE"/>
<path d="M43.7828 50.5235C43.7636 50.7623 43.5523 50.9407 43.3135 50.9215C43.0747 50.9023 42.8963 50.6909 42.9155 50.4521C42.9347 50.2133 43.146 50.0349 43.3848 50.0542C43.6236 50.0734 43.802 50.2847 43.7828 50.5235Z" fill="#DEDEDE"/>
<path d="M43.5992 47.3038C43.58 47.5426 43.3687 47.721 43.1299 47.7018C42.8911 47.6825 42.7127 47.4712 42.7319 47.2324C42.7511 46.9936 42.9624 46.8152 43.2012 46.8344C43.44 46.8536 43.6184 47.065 43.5992 47.3038Z" fill="#DEDEDE"/>
<path d="M43.4156 44.086C43.3964 44.3248 43.1851 44.5032 42.9463 44.484C42.7075 44.4648 42.5291 44.2534 42.5483 44.0146C42.5675 43.7758 42.7788 43.5974 43.0176 43.6167C43.2564 43.6359 43.4348 43.8472 43.4156 44.086Z" fill="#DEDEDE"/>
<path d="M43.232 40.8672C43.2128 41.106 43.0015 41.2844 42.7627 41.2652C42.5239 41.246 42.3455 41.0347 42.3647 40.7959C42.3839 40.5571 42.5953 40.3787 42.834 40.3979C43.0728 40.4171 43.2512 40.6285 43.232 40.8672Z" fill="#DEDEDE"/>
<path d="M50.8237 34.8015C50.939 34.9086 51.1284 34.8262 51.1284 34.667C51.1284 33.248 51.1805 31.7247 51.2848 30.1218C51.2903 30.0477 51.293 29.99 51.2958 29.9489C51.3013 29.8473 51.2244 29.7595 51.1229 29.7513C51.0186 29.7458 50.9335 29.8226 50.9252 29.9242C50.9252 29.9653 50.9198 30.023 50.9143 30.0971C50.81 31.7055 50.7578 33.237 50.7578 34.6615C50.7578 34.7137 50.7798 34.7631 50.8182 34.796C50.8182 34.796 50.8182 34.796 50.8209 34.7988L50.8237 34.8015Z" fill="#DEDEDE"/>
<path d="M38.4021 11.9579C38.4021 11.9579 37.0847 11.0165 36.7745 9.53708C36.5 8.23335 37.5979 8.23335 37.5979 8.23335C37.5979 8.23335 36.7004 6.81708 37.2384 5.76036C37.9108 4.43467 39.2585 4.68993 39.2585 4.68993C39.2585 4.68993 38.8962 2.58473 42.2475 2.7549C45.5988 2.92508 47.5942 3.05408 48.1376 4.50054C48.6811 5.94975 47.3142 6.37243 47.3142 6.37243C47.3142 6.37243 48.6673 7.19585 48.0059 8.0522C47.3444 8.90855 46.5182 8.65603 46.5182 8.65603L38.4049 11.9607L38.4021 11.9579Z" fill="#D3DDE1"/>
<path d="M45.1719 11.3759C45.1719 11.3759 45.5863 9.81139 46.8571 10.1051C48.1279 10.396 48.3722 14.568 45.9788 14.5515L45.1719 11.3786V11.3759Z" fill="#484241"/>
<path d="M44.5684 16.5283C44.4562 17.0482 44.3411 18.0008 44.5684 19.2891C44.5167 19.3221 44.4597 19.3623 44.3936 19.4014C44.091 19.5794 43.5981 19.753 43.0264 19.8389C42.4571 19.9243 41.8506 19.9173 41.3203 19.7705C40.3145 19.4924 39.8806 19.2531 39.7061 19.1182L40.0117 18.5801H39.6445L39.5908 14.0527L44.5684 16.5283ZM39.6025 19.3008C39.6004 19.3051 39.5979 19.3092 39.5957 19.3135C39.5946 19.3157 39.593 19.3181 39.5918 19.3203C39.5912 19.3214 39.5905 19.3231 39.5898 19.3242L39.5889 19.3252L39.6025 19.3008Z" fill="black" stroke="#ACACAC"/>
<path d="M39.9453 15.6279C39.9453 15.6279 41.4082 19.6407 44.6497 19.8328C44.9517 19.6544 45.1246 19.5199 45.1246 19.5199C44.7458 17.7496 45.0505 16.6023 45.1383 16.3278L39.9453 15.6279Z" fill="#484241"/>
<path d="M40.6758 6.44238C41.9111 5.83414 43.2929 5.82196 44.3965 6.33203C45.481 6.8334 46.3265 7.85178 46.5098 9.3916L46.5117 9.43262C46.5132 9.4694 46.515 9.52425 46.5176 9.59375C46.5227 9.73273 46.5296 9.9326 46.5371 10.1758C46.5521 10.6626 46.5699 11.3221 46.5781 12.0137V12.0195C46.5807 12.1336 46.5811 12.2485 46.5811 12.3701V12.8945C46.5811 13.672 46.5584 14.3983 46.5088 14.8916C46.4164 15.8064 45.9575 16.4736 45.2617 16.877C44.5795 17.2724 43.6334 17.4315 42.5244 17.252L42.3896 17.2275C40.4958 16.8787 39.3791 15.4067 39.3545 13.5742C39.3473 13.0352 39.2703 12.3543 39.208 11.6719C39.1441 10.9727 39.0922 10.2419 39.1221 9.54102C39.1827 8.12062 39.5683 6.98764 40.6758 6.44336V6.44238Z" fill="black" stroke="#ACACAC"/>
<path d="M42.7969 13.624C42.7969 13.624 43.1509 14.7686 44.0869 14.9552C45.1518 15.1666 45.3934 13.8326 45.3934 13.8326L42.7969 13.624Z" fill="white"/>
<path d="M42.1237 10.2232C41.4156 10.3742 41.2152 9.61666 41.8547 9.22142C42.1457 9.04027 42.4668 8.88657 42.7962 8.88382C43.7294 8.87833 43.7596 9.53706 43.2902 9.8033C43.0679 9.9323 42.5327 10.1382 42.1265 10.2232H42.1237Z" fill="#D3DDE1"/>
<path d="M46.1494 9.84714C46.8713 9.91026 46.9783 9.13351 46.2949 8.81787C45.9848 8.67514 45.6472 8.55987 45.3205 8.59829C44.3928 8.70534 44.445 9.36132 44.9418 9.56992C45.1806 9.66873 45.735 9.80871 46.1494 9.84439V9.84714Z" fill="#D3DDE1"/>
<path d="M46.7975 12.9327C46.8963 12.9244 46.9897 12.9135 47.0802 12.897C47.0802 12.8887 47.0802 12.8805 47.0802 12.8723C47.0802 12.7076 47.0802 12.5402 47.0802 12.3727C47.0802 12.252 47.0802 12.1312 47.0775 12.0104C46.9677 12.005 46.8497 12.005 46.7289 12.0159C46.1004 12.0626 45.6063 12.3069 45.6255 12.5621C45.6448 12.8174 46.169 12.9821 46.8003 12.9354L46.7975 12.9327Z" fill="#484241"/>
<path d="M46.5642 12.7403C45.7216 12.905 44.9009 12.356 44.7362 11.5134C44.5715 10.6708 45.1205 9.85012 45.9631 9.68543C46.8057 9.52075 47.6264 10.0697 47.7911 10.9123C47.9558 11.7549 47.4068 12.5756 46.5642 12.7403ZM46.007 9.90775C45.2879 10.0477 44.8186 10.7476 44.9585 11.4667C45.0985 12.1859 45.7984 12.6552 46.5175 12.5152C47.2366 12.3752 47.706 11.6753 47.566 10.9562C47.426 10.2371 46.7261 9.76777 46.007 9.90775Z" fill="white"/>
<path d="M44.6897 13.1492C44.7089 13.1492 44.7281 13.141 44.7446 13.13C45.31 12.7403 45.417 12.5371 45.4335 12.4987C45.4472 12.463 45.4445 12.4246 45.4225 12.3917L44.6046 11.162C44.6046 11.162 44.5991 11.1538 44.5964 11.1511C44.4207 10.9452 44.3878 10.517 44.3658 10.0202C44.3631 9.95712 44.3109 9.91046 44.2478 9.9132C44.1847 9.91595 44.138 9.9681 44.1407 10.0312C44.1654 10.5664 44.2039 11.0303 44.4207 11.291L45.1947 12.4548C45.1371 12.5289 44.9834 12.6936 44.6156 12.9461C44.5634 12.9818 44.5524 13.0504 44.5881 13.1026C44.6128 13.1355 44.6513 13.1547 44.6897 13.152V13.1492Z" fill="#D3DDE1"/>
<path d="M40.231 12.4661C40.2502 12.7186 40.7745 12.886 41.4057 12.8394C42.0343 12.7927 42.5283 12.5485 42.5091 12.2932C42.4899 12.0407 41.9657 11.8733 41.3344 11.9199C40.7058 11.9666 40.2118 12.2109 40.231 12.4661Z" fill="#484241"/>
<path d="M42.8572 12.8419C42.0145 13.0065 41.1939 12.4576 41.0292 11.615C40.8645 10.7723 41.4134 9.95168 42.2561 9.787C43.0987 9.62231 43.9194 10.1713 44.084 11.0139C44.2487 11.8565 43.6998 12.6772 42.8572 12.8419ZM42.3 10.0093C41.5809 10.1493 41.1115 10.8492 41.2515 11.5683C41.3915 12.2874 42.0914 12.7568 42.8105 12.6168C43.5296 12.4768 43.999 11.7769 43.859 11.0578C43.719 10.3387 43.0191 9.86934 42.3 10.0093Z" fill="white"/>
<path d="M44.8352 11.3292C44.7721 11.3402 44.7144 11.2991 44.7035 11.2359C44.7035 11.2249 44.6486 10.9422 44.4345 10.9532C44.1957 10.9642 44.1051 11.2304 44.1051 11.2332C44.0859 11.2936 44.02 11.3265 43.9624 11.3073C43.902 11.2881 43.8691 11.2222 43.8883 11.1646C43.8938 11.1481 44.0283 10.7474 44.4235 10.7282C44.7556 10.7117 44.9011 11.0301 44.9313 11.2002C44.9423 11.2606 44.9011 11.321 44.8407 11.332L44.8352 11.3292Z" fill="white"/>
<path d="M41.1669 11.1266C41.1202 11.1348 41.0708 11.1156 41.0461 11.0689C40.4286 9.96008 39.2785 10.5063 39.2319 10.5282C39.1742 10.5557 39.1056 10.5337 39.0782 10.4761C39.0507 10.4184 39.0727 10.3526 39.1303 10.3224C39.144 10.3169 40.5219 9.65542 41.2465 10.9564C41.2767 11.0113 41.2575 11.0799 41.2026 11.1129C41.1916 11.1184 41.1806 11.1238 41.1696 11.1238L41.1669 11.1266Z" fill="white"/>
<path d="M47.0112 9.59546C47.0881 8.87909 47.1512 7.54791 45.9957 6.21673C44.2665 4.22956 40.7396 4.33934 39.3316 6.3622C37.9235 8.38505 38.6152 10.1417 38.6152 10.1417C38.6152 10.1417 39.1833 10.3475 39.4578 11.4564L40.2071 11.4262C40.2071 11.4262 40.4898 10.4985 40.1934 8.98614C39.897 7.4738 42.5676 5.95872 44.3791 6.30181C46.1933 6.6449 46.7697 8.29173 46.7697 8.29173C46.7697 8.29173 46.9701 8.89556 47.0085 9.59546H47.0112Z" fill="#D3DDE1"/>
<path d="M41.1641 7.172C41.1641 7.172 42.4266 6.67795 43.036 6.91674C43.6453 7.15828 44.5291 7.47117 45.196 6.99085C45.8603 6.51052 46.626 7.93228 46.626 7.93228C46.626 7.93228 45.7807 5.40166 43.6919 5.92865C41.6032 6.45563 41.6114 6.25801 41.1668 7.16926L41.1641 7.172Z" fill="#D3DDE1"/>
<path d="M44.4065 15.4329C44.4532 15.4192 44.4834 15.4082 44.4889 15.4054C44.5465 15.3807 44.574 15.3149 44.5493 15.26C44.5246 15.2023 44.4614 15.1749 44.4038 15.1996C44.3873 15.2051 44.0113 15.3533 43.6984 15.0871C43.6517 15.0459 43.5804 15.0514 43.5392 15.1008C43.498 15.1474 43.5035 15.2188 43.5529 15.26C43.8768 15.5372 44.2473 15.4795 44.4065 15.4356V15.4329Z" fill="#484241"/>
<path d="M39.3311 10.7581C39.3311 10.7581 38.6065 9.61084 37.4317 10.1817C36.2598 10.7526 36.9651 14.8725 39.2927 14.3153L39.3311 10.7581Z" fill="black" stroke="#ACACAC"/>
<path d="M38.8176 12.8555C38.8176 12.8555 38.8341 12.8555 38.8423 12.85C38.9027 12.8336 38.9357 12.7704 38.9165 12.7101C38.9 12.6606 38.5322 11.4694 37.4425 11.3048C37.3822 11.2965 37.3245 11.3377 37.3135 11.3981C37.3053 11.4585 37.3465 11.5161 37.4069 11.5271C38.3565 11.6725 38.6969 12.7649 38.6996 12.7759C38.7161 12.8281 38.7628 12.8583 38.8149 12.8555H38.8176Z" fill="#D3DDE1"/>
<path d="M37.8086 12.4902C37.836 12.4902 37.8634 12.4765 37.8827 12.4518C37.8827 12.4518 38.094 12.213 38.3465 11.9742C38.3904 11.9303 38.3932 11.8617 38.352 11.815C38.3108 11.7711 38.2395 11.7683 38.1928 11.8095C37.9348 12.0538 37.7235 12.2898 37.7152 12.3008C37.6741 12.3475 37.6796 12.4188 37.7262 12.46C37.7509 12.482 37.7811 12.4902 37.8086 12.4875V12.4902Z" fill="#D3DDE1"/>
<path d="M42.4141 11.2888C42.4169 11.5386 42.5349 11.739 42.6776 11.7362C42.8203 11.7362 42.9329 11.5304 42.9301 11.2834C42.9301 11.0336 42.8093 10.8332 42.6666 10.836C42.5239 10.836 42.4114 11.0418 42.4141 11.2888Z" fill="#D3DDE1"/>
<path d="M45.3204 11.2967C45.3231 11.5464 45.4411 11.7468 45.5839 11.744C45.7266 11.744 45.8391 11.5382 45.8364 11.2912C45.8364 11.0414 45.7156 10.841 45.5729 10.8438C45.4301 10.8438 45.3176 11.0496 45.3204 11.2967Z" fill="#D3DDE1"/>
<path d="M39.0644 17.6338C39.0644 17.6338 38.1971 17.8973 37.7305 19.8543C38.3343 21.6356 40.0333 23.1287 42.4212 23.5679L42.4157 20.0656C42.4157 20.0656 40.3105 19.5441 39.0671 17.6338H39.0644Z" fill="#939393"/>
<path d="M45.0023 18.1279C45.0023 18.1279 46.4351 18.4518 47.0334 20.406C45.4964 22.2834 44.6757 22.9888 42.4195 23.5679L42.4141 20.0657C42.4141 20.0657 43.7672 20.0437 45.0023 18.1279Z" fill="#939393"/>
<path d="M40.8008 23.0595L42.4229 25.4612L43.9709 23.0513L42.4147 21.0449L40.8008 23.0595Z" fill="#787878"/>
<path d="M45.6847 25.5162C45.7232 25.5162 45.7643 25.5024 45.7973 25.4777C45.8796 25.4146 45.8933 25.2993 45.833 25.217L42.5613 20.9325C42.5283 20.8886 42.4762 20.8611 42.4185 20.8584C42.3636 20.8584 42.3087 20.8804 42.2731 20.9215L39.0425 24.6324C38.9739 24.7092 38.9822 24.8272 39.0618 24.8931C39.1386 24.9617 39.2566 24.9535 39.3225 24.8739L42.4048 21.3332L45.5365 25.4366C45.5722 25.4832 45.6298 25.5107 45.6847 25.5107V25.5162Z" fill="#373737"/>
<path d="M42.4136 21.2316C42.5152 21.2316 42.5975 21.1465 42.5975 21.045L42.5893 20.2298C42.5893 20.1282 42.5042 20.0459 42.4026 20.0459C42.3011 20.0459 42.2188 20.131 42.2188 20.2325L42.227 21.0477C42.227 21.1493 42.3121 21.2316 42.4136 21.2316Z" fill="#373737"/>
<path d="M33.1465 56.0713C33.2238 56.0881 33.3202 56.1222 33.4453 56.1738C33.6611 56.2629 34.0159 56.436 34.3271 56.5186H34.3281C34.9778 56.6891 35.9095 57.1595 36.3359 57.5312C36.4557 57.6356 36.8756 58.0947 37.3848 58.6621C37.7882 59.1117 38.231 59.6085 38.5625 59.9775C38.4024 59.8935 38.1753 59.7381 37.873 59.46L37.8604 59.4482L37.8477 59.4375L37.832 59.4248C37.8218 59.4161 37.8083 59.4048 37.793 59.3916C37.762 59.365 37.7237 59.3319 37.6855 59.2988C37.6474 59.2658 37.6098 59.233 37.5801 59.207C37.5652 59.194 37.5527 59.1824 37.543 59.1738C37.5381 59.1695 37.5333 59.1667 37.5303 59.1641C37.5278 59.1619 37.5267 59.1605 37.5264 59.1602L37.5156 59.1504L37.5049 59.1416L37.3203 59.0068C37.138 58.8854 36.9656 58.8032 36.8271 58.749C36.7347 58.7128 36.6559 58.6887 36.5977 58.6729C36.5685 58.6649 36.5438 58.6594 36.5254 58.6553C36.5162 58.6532 36.5082 58.6517 36.502 58.6504L36.4902 58.6475H36.4883L34.7559 58.332L36.0645 59.5107L36.0693 59.5156C36.073 59.5189 36.0786 59.5237 36.0859 59.5303C36.1007 59.5437 36.123 59.564 36.1523 59.5908C36.2114 59.6447 36.2997 59.7253 36.4141 59.8311C36.5876 59.9914 36.8206 60.2116 37.1084 60.4834C36.2437 61.8447 35.0463 62.8729 33.5908 62.6875C33.4774 62.5022 33.3608 62.2795 33.2539 62.0635C33.1283 61.8095 32.9915 61.5103 32.9375 61.4131C32.7435 61.0617 32.3344 60.4117 31.9658 59.7871C31.5777 59.1296 31.2242 58.4835 31.0742 58.0508V58.0498L31.0771 57.9932C31.0833 57.9479 31.1006 57.8745 31.1455 57.7676C31.2268 57.5743 31.3718 57.3404 31.5713 57.1025C31.9772 56.6185 32.5329 56.2029 33.0479 56.0615H33.0488C33.0527 56.061 33.0809 56.0571 33.1465 56.0713Z" fill="black" stroke="#ACACAC"/>
<path d="M32.0896 21.8994L31.9057 22.0476L31.7603 22.1684L31.4885 22.399C31.3129 22.5499 31.1427 22.7009 30.9753 22.8518C30.6432 23.1565 30.322 23.4639 30.0064 23.7741C29.3779 24.3944 28.7768 25.0339 28.1949 25.6899C27.0394 27.0073 25.9689 28.3989 25.0028 29.8755C24.0312 31.3495 23.1693 32.9084 22.431 34.5388C22.0659 35.3567 21.7311 36.1911 21.4347 37.0447C21.2837 37.4702 21.1492 37.9011 21.0175 38.3347C20.9543 38.5516 20.8912 38.7684 20.8308 38.988L20.7869 39.1527L20.765 39.235L20.721 39.4052C20.6497 39.6961 20.6085 39.9651 20.5865 40.2066C20.5646 40.4509 20.5564 40.6732 20.5591 40.8791C20.5591 41.0877 20.5728 41.2771 20.5865 41.4582C20.6195 41.8178 20.6716 42.1362 20.7293 42.4326C20.85 43.0227 21.001 43.5277 21.1602 44.0026C21.3194 44.4774 21.4923 44.9193 21.6707 45.3447C21.8491 45.7702 22.033 46.1764 22.2251 46.5771C22.6067 47.3731 23.0046 48.1279 23.4136 48.8662C23.8226 49.6045 24.2452 50.3209 24.6762 51.0263C25.5353 52.4371 26.4355 53.8012 27.355 55.1433C27.8189 55.8131 28.2882 56.4745 28.763 57.1333C29.0018 57.4626 29.2406 57.792 29.4822 58.1186L29.8499 58.6072L30.2315 59.1067L35.1912 55.6127L34.8947 55.1379L34.5928 54.6466L33.9862 53.6612C33.5855 53.0025 33.1903 52.3383 32.8033 51.6713C32.0238 50.3428 31.2717 49.0034 30.5608 47.6668C30.2068 46.997 29.8664 46.3273 29.5425 45.6631C29.2187 44.9989 28.9167 44.3347 28.6478 43.6869C28.3815 43.0392 28.1427 42.4024 27.9835 41.8397C27.9039 41.5625 27.8463 41.3018 27.8216 41.1124C27.8079 41.0191 27.8051 40.945 27.8079 40.912C27.8079 40.8956 27.8106 40.8873 27.8134 40.8983C27.8134 40.9038 27.8189 40.9312 27.8134 40.9779C27.8106 41.0218 27.8024 41.0959 27.7804 41.1947L27.7722 41.2332V41.2414C27.7722 41.2414 27.7722 41.2386 27.7722 41.2359L27.7777 41.2222L27.7969 41.1618L27.8353 41.041C27.8847 40.8791 27.9424 40.7199 27.9973 40.5607C28.1098 40.2423 28.2278 39.9239 28.3541 39.6083C28.6066 38.977 28.892 38.354 29.1994 37.7391C29.8143 36.5095 30.5416 35.321 31.3458 34.171C31.7493 33.5974 32.1747 33.0374 32.6166 32.4885C33.0585 31.9396 33.5196 31.4016 33.9972 30.8829C34.472 30.3614 34.9633 29.8508 35.4656 29.3678C35.7181 29.1262 35.9706 28.8902 36.2259 28.6624C36.3522 28.5471 36.4784 28.4373 36.6019 28.3303L36.7831 28.1766L36.9148 28.0695L32.0951 21.9022L32.0896 21.8994Z" fill="#242424"/>
<path d="M27.6414 41.2307C27.7265 41.2307 27.8033 41.1731 27.8225 41.0853C27.8445 40.9865 27.7814 40.8849 27.6826 40.8629C27.6167 40.8492 26.0796 40.5034 24.7979 40.4512C24.6963 40.4485 24.6085 40.5253 24.6057 40.6296C24.6002 40.7312 24.6798 40.819 24.7841 40.8218C26.033 40.8739 27.5865 41.2225 27.603 41.2252C27.6167 41.228 27.6304 41.2307 27.6441 41.2307H27.6414Z" fill="#DEDEDE"/>
<path d="M27.5303 41.2088C27.5852 41.2088 27.6401 41.1841 27.6785 41.1347C27.7417 41.0524 27.7252 40.9371 27.6429 40.874C27.0198 40.3991 26.1442 39.8667 26.1058 39.8447C26.018 39.7926 25.9055 39.82 25.8506 39.9078C25.7984 39.9957 25.8259 40.1082 25.9137 40.1631C25.9219 40.1686 26.8085 40.7065 27.4178 41.1704C27.4507 41.1951 27.4919 41.2088 27.5303 41.2088Z" fill="#DEDEDE"/>
<path d="M29.9017 36.9294C29.9621 36.9294 30.0225 36.8993 30.0581 36.8444C30.0911 36.7922 33.3957 31.6678 35.5338 29.8234C35.6107 29.7575 35.6189 29.6395 35.553 29.5626C35.4872 29.4858 35.3692 29.4776 35.2923 29.5434C33.113 31.4236 29.8852 36.4327 29.748 36.644C29.6931 36.7291 29.7178 36.8444 29.8029 36.8993C29.8331 36.9185 29.8688 36.9294 29.9044 36.9294H29.9017Z" fill="#DEDEDE"/>
<path d="M34.2755 31.0015C34.2755 31.0015 34.2947 31.0015 34.3029 31.0015L35.8949 30.7572C35.9964 30.7408 36.065 30.6474 36.0513 30.5459C36.0348 30.4443 35.9415 30.3757 35.84 30.3894L34.248 30.6337C34.1465 30.6502 34.0779 30.7435 34.0916 30.8451C34.1053 30.9384 34.1849 31.0015 34.2755 31.0015Z" fill="#DEDEDE"/>
<path d="M28.5656 56.7635C28.6013 56.7635 28.637 56.7525 28.6699 56.7305L33.583 53.3435C33.6681 53.2859 33.6873 53.1706 33.6296 53.0855C33.572 53.0005 33.4567 52.9812 33.3716 53.0389L28.4586 56.4259C28.3735 56.4835 28.3543 56.5988 28.4119 56.6839C28.4476 56.736 28.5053 56.7635 28.5656 56.7635Z" fill="#DEDEDE"/>
<path d="M31.5259 58.1601C31.5615 58.1601 31.5972 58.1491 31.6274 58.1299C31.7125 58.0723 31.7372 57.957 31.6796 57.8719L30.1617 55.5883C30.1041 55.5032 29.9888 55.4785 29.9037 55.5362C29.8186 55.5938 29.7939 55.7091 29.8516 55.7942L31.3694 58.0778C31.4051 58.1327 31.4655 58.1601 31.5231 58.1601H31.5259Z" fill="#DEDEDE"/>
<path d="M32.3472 56.2533C32.2374 56.4674 31.9766 56.5497 31.7625 56.4399C31.5485 56.3302 31.4661 56.0694 31.5759 55.8553C31.6857 55.6412 31.9464 55.5589 32.1605 55.6687C32.3746 55.7785 32.457 56.0392 32.3472 56.2533Z" fill="#DEDEDE"/>
</g>
</svg>
