<svg width="39" height="36" viewBox="0 0 39 36" fill="none" xmlns="http://www.w3.org/2000/svg">
<path d="M30.4509 6.49615H33.7994C34.8389 6.49615 35.8942 7.88292 35.8149 8.91104V16.6339H37.0368C37.132 16.6339 37.6478 16.865 37.7589 16.9367C38.2508 17.2396 38.5206 17.9091 38.4889 18.4829L35.434 33.7931C35.1404 34.7894 34.3707 35.3951 33.3392 35.4907L5.19437 35.4748C3.29002 35.1958 3.2186 33.817 2.94882 32.2629C1.86175 26.0862 1.09207 19.8458 0.0129344 13.6691C-0.114023 12.9757 0.719134 11.8918 1.39359 11.8918H2.77425C2.91708 10.5847 2.40925 8.55239 3.2186 7.46051C3.48839 7.09389 4.25013 6.50412 4.71035 6.50412H8.13819V1.86563C8.13819 1.86563 8.38417 1.22804 8.43972 1.14037C8.79678 0.478863 9.49505 0.0963068 10.2251 0.00066777H28.2847C29.229 -0.0312119 30.4509 1.08458 30.4509 2.01706V6.49615ZM29.5067 16.6419V2.02503C29.5067 1.65841 28.9354 1.06864 28.5624 0.996908L10.2251 0.957058C9.79657 0.917208 9.08244 1.56277 9.08244 1.94533V11.8838C9.62994 11.8679 10.106 11.844 10.5742 12.1628C11.328 12.6808 12.2008 15.2152 12.7721 16.1318C12.8435 16.2434 13.0816 16.6339 13.2165 16.6339H29.4987L29.5067 16.6419ZM8.13026 7.45254H4.70241C4.65481 7.45254 4.13904 7.77134 4.06763 7.84307C3.98035 7.93074 3.7185 8.44081 3.7185 8.52051V11.8838H8.13819V7.44457L8.13026 7.45254ZM34.8706 16.6419V8.60021C34.8706 8.19374 34.212 7.45254 33.8073 7.45254H30.4589V16.6419H34.8785H34.8706ZM1.48881 12.8561C1.11587 12.9916 0.885765 13.3343 0.965113 13.7408C2.09979 20.4515 2.97262 27.2339 4.23426 33.9047C4.51991 34.2554 4.84524 34.5423 5.32927 34.5503H33.3313C34.212 34.4706 34.4104 33.9764 34.6008 33.2113C35.8149 28.4294 36.3465 23.2967 37.5367 18.4909C37.6319 18.0127 37.2828 17.5823 36.7988 17.5903H13.3038C13.1054 17.5345 12.8991 17.4787 12.7166 17.391C11.7168 16.881 10.9551 14.1154 10.2489 13.1351C10.1695 13.0235 10.0902 12.9279 9.94733 12.8801L1.48088 12.8641L1.48881 12.8561Z" fill="#0F0F0F"/>
<path d="M29.5061 16.6416H13.2239C13.089 16.6416 12.851 16.2591 12.7795 16.1395C12.2082 15.223 11.3275 12.6886 10.5816 12.1705C10.1134 11.8517 9.63735 11.8677 9.08984 11.8916V1.94511C9.08984 1.56255 9.81191 0.91699 10.2325 0.95684L28.5698 0.996689C28.9428 1.07639 29.5141 1.65819 29.5141 2.02481V16.6416H29.5061ZM24.4358 5.13308C24.6818 4.88601 24.4755 4.34405 24.1025 4.35202H14.4776C13.8587 4.35202 13.8587 5.22872 14.4776 5.22872C17.5722 5.02947 20.9683 5.48375 24.0232 5.22872C24.1422 5.22075 24.3485 5.21278 24.4358 5.12511V5.13308ZM12.0575 7.86676C11.5972 8.08992 11.6845 8.65578 12.1924 8.72751H26.3957C26.9432 8.65578 26.9829 7.91458 26.3957 7.85082L12.0575 7.87473V7.86676ZM11.8591 11.4293C11.6131 11.6764 11.8194 12.2183 12.1924 12.2104H26.3957C26.9432 12.1386 26.9829 11.3974 26.3957 11.3337H12.2717C12.1527 11.3416 11.9464 11.3496 11.8591 11.4373V11.4293Z" fill="#0F0F0F"/>
<path d="M21.9363 27.2497V31.0912C21.9363 31.4657 21.2063 31.7447 20.873 31.7686C20.3335 31.8084 19.0956 31.8324 18.6037 31.7447C18.3498 31.6969 17.834 31.3382 17.834 31.0912V27.2497C16.9215 27.3533 15.8344 27.154 16.0566 25.9824L19.0956 21.5113C19.6193 20.9056 20.1986 20.9694 20.7064 21.5591C21.4681 22.4438 22.4759 24.0457 23.1345 25.0579C23.4836 25.5919 23.9121 25.9585 23.6502 26.6439C23.3725 27.3692 22.5632 27.2576 21.9284 27.2576L21.9363 27.2497ZM22.8012 26.3012L19.9209 22.0214L16.9612 26.3012H18.3418C18.3815 26.3012 18.6989 26.5483 18.6989 26.5802V30.8202H21.0635V26.5802C21.0635 26.5802 21.3809 26.3012 21.4205 26.3012H22.8012Z" fill="#0F0F0F"/>
<path d="M22.801 26.3013H21.4203C21.3806 26.3013 21.0632 26.5484 21.0632 26.5803V30.8203H18.6987V26.5803C18.6987 26.5803 18.3813 26.3013 18.3416 26.3013H16.9609L19.9206 22.0215L22.801 26.3013Z" fill="#0F0F0F"/>
</svg>
