<svg width="25" height="20" viewBox="0 0 25 20" fill="none" xmlns="http://www.w3.org/2000/svg">
<path d="M0 11.6C0.19126 11.281 1.7429 10.9322 1.79822 10.7659C1.80853 10.7352 1.84979 10.1951 1.84979 10.1182C1.85166 9.57428 1.71103 8.63829 1.24507 8.29714C1.03037 8.13953 0.162196 7.9483 0.435961 7.51778C0.553154 7.33423 1.37164 7.18239 1.61071 7.09591C1.30132 6.73458 1.06881 6.32231 0.9413 5.85624C0.583156 4.55314 0.628158 2.32366 2.23324 1.95464L16.0246 0L24.485 2.64175C24.9238 3.15875 23.9853 3.30579 23.7041 3.54507C23.0618 4.08995 23.1875 5.2537 23.1884 6.01288C23.465 6.15222 24.9988 6.54046 24.9998 6.872C25.0044 6.96233 24.9388 6.97194 24.8788 7.00077C24.696 7.08726 23.7228 7.25351 23.6788 7.29771C24.5676 8.5787 24.4185 11.0081 23.1912 12.0258C23.1875 12.1228 23.7547 12.1315 23.8166 12.3362C23.9572 12.8061 23.3628 12.8781 23.0984 13.0329C22.3334 13.4788 22.3493 14.8703 22.4646 15.6477C22.7909 15.7582 24.1194 16.1061 24.2094 16.4386C24.2375 16.5433 24.1869 16.5837 24.0969 16.6087L10.4715 20C7.87823 19.1063 5.25215 18.3039 2.65983 17.4063C1.27788 16.9277 0.509089 16.9056 0.130319 15.246L0.00093755 14.5032V13.5528C0.075004 13.252 0.116256 12.9579 0.236263 12.6677C0.346893 12.4005 0.510027 12.1766 0.684411 11.9518L0.00093755 11.7509V11.601L0 11.6ZM11.3237 5.94753L2.45263 3.00404C1.3482 2.84259 1.48789 4.9433 1.67353 5.60542C1.75041 5.8793 1.95479 6.31847 2.21074 6.45589L11.2281 9.04767L11.3237 5.94657V5.94753ZM11.7175 9.04863L22.7028 6.27234C22.8134 6.18778 22.7037 5.95714 22.7 5.8226C22.6775 5.06919 22.6625 4.33116 22.9943 3.64405L11.8178 5.99846L11.7184 9.04863H11.7175ZM13.7679 13.8526L22.8162 11.2426C23.5156 10.8226 23.5953 8.82472 23.24 8.17125C23.12 7.95022 22.9625 7.84355 22.7196 7.80031L13.6742 10.7553L13.767 13.8526H13.7679ZM13.1791 10.8015L2.00167 8.44801C2.33356 9.13511 2.31856 9.87411 2.29606 10.6266C2.29231 10.7611 2.18262 10.9917 2.29325 11.0763L13.2785 13.8526L13.1791 10.8024V10.8015ZM10.4959 18.6556L10.5456 15.5776L1.7204 12.6129C0.567218 12.4409 0.728476 14.4811 0.913173 15.1922C1.0013 15.5333 1.16256 15.838 1.44664 16.0465L10.4949 18.6556H10.4959ZM10.9853 18.6556L21.9218 15.8793C22.0502 15.7803 21.9227 15.3805 21.919 15.2297C21.8974 14.5205 21.9668 13.9131 22.2134 13.251L15.2324 14.7271C14.6098 14.8424 13.9976 15.3162 13.3657 15.1144L11.0884 15.6083L10.9862 18.6556H10.9853Z" fill="white"/>
</svg>
