<svg width="21" height="24" viewBox="0 0 21 24" fill="none" xmlns="http://www.w3.org/2000/svg">
<path d="M15.979 3.25H18.0749C19.2266 3.25 20.1708 4.45529 20.1708 5.92843V19.7491C20.1708 21.2223 18.9655 22.4276 17.4924 22.4276H3.67834C2.2052 22.4276 0.999908 21.2223 0.999908 19.7491V5.92843C0.999908 4.45529 2.07798 3.25 3.39711 3.25H5.7943" stroke="white" stroke-width="1.3" stroke-linecap="round" stroke-linejoin="round"/>
<path d="M14.1582 22.4266V18.9245C14.1582 17.4514 15.3635 16.2461 16.8366 16.2461H20.1713" stroke="white" stroke-width="1.3" stroke-linecap="round" stroke-linejoin="round"/>
<path d="M7.68927 3.25H14.084" stroke="white" stroke-width="1.3" stroke-linecap="round" stroke-linejoin="round"/>
<path d="M0.999908 8.29102H20.1775" stroke="white" stroke-width="1.3" stroke-linecap="round" stroke-linejoin="round"/>
<path d="M6.74577 1C7.26806 1 7.69661 1.42185 7.69661 1.95084V4.50205C7.69661 5.02434 7.27476 5.45289 6.74577 5.45289C6.22347 5.45289 5.79492 5.03104 5.79492 4.50205V1.95084C5.79492 1.42855 6.21678 1 6.74577 1Z" stroke="white" stroke-width="1.3" stroke-linecap="round" stroke-linejoin="round"/>
<path d="M15.0348 5.4462C14.5125 5.4462 14.084 5.02434 14.084 4.49535V1.95084C14.084 1.42855 14.5058 1 15.0348 1C15.5571 1 15.9857 1.42185 15.9857 1.95084V4.50205C15.9857 5.02434 15.5638 5.45289 15.0348 5.45289V5.4462Z" stroke="white" stroke-width="1.3" stroke-linecap="round" stroke-linejoin="round"/>
<path d="M20.1774 16.2461L13.9902 22.4266" stroke="white" stroke-width="1.3" stroke-linecap="round" stroke-linejoin="round"/>
<path d="M2 8.96484H19.5V15.9648H16L14 17.9648V21.9648H3.5L1.5 20.4648L2 8.96484Z" fill="white" stroke="white"/>
</svg>
