<svg width="16" height="14" viewBox="0 0 16 14" fill="none" xmlns="http://www.w3.org/2000/svg">
<path d="M14.1379 1L2.33386 12.8003" stroke="black" stroke-linecap="round" stroke-linejoin="round"/>
<path d="M4.32193 10.7801C2.1 9.38777 1 7.16219 1 7.16219V7.11468C1 7.11468 3.32791 2.40039 8.05682 2.40039C9.47842 2.40039 10.6844 2.82797 11.6748 3.42365" stroke="black" stroke-linecap="round" stroke-linejoin="round"/>
<path d="M12.8625 4.29297C14.3681 5.60493 15.11 7.11423 15.11 7.11423V7.16174C15.11 7.16174 12.7821 11.8724 8.05315 11.8724C7.20531 11.8724 6.43056 11.7189 5.73621 11.4704" stroke="black" stroke-linecap="round" stroke-linejoin="round"/>
<path d="M10.2235 7.16211C10.2235 8.36078 9.25142 9.33288 8.05275 9.33288C7.97601 9.33288 7.90292 9.32922 7.82617 9.32191" stroke="black" stroke-linecap="round" stroke-linejoin="round"/>
<path d="M6.46413 8.63401C6.10599 8.24664 5.88672 7.73135 5.88672 7.16125C5.88672 5.96258 6.85881 4.99414 8.05383 4.99414C8.62759 4.99414 9.15383 5.21706 9.54121 5.58251" stroke="black" stroke-linecap="round" stroke-linejoin="round"/>
</svg>
