<svg width="17" height="11" viewBox="0 0 17 11" fill="none" xmlns="http://www.w3.org/2000/svg">
<path d="M0.5 5.45139C0.5 5.45139 3.05579 0.5 8.2476 0.5C13.4394 0.5 15.9952 5.45139 15.9952 5.45139V5.50129C15.9952 5.50129 13.4394 10.4488 8.2476 10.4488C3.05579 10.4488 0.5 5.50129 0.5 5.50129V5.45139Z" stroke="#0B0B0B" stroke-linecap="round" stroke-linejoin="round"/>
<path d="M10.6258 5.50072C10.6258 6.75967 9.55854 7.78066 8.24253 7.78066C6.92652 7.78066 5.86328 6.75967 5.86328 5.50072C5.86328 4.24176 6.93053 3.22461 8.24253 3.22461C9.55453 3.22461 10.6258 4.24559 10.6258 5.50072Z" stroke="#0B0B0B" stroke-linecap="round" stroke-linejoin="round"/>
<path d="M9.11187 5.50101C9.11187 5.95777 8.72669 6.32625 8.24924 6.32625C7.77179 6.32625 7.39062 5.95777 7.39062 5.50101C7.39062 5.04426 7.7758 4.67578 8.24924 4.67578C8.72268 4.67578 9.11187 5.04426 9.11187 5.50101Z" fill="#0B0B0B"/>
</svg>
