<svg width="21" height="23" viewBox="0 0 21 23" fill="none" xmlns="http://www.w3.org/2000/svg">
<path d="M16.8279 13.7679C17.5751 13.83 18.2154 14.2043 18.8537 14.5566C19.2461 14.4236 19.0556 14.2331 19.0609 13.9851C19.069 13.6061 19.4352 13.3054 19.8048 13.3595C20.0876 13.4003 20.9772 14.2966 20.9986 14.5953C21.022 14.9188 20.7539 15.2684 20.4251 15.2884C20.1324 15.3065 20.0174 15.1214 19.8002 15.5043C19.9472 15.8285 20.1611 16.1059 20.3035 16.4354C21.554 19.3335 19.5301 22.5043 16.4355 22.7296H1.8454C0.784681 22.6373 0.054139 21.8139 0 20.7618V2.72419C0.0909 1.57458 0.825453 0.85807 1.96638 0.757812H14.8601C15.9864 0.846707 16.6922 1.55519 16.8239 2.66738L16.8279 13.7679ZM10.3499 2.09124H6.4773V3.14995C6.4773 3.16666 6.623 3.29633 6.65976 3.33042C7.69576 3.30769 8.93761 3.46744 9.96024 3.36584C10.0725 3.35448 10.3499 3.26625 10.3499 3.15062V2.0919V2.09124ZM4.34048 6.1042C4.03102 5.83017 2.75106 5.82415 2.61538 6.43171C2.43826 7.22642 3.35528 7.29794 3.90536 7.23511C4.49554 7.16693 4.77626 6.48986 4.34048 6.1042ZM13.4171 7.03459C13.7226 6.68904 13.5575 5.98991 13.0442 5.96251L6.32891 5.96719C5.61976 6.18441 5.68125 7.14354 6.44521 7.23578H12.984C13.1076 7.22842 13.3429 7.11881 13.4171 7.03393V7.03459ZM10.8138 8.70755C10.7035 8.59727 10.4762 8.52308 10.3198 8.5057C9.55587 8.41881 7.19447 8.40611 6.4519 8.51105C5.61976 8.62869 5.61976 9.71481 6.4519 9.83177C7.14167 9.92936 9.68486 9.92869 10.3746 9.83177C10.9334 9.7529 11.2268 9.12195 10.8131 8.70755H10.8138ZM4.34048 12.2386C4.77626 11.853 4.49554 11.1759 3.90536 11.1077C3.35528 11.0442 2.43893 11.1157 2.61538 11.9111C2.75106 12.5193 4.03102 12.5127 4.34048 12.2386ZM6.33961 11.1218C5.66655 11.3062 5.66655 12.1765 6.32891 12.375L13.0442 12.3796C13.7627 12.2954 13.7252 11.2167 13.0388 11.1111L6.33961 11.1211V11.1218ZM6.27812 13.7231C5.63914 13.9911 5.6993 14.8333 6.39041 14.977C7.62424 14.8513 9.25041 15.1601 10.4368 14.977C11.1533 14.8667 11.176 13.8929 10.4976 13.7137L6.27812 13.7231ZM15.7832 14.9977C11.4507 15.4863 12.4045 22.2517 16.8285 21.3687C20.7312 20.5901 19.879 14.5359 15.7832 14.9977Z" fill="white"/>
<path d="M16.6232 16.4535C16.8919 16.7222 16.8738 17.8885 16.8103 18.2642C16.6793 19.0468 15.6393 19.0482 15.5083 18.2642C15.4588 17.9701 15.4575 17.0778 15.5197 16.7917C15.6279 16.2931 16.2509 16.0819 16.6232 16.4528V16.4535Z" fill="white"/>
</svg>
