<svg width="35" height="33" viewBox="0 0 35 33" fill="none" xmlns="http://www.w3.org/2000/svg">
<g clip-path="url(#clip0_509_20065)">
<path d="M5.8512 32.4332C5.54301 32.1294 5.29883 31.611 5.25268 31.1727C5.07104 29.4558 5.38817 27.435 5.25268 25.6848C2.73652 25.9538 0.466012 24.4424 0.0163774 21.8836L0 4.0158C0.236728 1.76381 2.10375 0.133004 4.29981 0H30.5483C32.7072 0.11789 34.6576 1.7895 34.8481 4.0158C35.3305 9.68206 34.4804 16.042 34.8437 21.7808C34.5117 23.9678 32.8144 25.5004 30.6555 25.6833C26.4019 26.0445 21.6986 25.3931 17.3958 25.712L8.23188 32.7189C7.49043 33.195 6.46461 33.0378 5.8512 32.4317V32.4332ZM6.36932 24.5543V31.1727C6.36932 31.6503 7.47405 32.0342 7.85967 31.6639L17.0578 24.5785L30.6555 24.5528C32.3871 24.3381 33.5811 23.1018 33.7315 21.3335C33.4069 15.8546 34.1499 9.88912 33.7315 4.46771C33.6049 2.82179 32.6119 1.57035 30.992 1.24691C21.8013 1.31794 12.5749 1.10484 3.40501 1.35422C2.08737 1.8424 1.25213 2.92759 1.12409 4.3604C0.635741 9.78634 1.48588 15.9378 1.12409 21.4408C1.11366 22.7542 2.68143 24.5528 3.97078 24.5528H6.37081L6.36932 24.5543Z" fill="#0F0F0F"/>
<path d="M19.3235 10.7513H22.8402C22.8893 10.7513 23.5057 11.0445 23.604 11.1095C24.4988 11.6975 24.743 12.8537 24.1251 13.7515C23.9018 14.0749 23.2258 14.5994 22.8402 14.5994H19.3235V18.1633C19.3235 18.2237 19.1062 18.8026 19.0511 18.9054C18.4004 20.1296 16.45 20.1326 15.7994 18.9054C15.7443 18.8026 15.527 18.2237 15.527 18.1633V14.5994H12.0103C11.6247 14.5994 10.9487 14.0749 10.7254 13.7515C10.1075 12.8537 10.3517 11.6975 11.2465 11.1095C11.3448 11.0445 11.9611 10.7513 12.0103 10.7513H15.527V7.18744C15.527 7.15418 15.6922 6.68867 15.7294 6.60101C16.3488 5.17727 18.5002 5.17727 19.121 6.60101C19.1598 6.68867 19.3235 7.15418 19.3235 7.18744V10.7513Z" fill="#0F0F0F"/>
</g>
<defs>
<clipPath id="clip0_509_20065">
<rect width="35" height="33" fill="white"/>
</clipPath>
</defs>
</svg>
