<svg width="18" height="18" viewBox="0 0 18 18" fill="none" xmlns="http://www.w3.org/2000/svg">
<path d="M4.42188 1.6582C8.73588 -1.17646 14.6074 0.627021 16.8252 5.22266C19.8405 11.4713 14.6256 18.5382 7.78809 17.5928C3.70404 17.0276 0.519372 13.5192 0.317383 9.39941C0.30639 9.17635 0.292734 8.87395 0.303711 8.58203C0.315166 8.27768 0.353137 8.0346 0.416016 7.90234C0.710842 7.28471 1.61125 7.17126 2.05176 7.70215C2.22484 7.9107 2.27984 8.13099 2.29199 8.39648C2.29828 8.53416 2.29289 8.67671 2.28711 8.83887C2.28148 8.99656 2.27521 9.17103 2.28516 9.35059C2.53142 13.831 7.10394 16.8565 11.335 15.29C15.907 13.5972 17.2185 7.67625 13.7334 4.21973C11.6824 2.18639 8.57162 1.7162 5.98438 2.9873L5.91895 3.01953L5.875 3.07812C5.80859 3.16803 5.81082 3.26267 5.81836 3.31055C5.82579 3.35756 5.84242 3.39323 5.85156 3.41113C5.87045 3.44804 5.8948 3.47839 5.90918 3.49609C5.94095 3.53519 5.98302 3.57976 6.02441 3.62109C6.10683 3.70337 6.22924 3.81744 6.33887 3.92383C6.4544 4.03595 6.56643 4.14937 6.65234 4.24902C6.69502 4.29855 6.72729 4.34006 6.74902 4.37305C6.77373 4.4106 6.77305 4.41849 6.76953 4.40332C6.82421 4.63931 6.66026 4.83848 6.46289 4.8418C5.82066 4.79842 5.14545 4.82717 4.49414 4.85156C3.82982 4.87644 3.1889 4.89721 2.5918 4.84375C2.44724 4.83074 2.37586 4.79288 2.33789 4.75781C2.30338 4.72579 2.26448 4.66619 2.24512 4.53906C2.28541 3.8985 2.2588 3.22522 2.23438 2.5752C2.20916 1.90408 2.18816 1.25612 2.24219 0.65332C2.26101 0.445423 2.35817 0.358449 2.44336 0.328125C2.5383 0.294344 2.69354 0.304296 2.86035 0.439453C2.8901 0.463559 2.96973 0.541779 3.08984 0.665039C3.20427 0.782465 3.34038 0.925596 3.47559 1.06641C3.60936 1.20573 3.74286 1.34376 3.84863 1.44824C3.90112 1.50008 3.95061 1.54727 3.99121 1.58301C4.01099 1.60041 4.03348 1.61957 4.05566 1.63574C4.06665 1.64373 4.0825 1.6539 4.10059 1.66406C4.11341 1.67126 4.15308 1.69385 4.20703 1.70312L4.32324 1.72266L4.42188 1.6582Z" fill="white" stroke="black" stroke-width="0.6"/>
<path d="M7.33789 6.03418C7.57599 5.92082 7.88156 5.91033 8.20801 6.0625C8.73593 6.30865 9.28138 6.68036 9.85059 7.07617C10.3991 7.45763 10.9718 7.86196 11.5381 8.1582C11.8135 8.38654 11.9574 8.67906 11.9746 8.96191C11.9913 9.23949 11.8865 9.5273 11.6279 9.7666C11.0484 10.0668 10.453 10.494 9.88379 10.8906C9.28865 11.3053 8.72014 11.6881 8.17871 11.9189H8.17773C7.95251 12.0152 7.75861 12.0573 7.56836 12.0186V12.0176C7.58954 12.0219 7.57998 12.0228 7.52246 11.9902C7.47624 11.964 7.41943 11.928 7.36035 11.8877C7.24234 11.8071 7.14191 11.7284 7.10742 11.6963L7.10352 11.6924C7.04145 11.6309 6.97116 11.5362 6.91406 11.4287C6.85615 11.3197 6.82241 11.2183 6.81445 11.1455C6.74093 10.467 6.76806 9.71606 6.80176 8.93652C6.83417 8.18663 6.87172 7.40853 6.82227 6.68457C6.91537 6.36109 7.10859 6.14342 7.33789 6.03418Z" fill="white" stroke="black" stroke-width="0.6"/>
</svg>
