<svg width="17" height="16" viewBox="0 0 17 16" fill="none" xmlns="http://www.w3.org/2000/svg">
<path d="M0.823431 0.010142L16.0721 0C16.5058 0.0550564 16.8371 0.354486 16.968 0.767409C17.0028 4.16303 17.0216 7.58184 16.9583 10.9751C16.8023 11.4073 16.4648 11.6753 15.9997 11.7154H1.03013C0.423548 11.6546 0.0473292 11.2542 0 10.6491V1.03062C0.0410508 0.508064 0.318264 0.152612 0.823431 0.010142ZM8.1638 1.56669C5.09947 1.79658 3.2604 5.17288 4.75417 7.8832C6.38461 10.8408 10.6674 10.8123 12.2621 7.83442C13.8539 4.86186 11.5034 1.31652 8.16331 1.56669H8.1638Z" fill="white"/>
<path d="M4.4177 14.323C3.99754 15.3555 2.41974 15.3111 1.96721 14.322C1.68855 14.2631 0.503873 14.3983 0.342568 14.2839C0.144075 14.1433 0.242114 13.8415 0.525123 13.8101C0.975233 13.7604 1.50648 13.854 1.96625 13.8053C2.03193 13.7826 2.07974 13.6102 2.1348 13.5401C2.62499 12.9147 3.76765 12.9263 4.26123 13.5464C4.32932 13.6319 4.36699 13.7927 4.466 13.8115L16.6871 13.8096C17.0343 13.8043 17.0995 14.2452 16.7595 14.3191L4.4177 14.323Z" fill="white"/>
<path d="M7.40265 3.84242C7.64316 3.80137 7.76052 3.85256 7.9677 3.94722C8.50474 4.19256 9.55323 4.84357 10.0483 5.19226C10.5138 5.52019 10.565 6.08041 10.1207 6.45132C9.78939 6.72756 8.29466 7.63068 7.89429 7.80406C7.3616 8.03443 6.88493 7.72679 6.79751 7.17767C6.87527 6.3301 6.69271 5.29368 6.80089 4.46929C6.84146 4.15875 7.09211 3.89506 7.40265 3.84242Z" fill="white"/>
</svg>
