<svg width="43" height="46" viewBox="0 0 43 46" fill="none" xmlns="http://www.w3.org/2000/svg">
<path d="M36.3596 35.9512H6.64062" stroke="black" stroke-width="3" stroke-linecap="round" stroke-linejoin="round"/>
<path d="M33.1271 35.9512V44.0581M9.87305 44.0581V35.9512" stroke="black" stroke-width="3" stroke-linecap="round" stroke-linejoin="round"/>
<path d="M34.7203 28.604C37.6538 28.3262 39.9566 26.3845 40.2776 23.9321C40.2776 23.9321 41 21.1282 41 15.6627C41 10.1972 40.2776 7.39193 40.2776 7.39193C39.9569 4.93952 37.6541 2.9978 34.7207 2.72C30.4612 2.31664 25.7885 2 21.5022 2C17.2154 2 12.539 2.3167 8.27745 2.72012C5.34392 2.99782 3.04117 4.93952 2.7215 7.39206C2.7215 7.39206 2 10.1972 2 15.662C2 21.1268 2.7213 23.932 2.7213 23.932C3.04101 26.3845 5.34376 28.3262 8.27728 28.6039" stroke="black" stroke-width="3" stroke-linecap="round" stroke-linejoin="round"/>
<path d="M12.629 35.9483C12.629 33.7206 12.8524 31.3863 14.259 29.6591C15.9843 27.5406 18.5878 26.1914 21.5005 26.1914C24.4132 26.1914 27.0166 27.5406 28.742 29.6591C30.1486 31.3863 30.3719 33.7206 30.3719 35.9483" stroke="black" stroke-width="3" stroke-linecap="round" stroke-linejoin="round"/>
<path d="M21.5011 20.6858C24.9131 20.6858 26.8323 18.7666 26.8323 15.3546C26.8323 11.9427 24.9131 10.0234 21.5011 10.0234C18.0892 10.0234 16.1699 11.9427 16.1699 15.3546C16.1699 18.7666 18.0892 20.6858 21.5011 20.6858Z" stroke="black" stroke-width="3" stroke-linecap="round" stroke-linejoin="round"/>
</svg>
