<svg width="54" height="53" viewBox="0 0 54 53" fill="none" xmlns="http://www.w3.org/2000/svg">
<path d="M20.7954 27.882V42.4585C20.7954 42.895 21.45 43.614 21.9063 43.6719L35.4381 43.7297L43.0983 48.7897V45.1315C43.0983 44.6323 43.5232 44.0207 44.0059 43.8322C45.2192 43.3562 47.6839 43.8868 49.0741 43.6735C49.6163 43.5892 50.013 43.1826 50.1585 42.6668V22.5096C49.9882 21.9293 49.5783 21.5657 48.9683 21.4929C45.9019 21.1243 42.1445 21.7971 39.0037 21.4681C37.306 21.1822 37.3474 18.901 38.974 18.7059C42.2801 19.0034 46.2953 18.3025 49.5171 18.739C51.4875 19.0051 52.8397 20.802 52.9786 22.7112C53.4514 29.1912 52.6265 36.2563 52.9588 42.7958C53.0084 44.1876 50.9933 46.4688 49.6626 46.4688H46.0622L45.8887 46.6424V52.1024C45.8887 52.5735 44.5282 53.2794 44.0604 52.8843L34.6546 46.4936C30.4889 46.1796 25.8967 46.8276 21.7823 46.4738C20.0201 46.3217 18.0117 44.5083 18.0117 42.6949V28.001L9.11497 34.1454C8.59095 34.6099 7.09329 33.9966 7.09329 33.4015V27.8836H3.78223C2.06141 27.882 -0.0115103 25.7429 0.00667323 23.989L6.10352e-05 3.89128C0.201733 1.8415 1.74568 0.272753 3.78058 0.00661219L30.8492 0C33.2991 0.170264 34.8033 1.82166 34.9719 4.24007C35.4199 10.6241 34.638 17.5388 34.9521 23.9775C34.8909 25.809 32.9056 27.8836 31.0757 27.8836H20.7954V27.882ZM16.8231 6.89321C11.4028 7.40235 8.53806 13.7236 11.8045 18.1158C14.0444 21.1276 18.1241 21.774 21.3227 19.8713C21.6566 19.8796 22.8766 21.483 23.3874 21.7508C24.6437 22.4071 25.8074 21.326 25.3909 19.9787C25.2305 19.458 23.4138 18.1158 23.3642 17.8199C26.5712 12.9103 22.6832 6.34275 16.8248 6.89321H16.8231Z" fill="white"/>
<path d="M35.0487 27.6757C35.8058 27.5021 36.3216 27.7551 36.7563 28.3584C37.9961 31.5538 39.6079 34.6846 40.8278 37.8767C41.1022 38.5957 41.4907 39.1561 41.0063 39.9066C40.3897 40.8604 39.15 40.6885 38.583 39.7727C38.3284 39.3628 38.0242 37.9544 37.5796 37.8717C36.3993 37.6535 34.5528 38.0221 33.2965 37.8882L33.1643 37.9891C32.7923 38.7941 32.5146 40.3133 31.5112 40.5182C30.6483 40.6951 29.802 40.0736 29.7772 39.1908C29.7639 38.6817 30.7326 36.5675 30.9938 35.936C32.0418 33.4068 33.2403 30.9339 34.2437 28.3832C34.4057 28.1105 34.7281 27.7501 35.0454 27.6774L35.0487 27.6757ZM36.5927 35.0847C36.4604 34.9111 35.5893 32.5291 35.4323 32.6464C35.2074 33.4878 34.6685 34.24 34.5016 35.0847H36.5927Z" fill="white"/>
<path d="M21.376 15.6854C20.8553 15.5449 20.6635 14.9631 20.1032 14.811C18.8105 14.4589 17.8567 15.7615 18.4898 16.8905C18.6419 17.1633 19.0138 17.3616 19.1725 17.603C19.2436 17.7104 19.3675 17.7071 19.1725 17.8361C18.4203 18.3369 16.6318 18.17 15.8052 17.8327C12.0379 16.2954 12.5239 10.7048 16.4764 9.79728C19.999 8.98729 22.7199 12.4058 21.3777 15.6854H21.376Z" fill="white"/>
</svg>
