<svg width="22" height="21" viewBox="0 0 22 21" fill="none" xmlns="http://www.w3.org/2000/svg">
<path d="M15.7948 5.17785C13.5078 2.91032 10.0355 2.38271 7.14399 3.80344C7.09392 3.87103 8.16917 4.72472 8.24803 5.06457C8.35505 5.52646 8.03711 6.00588 7.54393 6.00651C6.07688 5.90449 4.44211 6.13606 2.99572 6.00651C2.5645 5.9677 2.32854 5.76179 2.27159 5.32556C2.37173 3.84537 2.1389 2.19182 2.26971 0.732292C2.33418 0.015044 3.01951 -0.197752 3.56151 0.241609C3.77931 0.418105 4.87459 1.62666 4.97285 1.64356C10.1982 -1.78997 17.29 0.399955 19.9675 5.9483C23.6125 13.5019 17.3088 22.0388 9.04852 20.8966C4.10977 20.2132 0.265047 15.9748 0.0209576 10.9959C-0.0047031 10.4752 -0.0453847 9.52953 0.169289 9.07891C0.624297 8.12571 1.9887 7.95672 2.66589 8.77285C3.20038 9.41688 2.97695 10.1354 3.01951 10.9027C3.29426 15.9015 8.39824 19.2781 13.1179 17.5307C18.2194 15.6418 19.6827 9.03384 15.7948 5.17785Z" fill="white"/>
<path d="M8.05075 13.9059C7.84734 13.7044 7.64331 13.3439 7.61201 13.056C7.43364 11.4099 7.74282 9.44534 7.61639 7.76613C7.86925 6.77913 8.80242 6.3285 9.73559 6.76348C11.0324 7.36807 12.3786 8.56975 13.678 9.23943C14.4866 9.88971 14.588 10.9887 13.7925 11.6941C12.4606 12.37 11.0324 13.6725 9.69053 14.2445C9.39762 14.3697 9.09345 14.4467 8.77112 14.381C8.62655 14.3515 8.16591 14.0198 8.05075 13.9065V13.9059Z" fill="white"/>
</svg>
