<svg width="20" height="21" viewBox="0 0 20 21" fill="none" xmlns="http://www.w3.org/2000/svg">
<path fill-rule="evenodd" clip-rule="evenodd" d="M9.9 0C7.29665 0 4.75977 0.15363 2.35866 0.43518C1.43914 0.543004 0.677858 1.2288 0.50578 2.15676C0.441993 2.50075 0.38406 2.84871 0.332084 3.20012C0.267763 3.635 0.609359 4.01928 1.04897 4.01928H18.7392C19.1795 4.01928 19.521 3.63396 19.4567 3.19845C19.4062 2.85671 19.3506 2.51825 19.2905 2.18343C19.1215 1.24271 18.3506 0.543789 17.4165 0.438035C14.9949 0.163843 12.5039 0 9.9 0ZM0.023892 6.54224C0.0388315 6.15465 0.360542 5.85262 0.748427 5.85262H19.0499C19.4369 5.85262 19.7581 6.15316 19.774 6.53973C19.7912 6.95215 19.8 7.3673 19.8 7.78461C19.8 9.71671 19.5903 11.5752 19.284 13.3539C19.1198 14.3076 18.3411 15.0251 17.3889 15.1297C16.3296 15.246 15.2519 15.3453 14.1551 15.4199L17.024 18.2889C17.4536 18.7185 17.4536 19.4149 17.024 19.8444C16.5945 20.274 15.8981 20.274 15.4685 19.8444L11.2377 15.6137C11.2187 15.5946 11.2005 15.5751 11.1831 15.5552C11.1221 15.5565 11.0611 15.5577 11 15.5588V19.0667C11 19.6742 10.5075 20.1667 9.9 20.1667C9.29249 20.1667 8.8 19.6742 8.8 19.0667V15.5558C8.7401 15.5544 8.68022 15.5528 8.62033 15.5512C8.602 15.5726 8.58271 15.5935 8.56246 15.6137L4.3317 19.8444C3.90211 20.274 3.20563 20.274 2.77606 19.8444C2.34648 19.4149 2.34648 18.7185 2.77606 18.2889L5.66714 15.3978C4.54252 15.3157 3.45167 15.2136 2.4281 15.1136C1.47821 15.0206 0.67665 14.3193 0.5039 13.3542C0.183572 11.5647 0 9.70983 0 7.78461C0 7.36864 0.00801239 6.95427 0.023892 6.54224Z" fill="#F2F2F2"/>
</svg>
