<svg width="55" height="66" viewBox="0 0 55 66" fill="none" xmlns="http://www.w3.org/2000/svg">
<path d="M49.3458 14.6346L41.6374 17.4875C41.3724 21.0156 41.9965 24.4787 40.9211 27.9114C36.8019 41.0662 17.5503 41.2206 13.1891 28.1288C12.0234 24.6313 12.6706 21.0918 12.4037 17.4875L1.37885 13.2825C-0.314912 12.3767 -0.211212 9.90134 1.59777 9.20909L26.2975 0L27.8569 0.0286056L52.9349 9.43412C53.6628 9.95283 53.8836 10.5497 53.9585 11.4174C53.632 16.7057 54.3752 22.4687 53.9585 27.7016C53.8068 29.5953 52.2014 31.1591 50.3597 29.9729C50.1139 29.8146 49.3439 28.9241 49.3439 28.6952V14.6346H49.3458ZM45.023 11.2096L26.9601 4.64936L9.01615 11.2801L27.0695 18.0272C32.7596 15.7293 38.6493 13.8909 44.3413 11.6005C44.5353 11.5223 44.9904 11.4251 45.025 11.2096H45.023ZM36.9594 19.202C33.5988 20.2699 30.3802 21.8375 26.9735 22.7166L17.0836 19.202V24.9841C17.0836 25.7565 17.9804 27.8046 18.4087 28.5255C22.284 35.0666 32.001 34.9713 35.7381 28.3424C36.126 27.654 36.9594 25.7069 36.9594 24.986V19.2039V19.202Z" fill="black"/>
<path d="M49.972 64.6864C49.6321 64.368 49.3959 63.8416 49.3459 63.3801C49.1174 61.2843 49.5073 58.8089 49.3517 56.6654C48.9868 51.6251 44.7006 47.8911 40.3702 45.8678C39.5406 45.4807 37.0652 44.4299 36.274 44.3441C36.1127 44.3269 35.9936 44.3269 35.8746 44.4547C34.0579 46.0356 32.3949 48.2516 30.5456 49.7429C29.426 50.6449 27.978 51.1617 26.5185 51.0301C23.1291 50.725 20.5481 46.2721 17.9902 44.3441C12.2521 45.7534 5.18711 50.1071 4.69934 56.53C4.54379 58.5877 5.05076 61.7992 4.66477 63.6338C4.23269 65.6876 0.971905 66.0042 0.274812 63.7672C-0.253289 62.0776 0.0789346 56.0666 0.443804 54.1672C1.7631 47.3248 9.88433 41.4816 16.4155 40.0208C21.2529 38.9376 23.2693 43.7376 26.5089 46.3274C26.8085 46.541 27.2387 46.5391 27.5344 46.3274C29.3511 44.7426 31.0122 42.5419 32.8519 41.0353C35.0699 39.2198 37.0191 39.7595 39.4829 40.6082C46.0698 42.8756 52.914 48.0876 53.8089 55.3877C54.0547 57.3958 54.1526 60.9429 53.9356 62.9339C53.7052 65.0621 51.5889 66.2082 49.972 64.6864Z" fill="black"/>
</svg>
