<svg width="20" height="24" viewBox="0 0 20 24" fill="none" xmlns="http://www.w3.org/2000/svg">
<path d="M17.7643 5.2339L15.0075 6.25421C14.9127 7.51597 15.1359 8.75453 14.7513 9.98219C13.2781 14.6868 6.39299 14.7421 4.83327 10.0599C4.41639 8.8091 4.64784 7.54325 4.55237 6.25421L0.609474 4.75034C0.00371923 4.42637 0.0408062 3.5411 0.687769 3.29352L9.52135 0L10.079 0.0102304L19.0479 3.374C19.3082 3.55951 19.3872 3.77299 19.414 4.08331C19.2972 5.97458 19.563 8.03568 19.414 9.90716C19.3597 10.5844 18.7855 11.1437 18.1269 10.7195C18.039 10.6629 17.7636 10.3443 17.7636 10.2625V5.2339H17.7643ZM16.2183 4.00897L9.75829 1.66279L3.34086 4.03421L9.79744 6.44723C11.8324 5.62538 13.9388 4.96791 15.9745 4.14879C16.0439 4.12082 16.2066 4.08604 16.219 4.00897H16.2183ZM13.3344 6.86736C12.1325 7.24929 10.9815 7.80992 9.7631 8.12434L6.2261 6.86736V8.93527C6.2261 9.21149 6.54683 9.94399 6.69999 10.2018C8.08594 12.5412 11.5611 12.5071 12.8976 10.1363C13.0364 9.89011 13.3344 9.19376 13.3344 8.93596V6.86804V6.86736Z" fill="white"/>
<path d="M17.9882 23.1355C17.8667 23.0216 17.7822 22.8334 17.7643 22.6683C17.6826 21.9188 17.822 21.0335 17.7664 20.2669C17.6359 18.4643 16.103 17.1289 14.5542 16.4053C14.2575 16.2668 13.3723 15.891 13.0893 15.8603C13.0316 15.8542 12.989 15.8542 12.9465 15.8999C12.2967 16.4653 11.702 17.2578 11.0406 17.7912C10.6402 18.1138 10.1223 18.2986 9.60038 18.2515C8.38818 18.1424 7.46513 16.5499 6.55031 15.8603C4.49817 16.3643 1.97144 17.9214 1.797 20.2185C1.74137 20.9544 1.92268 22.1029 1.78463 22.7591C1.6301 23.4936 0.463923 23.6068 0.214616 22.8068C0.0257472 22.2025 0.144563 20.0528 0.275054 19.3735C0.746884 16.9263 3.65135 14.8366 5.98714 14.3142C7.71718 13.9268 8.43832 15.6434 9.59694 16.5696C9.70409 16.646 9.85793 16.6453 9.96369 16.5696C10.6134 16.0029 11.2075 15.2158 11.8654 14.677C12.6587 14.0277 13.3558 14.2207 14.2369 14.5242C16.5927 15.3352 19.0404 17.1992 19.3604 19.81C19.4484 20.5281 19.4834 21.7967 19.4058 22.5088C19.3234 23.2699 18.5665 23.6798 17.9882 23.1355Z" fill="white"/>
</svg>
