<svg width="24" height="19" viewBox="0 0 24 19" fill="none" xmlns="http://www.w3.org/2000/svg">
<path d="M21.5167 8.24785L21.5077 14.0272C22.176 14.2763 22.6889 14.7918 22.7531 15.5281C22.8388 16.5129 22.6882 17.6195 22.7483 18.6174C22.7206 18.7949 22.5914 18.9243 22.4117 18.9525C22.004 19.0158 20.187 19.0158 19.7792 18.9525C19.6009 18.925 19.471 18.7963 19.4426 18.6174C19.5111 17.6126 19.3397 16.4661 19.4399 15.4786C19.5138 14.7491 20.0391 14.286 20.6832 14.0265L20.6811 7.31262L12.1637 5.77384C11.5756 5.64378 11.3344 6.37669 11.926 6.57833L19.8041 8.0063L19.8559 8.16045C19.6465 10.1816 20.3826 12.8077 19.2021 14.5716C16.6498 18.3848 7.13164 18.3751 4.72583 14.4174C3.72094 12.7651 4.28973 10.6427 4.10313 8.80459L0.767763 7.38694C-0.243352 6.62099 -0.259939 5.21091 0.738736 4.42845C4.45284 2.86696 8.24435 1.42178 12.0103 0L23.1491 4.3672C23.9467 4.86475 24.1692 5.83784 23.8748 6.70702C23.5514 7.66221 22.3564 7.91684 21.5167 8.24785ZM19.0266 9.21957L11.964 11.9523L4.95529 9.16795V10.2752C4.95529 10.5498 5.27735 11.2972 5.43078 11.5532C7.47651 14.9604 16.4314 14.9487 18.5311 11.5848C18.6935 11.3247 19.0266 10.5595 19.0266 10.2752V9.21888V9.21957Z" fill="white"/>
</svg>
