<svg width="12" height="15" viewBox="0 0 12 15" fill="none" xmlns="http://www.w3.org/2000/svg">
<path d="M7.99202 1.40823L11.0292 1.40696C11.9847 1.49919 12.055 2.40662 11.9777 3.20524C11.9502 3.49043 11.7892 3.76244 11.5646 3.92863C11.5051 3.97241 11.347 4.03701 11.3233 4.06421C11.2609 4.13562 11.2988 4.74128 11.2938 4.89301C11.2139 7.33988 11.1361 9.79312 11.0421 12.2396C10.9955 13.4458 11.1365 14.5666 9.70592 14.947C7.34223 15.0528 4.95982 14.964 2.58948 14.9924C1.44507 14.8573 1.00578 14.1483 0.954615 13.0361C0.87932 11.4044 0.882232 9.76889 0.831065 8.13552L0.705434 4.12797C0.692122 4.05614 0.410077 3.9231 0.31523 3.82705C-0.0408629 3.46663 -0.0163191 2.86139 0.0190405 2.37729C0.0544002 1.89319 0.340605 1.55487 0.778649 1.43544L3.664 1.40866C3.59536 0.725645 3.90569 0.12041 4.61746 0.0443306C5.20984 -0.018998 6.37879 -0.00879741 6.98115 0.0392304C7.4038 0.0728073 7.99202 0.433653 7.99202 0.915206V1.40823ZM7.33807 1.40823C7.34681 1.15534 7.36678 0.82085 7.07142 0.741796C6.29642 0.806825 5.36875 0.648715 4.61247 0.739246C4.52344 0.749871 4.34831 0.860378 4.34831 0.946658V1.40781H7.33766L7.33807 1.40823ZM11.2197 2.18263C11.1827 2.1448 11.117 2.12185 11.0691 2.09805L1.03241 2.07637C0.875576 2.09295 0.736633 2.17583 0.69545 2.33649C0.656762 2.4878 0.656762 2.91665 0.674234 3.07858C0.696698 3.28472 0.791545 3.41647 1.00037 3.44495H10.9976C11.1744 3.42158 11.2871 3.31404 11.3162 3.13426C11.3487 2.9362 11.3583 2.32374 11.2197 2.1822V2.18263ZM10.6386 4.11266H1.35938L1.63976 13.3863C1.69134 13.861 2.05825 14.2478 2.52583 14.2946H9.44093C9.91101 14.2703 10.2904 13.8857 10.3549 13.4152L10.6386 4.11266Z" fill="black"/>
<path d="M5.89753 5.84102C6.17458 5.77599 6.32933 5.9647 6.34389 6.23077L6.34264 12.2453C6.31976 12.6648 5.80268 12.7532 5.67871 12.3507L5.65625 6.23077C5.65875 6.08244 5.74236 5.87757 5.89753 5.84102Z" fill="black"/>
<path d="M7.9098 12.5026C7.87194 12.4588 7.84366 12.3657 7.837 12.3062C7.79706 11.9415 7.86279 11.5539 7.87028 11.1935C7.89441 10.0447 7.92727 8.90261 7.96388 7.7576C7.9801 7.24374 7.93434 6.63638 7.993 6.13315C8.04084 5.72301 8.61117 5.7094 8.64902 6.1323C8.6823 6.5008 8.62282 6.88247 8.61533 7.24587C8.59078 8.39428 8.55834 9.53675 8.52173 10.6818C8.5055 11.1909 8.54794 11.772 8.49178 12.2739C8.45725 12.5842 8.10823 12.7317 7.9098 12.5026Z" fill="black"/>
<path d="M3.90244 5.90745C4.06302 6.05281 3.99354 6.40983 4.00436 6.61469C4.06759 7.82729 4.10295 9.05646 4.13165 10.2708C4.1458 10.8713 4.21693 11.7073 4.16327 12.2781C4.11959 12.7427 3.55633 12.7095 3.50766 12.2764C3.40117 11.3269 3.52513 10.2737 3.41281 9.31912L3.38161 8.17368C3.43569 7.50639 3.29134 6.79363 3.35041 6.13484C3.37704 5.83732 3.70318 5.72724 3.90286 5.90788L3.90244 5.90745Z" fill="black"/>
</svg>
