<svg width="26" height="24" viewBox="0 0 26 24" fill="none" xmlns="http://www.w3.org/2000/svg">
<path d="M1.25936 0.0155112L24.5809 0C25.2442 0.0842039 25.7509 0.542155 25.951 1.17368C26.0042 6.36699 26.033 11.5958 25.9363 16.7854C25.6977 17.4464 25.1814 17.8564 24.4701 17.9177H1.5755C0.647779 17.8246 0.0723858 17.2123 0 16.2868V1.57624C0.0627836 0.777039 0.486757 0.233407 1.25936 0.0155112ZM12.4858 2.39612C7.7992 2.7477 4.98649 7.91147 7.27108 12.0567C9.76469 16.58 16.3149 16.5365 18.7538 11.9821C21.1883 7.43579 17.5934 2.01351 12.4851 2.39612H12.4858Z" fill="white"/>
<path d="M6.75626 21.9059C6.11365 23.4851 3.70054 23.4172 3.00845 21.9044C2.58226 21.8143 0.770396 22.0212 0.523694 21.8461C0.220117 21.6312 0.370059 21.1695 0.802896 21.1215C1.4913 21.0454 2.30379 21.1887 3.00697 21.1141C3.10742 21.0794 3.18055 20.8157 3.26475 20.7086C4.01446 19.7521 5.76206 19.7698 6.51694 20.7182C6.62109 20.8489 6.6787 21.0949 6.83012 21.1237L25.5212 21.1208C26.0522 21.1126 26.1519 21.787 25.632 21.9L6.75626 21.9059Z" fill="white"/>
<path d="M11.3217 5.87635C11.6896 5.81357 11.8691 5.89186 12.1859 6.03663C13.0073 6.41186 14.6109 7.40753 15.368 7.94082C16.08 8.44235 16.1583 9.29917 15.4788 9.86643C14.9721 10.2889 12.686 11.6702 12.0737 11.9353C11.259 12.2877 10.5299 11.8172 10.3962 10.9773C10.5152 9.68104 10.236 8.09594 10.4014 6.83509C10.4635 6.36015 10.8468 5.95686 11.3217 5.87635Z" fill="white"/>
</svg>
