<svg width="38" height="38" viewBox="0 0 38 38" fill="none" xmlns="http://www.w3.org/2000/svg">
<path d="M21.4313 4.47457L31.696 4.49892C32.9457 4.6876 33.8465 5.6107 33.9469 6.87972V24.2696C33.9449 24.3599 34.0017 24.4035 34.0555 24.4634C34.2533 24.6865 34.9664 25.0771 35.2748 25.3702C38.6619 28.5727 38.1313 34.1844 34.2117 36.6879C31.3247 38.5311 27.5998 38.0868 25.1744 35.6989C24.9766 35.5041 24.5526 34.8316 24.3375 34.79H2.46804C1.16048 34.6885 0.116656 33.8232 0 32.4751V10.2972C0.0710081 9.28588 1.00121 8.19946 2.0217 8.06657C2.30979 8.02904 3.28362 8.1254 3.42462 8.02701C3.57475 7.92252 3.46317 6.79654 3.50273 6.51048C3.64677 5.46159 4.83464 4.49892 5.88556 4.48878L13.0635 4.45327L16.2903 0.617819C16.7539 0.0609129 17.2783 -0.267753 17.9164 0.284081L21.4323 4.47457H21.4313ZM20.6563 5.47883L17.2093 1.45774L13.8222 5.47883H15.075C15.2211 5.47883 15.6441 5.83387 15.6441 5.97284V12.5411H18.8334V5.97183C18.8334 5.83387 19.2574 5.47782 19.4025 5.47782H20.6552L20.6563 5.47883ZM4.71088 6.65554C4.63277 7.04 4.7687 7.64661 4.71088 8.06048H14.4299V6.76915H13.0249C12.5329 6.76915 12.1454 6.14225 12.1079 5.702L5.8957 5.71519C5.41386 5.74055 4.80725 6.17877 4.70987 6.65554H4.71088ZM32.7297 23.7776V6.8077C32.7297 6.77422 32.5329 6.35426 32.4892 6.28832C32.2164 5.87242 31.7335 5.71823 31.2517 5.70301H22.3706C22.3371 6.10472 21.9912 6.76915 21.5297 6.76915H20.0486V7.94586C20.0486 8.02904 20.2343 8.0544 20.3103 8.06353C22.7885 8.35466 25.8622 7.78761 28.3637 8.05947C29.441 8.17612 30.3783 9.22299 30.4544 10.2972L30.4513 23.3982C31.2314 23.4043 31.9729 23.6326 32.7297 23.7776ZM14.4299 9.27472H2.16676C2.10184 9.27472 1.5987 9.59832 1.52059 9.69164C1.36741 9.87423 1.24467 10.2141 1.21728 10.4514L1.21424 32.3229C1.15033 32.8707 1.89592 33.5727 2.39399 33.5727H23.6924C23.5108 32.9448 23.2785 32.3442 23.1811 31.692C22.6577 28.1679 24.797 24.7961 28.172 23.7401C28.387 23.6731 29.1793 23.5605 29.2249 23.4256L29.2371 10.3733C29.2432 9.99089 28.6406 9.27371 28.2856 9.27371H20.0466V12.8809C20.0466 13.1822 19.4461 13.6762 19.156 13.7371C18.593 13.8547 16.1696 13.8203 15.5244 13.7584C15.1552 13.7229 14.8305 13.5281 14.6216 13.2177C14.5871 13.166 14.4268 12.9002 14.4268 12.8809V9.27371L14.4299 9.27472ZM30.1338 24.6338C25.8398 24.7433 23.0381 29.4177 24.9431 33.2734C26.8482 37.1292 32.0257 37.7581 34.8183 34.5617C38.25 30.634 35.3255 24.5019 30.1338 24.6338Z" fill="#0F0F0F"/>
<path d="M10.7643 14.9121C11.306 14.8187 11.6113 14.9293 12.0769 15.1575C15.0714 16.6254 17.9767 18.7932 20.9823 20.2995C22.2199 21.0654 22.1763 22.3517 20.9996 23.1723C18.28 25.0672 14.832 26.4783 12.0505 28.3468C11.0919 28.9605 10.0014 28.5304 9.60582 27.5008L9.57031 16.2227C9.63321 15.6232 10.1688 15.0155 10.7653 14.9121H10.7643ZM20.5593 22.0119C20.9732 21.5858 20.0957 21.2166 19.7955 21.0309C17.0424 19.3288 14.1229 17.8761 11.3709 16.1679C11.2025 16.0705 10.9164 16.0685 10.8221 16.2602L10.8241 27.1924L11.0148 27.3862L20.5593 22.0119Z" fill="#0F0F0F"/>
<path d="M30.9053 30.0045H33.5245C33.5468 30.0045 33.8664 30.1932 33.9019 30.2348C34.1656 30.5452 33.9222 31.2198 33.6006 31.2198H30.9053V33.915C30.9053 34.0936 30.5341 34.337 30.3362 34.337C30.1202 34.337 29.6911 34.0216 29.6911 33.839V31.2198H26.9958C26.9745 31.2198 26.7098 30.951 26.6935 30.9144C26.5596 30.601 26.7351 30.0045 27.0719 30.0045H29.6911V27.3853C29.6911 27.1987 30.1293 26.8954 30.3383 26.9005C30.5006 26.9045 30.9063 27.151 30.9063 27.3093V30.0045H30.9053Z" fill="#0F0F0F"/>
<path d="M20.5595 22.0127L11.015 27.387L10.8243 27.1933L10.8223 16.2611C10.9166 16.0684 11.2027 16.0714 11.3711 16.1688C14.1231 17.877 17.0426 19.3297 19.7957 21.0318C20.0969 21.2175 20.9734 21.5867 20.5595 22.0127Z" fill="#0F0F0F"/>
</svg>
